{"glyphs":{"0":{"ha":608,"x_min":75,"x_max":539,"o":"m 524 671 q 528 638 525 658 q 533 463 538 568 q 482 175 529 292 q 417 57 456 100 q 304 3 368 3 q 302 3 303 3 q 301 3 301 3 q 175 74 225 4 q 97 306 118 153 q 88 600 76 458 q 129 829 100 742 q 244 956 172 951 q 303 939 275 958 q 343 976 319 968 q 346 978 344 978 q 408 971 379 989 q 469 889 443 950 q 524 671 508 807 m 301 35 q 304 35 304 35 q 377 70 338 35 q 447 175 417 106 q 500 453 490 288 q 500 493 500 472 q 492 664 500 588 q 435 885 469 811 q 393 939 415 922 q 356 947 372 953 q 354 947 354 947 q 333 907 342 942 q 343 893 339 900 q 336 871 350 879 q 328 869 332 869 q 333 719 322 804 q 364 603 344 632 q 360 581 372 590 q 338 583 347 572 q 278 738 292 642 q 286 899 264 835 q 285 899 285 899 q 273 892 279 897 q 256 867 267 888 q 234 815 244 847 q 212 722 224 783 q 192 579 200 660 q 183 249 169 385 q 243 63 196 114 q 301 35 268 36 z "},"1":{"ha":353,"x_min":72,"x_max":265,"o":"m 226 808 q 217 632 219 701 q 215 445 215 563 q 228 222 215 328 q 263 26 240 117 q 261 14 265 19 q 250 7 257 8 q 208 3 231 3 q 121 49 135 3 q 156 906 78 179 q 140 897 150 903 q 101 876 115 883 q 81 881 89 871 q 81 901 74 890 q 142 952 92 915 q 215 981 192 989 q 231 947 229 975 q 226 808 232 918 z "},"2":{"ha":738,"x_min":76,"x_max":671,"o":"m 625 218 q 654 186 643 219 q 667 131 665 153 q 640 41 671 74 q 549 3 608 8 q 528 3 539 3 q 438 15 496 3 q 271 33 349 35 q 143 11 206 31 q 100 10 113 1 q 82 43 88 17 q 88 115 76 78 q 118 181 100 153 q 176 251 136 210 q 242 315 215 292 q 319 383 268 339 q 388 442 365 422 q 448 499 411 463 q 504 560 485 535 q 542 618 524 585 q 567 681 561 651 q 528 886 593 811 q 499 913 515 901 q 350 950 438 950 l 349 950 q 342 950 347 950 q 323 947 336 950 q 295 940 310 944 q 263 928 281 936 q 228 909 244 919 q 194 882 211 899 q 166 844 178 865 q 145 795 154 824 q 135 733 136 767 q 199 582 129 614 q 239 574 221 574 q 265 582 257 575 q 283 620 283 597 q 277 653 282 643 q 267 669 272 664 l 256 685 l 374 738 l 382 726 q 410 649 406 692 q 399 572 414 607 q 299 496 372 510 q 158 531 215 479 q 101 631 118 568 q 96 764 85 693 q 182 915 111 856 q 336 981 253 975 q 348 982 343 982 q 353 982 353 982 q 518 938 454 982 q 560 904 540 924 q 625 664 639 821 q 601 567 621 614 q 544 474 582 521 q 478 399 506 426 q 400 322 450 371 q 275 192 306 235 q 228 97 218 117 q 311 82 235 85 q 342 79 335 81 q 581 122 522 68 q 608 197 610 150 q 625 218 607 218 z "},"3":{"ha":694,"x_min":71,"x_max":632,"o":"m 506 699 q 596 618 563 681 q 630 461 629 556 q 599 269 631 367 q 517 113 569 175 q 410 27 464 51 q 297 3 356 3 q 274 4 286 3 q 113 110 168 14 q 75 231 79 164 q 97 353 71 297 q 168 438 122 407 q 267 467 214 469 q 357 413 328 464 q 357 307 386 360 q 333 288 346 286 q 317 307 321 290 q 292 343 311 333 q 211 344 251 361 q 161 279 175 328 q 152 180 146 229 q 185 96 158 131 q 235 53 206 68 q 299 38 264 38 q 301 38 300 38 q 398 78 353 38 q 477 198 443 119 q 532 385 511 276 q 499 656 572 599 q 357 654 451 693 q 349 651 353 653 q 263 594 306 631 q 235 590 246 579 q 235 615 224 600 q 279 657 239 619 q 551 940 539 893 q 532 936 543 939 q 524 935 529 936 q 479 915 510 931 q 313 867 388 871 q 255 874 283 865 q 207 893 226 882 q 169 920 188 904 q 145 943 151 936 q 135 954 139 950 q 136 976 126 965 q 157 976 146 986 q 226 949 181 960 q 350 940 272 938 q 514 965 428 942 q 524 968 519 967 q 550 972 540 972 q 604 957 590 976 q 551 832 625 924 q 432 707 489 756 q 506 699 471 708 z "},"4":{"ha":697,"x_min":75,"x_max":653,"o":"m 538 378 q 640 336 597 368 q 644 315 651 328 q 625 308 638 303 q 542 319 593 321 q 590 28 556 168 q 588 15 592 21 q 578 7 583 8 q 536 3 557 3 q 447 50 463 3 q 435 307 429 106 q 350 289 406 301 q 186 264 231 264 q 118 282 140 264 q 94 335 94 300 q 103 381 94 354 q 133 447 113 407 q 170 513 154 486 q 218 593 186 540 q 265 674 249 644 q 306 746 282 703 q 337 815 329 789 q 336 853 344 842 q 292 868 322 872 q 219 835 257 863 q 176 790 182 807 q 162 779 172 781 q 146 788 151 778 l 81 906 q 85 926 75 917 q 105 943 92 933 q 160 968 118 953 q 247 983 201 983 q 351 929 314 983 q 360 751 399 863 q 290 585 342 700 q 272 545 278 558 q 256 506 267 532 q 239 465 244 481 q 225 428 233 450 q 213 392 217 407 q 207 363 210 378 q 206 340 204 349 q 211 325 207 331 q 376 356 238 299 q 417 371 407 367 q 438 375 426 374 q 496 901 453 682 q 510 943 501 925 q 530 969 519 961 q 549 981 540 978 q 564 983 558 985 q 579 964 582 981 l 579 963 q 575 942 579 961 q 538 378 521 650 z "},"5":{"ha":663,"x_min":81,"x_max":617,"o":"m 575 981 q 595 976 588 985 q 599 958 603 968 q 520 907 589 938 q 379 882 451 876 q 292 900 343 885 q 246 907 253 911 q 235 876 238 901 q 224 640 224 785 q 258 664 243 654 q 393 708 328 711 q 526 639 475 703 q 575 294 615 526 q 532 158 561 217 q 465 67 503 100 q 386 19 426 35 q 304 3 346 3 q 283 4 294 3 q 122 111 178 14 q 85 233 89 167 q 107 357 81 300 q 178 442 132 411 q 276 471 224 474 q 367 417 338 468 q 367 310 396 364 q 343 292 356 289 q 326 311 331 293 q 301 346 321 338 q 221 347 261 365 q 171 282 185 331 q 163 178 156 229 q 197 92 169 128 q 308 38 239 36 q 493 371 467 40 q 424 664 513 617 q 274 635 368 693 q 207 578 249 617 q 172 548 183 556 q 150 543 161 540 q 135 558 139 546 q 122 663 128 578 q 122 842 117 747 q 149 960 128 936 q 179 971 161 975 q 309 951 249 957 q 408 945 369 944 q 482 953 446 946 q 533 965 518 960 q 568 978 547 969 l 575 981 z "},"6":{"ha":578,"x_min":53,"x_max":517,"o":"m 442 685 q 513 449 514 615 q 511 369 515 410 q 485 228 506 299 q 425 94 463 149 q 292 4 369 8 q 275 3 283 3 q 271 3 274 3 q 143 64 194 3 q 69 255 86 131 q 82 519 53 379 q 147 714 103 622 q 239 861 192 806 q 327 949 286 917 q 392 982 368 981 q 407 973 403 983 q 403 954 411 963 q 397 948 401 953 q 379 928 392 943 q 353 897 367 914 q 322 853 339 879 q 288 797 304 826 q 253 729 271 768 q 222 650 236 690 q 353 717 274 713 q 442 685 403 721 m 267 436 l 178 463 q 218 64 135 154 q 288 36 246 35 q 378 88 339 43 q 443 207 417 132 q 481 443 479 311 q 481 445 481 444 q 481 447 481 446 q 429 594 474 553 q 367 611 403 618 q 326 588 343 607 q 302 549 310 569 q 291 503 294 529 q 287 468 288 478 q 288 453 286 458 q 281 439 288 444 q 267 436 274 433 z "},"7":{"ha":689,"x_min":38,"x_max":757,"o":"m 754 961 l 756 960 l 756 957 q 754 940 757 950 q 751 927 754 935 q 740 904 749 919 q 717 878 731 889 q 679 858 704 867 q 624 851 654 850 q 596 853 610 851 q 485 613 528 767 q 464 533 474 575 q 558 519 524 526 q 593 499 576 515 q 607 468 610 482 q 583 454 604 450 q 449 461 525 464 q 422 272 429 363 q 420 120 415 181 q 438 31 425 60 q 435 8 443 18 q 421 3 429 3 q 411 4 417 3 q 350 48 388 13 q 310 113 313 83 q 347 454 294 256 q 231 429 276 444 q 219 426 225 426 q 196 444 203 426 q 199 497 188 464 q 228 539 210 531 q 375 542 257 550 q 547 861 446 750 q 417 901 501 871 q 317 935 353 925 q 246 947 269 946 q 217 946 232 947 q 180 935 203 944 q 139 911 157 926 q 106 865 121 896 q 89 793 92 835 q 135 658 82 688 q 192 660 167 642 q 208 691 208 671 q 205 721 208 711 q 197 738 201 731 l 188 751 l 292 799 l 300 788 q 324 719 319 757 q 315 650 328 682 q 228 582 292 594 q 196 578 211 578 q 97 619 138 578 q 50 709 63 654 q 51 821 38 764 q 142 958 75 918 q 294 975 207 997 q 325 967 310 971 q 389 950 343 963 q 597 910 533 913 q 650 946 624 932 q 679 960 664 954 q 732 969 710 971 q 743 969 738 972 q 754 961 750 968 m 697 931 q 664 915 682 926 q 697 931 683 921 z "},"8":{"ha":653,"x_min":82,"x_max":596,"o":"m 350 982 q 522 908 457 982 q 579 697 594 828 q 557 615 574 651 q 546 593 553 604 q 479 519 521 547 q 406 486 446 496 q 485 447 451 472 q 537 395 519 422 q 564 336 554 368 q 576 281 574 304 q 576 236 578 258 q 510 78 571 147 q 344 4 450 10 q 339 3 343 4 q 319 3 329 3 q 243 14 281 3 q 126 96 168 36 q 82 243 83 156 q 82 249 82 244 q 82 256 82 251 q 115 388 83 329 q 200 482 149 450 q 225 496 213 490 q 89 717 89 554 q 161 908 88 836 q 322 981 226 972 q 350 982 335 982 m 506 876 q 349 950 451 949 q 326 949 338 950 q 219 896 264 943 q 170 810 188 861 q 157 708 153 760 q 170 633 161 665 q 193 581 179 601 q 223 547 207 560 q 260 524 239 533 q 246 544 251 533 q 229 678 208 607 q 257 738 239 711 q 286 774 275 764 q 317 796 297 783 l 322 800 q 344 797 335 808 l 419 713 q 424 698 425 706 q 414 688 422 690 q 378 658 394 679 q 358 613 363 636 q 374 553 351 576 q 435 543 394 533 q 517 607 486 556 q 528 629 522 617 q 533 646 531 638 q 545 772 553 711 q 506 876 538 833 m 114 254 q 114 249 114 250 q 115 242 114 247 q 179 88 117 146 q 254 44 211 58 q 326 36 288 36 q 342 36 335 36 q 388 47 365 39 q 437 76 410 56 q 482 140 464 97 q 504 243 500 182 q 424 435 513 382 q 447 369 442 407 q 440 272 454 321 q 396 196 425 222 q 375 194 386 188 l 276 258 q 270 276 267 264 q 286 288 274 288 q 292 288 288 288 q 308 294 297 289 q 327 306 318 299 q 346 331 336 314 q 360 368 356 347 q 351 451 371 425 q 324 469 342 465 q 311 471 315 471 q 189 428 247 476 q 144 374 163 404 q 114 254 115 317 z "},"9":{"ha":642,"x_min":61,"x_max":581,"o":"m 524 854 q 569 699 558 790 q 572 532 581 607 q 546 400 564 457 q 232 7 460 128 l 229 4 q 221 3 225 3 q 215 4 218 3 q 206 14 208 7 l 167 118 q 175 139 163 132 q 359 281 281 189 q 478 497 438 374 q 485 518 482 507 q 424 438 465 468 q 325 401 382 407 q 149 458 224 389 q 67 696 63 539 q 90 822 69 767 q 132 896 106 864 q 172 935 150 918 q 276 979 218 969 q 371 975 335 989 q 524 854 471 950 m 453 717 q 500 582 506 669 q 496 754 514 671 q 324 949 456 947 l 321 949 q 165 885 225 949 q 156 874 161 881 q 121 810 133 847 q 106 688 101 756 q 193 501 113 553 q 300 492 244 469 q 354 550 344 510 q 332 639 365 600 q 329 652 328 644 q 336 664 331 660 l 435 718 q 453 717 444 724 z "},"\u0000":{"ha":0,"x_min":0,"x_max":0,"o":""},"\n":{"ha":0,"x_min":0,"x_max":0,"o":""},"\r":{"ha":0,"x_min":0,"x_max":0,"o":""}," ":{"ha":214,"x_min":0,"x_max":0,"o":""},"!":{"ha":371,"x_min":110,"x_max":269,"o":"m 213 21 q 205 12 213 21 q 171 3 196 3 q 128 21 146 3 q 110 65 110 39 q 128 110 110 92 q 171 128 146 128 q 213 110 196 128 q 231 65 231 92 q 213 21 231 39 m 251 974 q 266 962 263 971 q 261 942 269 953 q 213 750 225 896 q 181 231 178 333 q 172 207 182 213 l 164 203 l 156 207 q 126 383 136 218 q 115 768 115 547 q 124 908 115 863 q 156 969 133 953 q 251 974 183 990 m 244 942 l 246 949 l 244 942 z "},"\"":{"ha":385,"x_min":57,"x_max":288,"o":"m 149 1083 q 153 1035 164 1074 q 139 960 142 993 q 137 916 136 928 q 132 900 138 904 q 108 900 124 894 q 86 918 92 906 q 65 983 74 943 q 61 1043 57 1024 q 99 1083 65 1071 q 149 1083 132 1096 m 271 1083 q 276 1035 286 1074 q 263 960 265 993 q 260 916 260 928 q 256 900 260 904 q 231 900 247 894 q 208 918 215 906 q 188 983 196 943 q 183 1043 181 1024 q 222 1083 189 1071 q 271 1083 256 1096 z "},"“":{"ha":385,"x_min":57,"x_max":288,"o":"m 149 1083 q 153 1035 164 1074 q 139 960 142 993 q 137 916 136 928 q 132 900 138 904 q 108 900 124 894 q 86 918 92 906 q 65 983 74 943 q 61 1043 57 1024 q 99 1083 65 1071 q 149 1083 132 1096 m 271 1083 q 276 1035 286 1074 q 263 960 265 993 q 260 916 260 928 q 256 900 260 904 q 231 900 247 894 q 208 918 215 906 q 188 983 196 943 q 183 1043 181 1024 q 222 1083 189 1071 q 271 1083 256 1096 z "},"”":{"ha":385,"x_min":57,"x_max":288,"o":"m 149 1083 q 153 1035 164 1074 q 139 960 142 993 q 137 916 136 928 q 132 900 138 904 q 108 900 124 894 q 86 918 92 906 q 65 983 74 943 q 61 1043 57 1024 q 99 1083 65 1071 q 149 1083 132 1096 m 271 1083 q 276 1035 286 1074 q 263 960 265 993 q 260 916 260 928 q 256 900 260 904 q 231 900 247 894 q 208 918 215 906 q 188 983 196 943 q 183 1043 181 1024 q 222 1083 189 1071 q 271 1083 256 1096 z "},"#":{"ha":963,"x_min":63,"x_max":896,"o":"m 894 939 q 885 919 894 929 q 779 714 838 874 q 789 713 786 713 q 851 694 817 710 q 883 660 885 678 q 857 642 882 640 q 757 646 810 646 q 668 383 710 510 q 729 378 704 381 q 791 359 757 375 q 824 325 825 343 q 797 308 822 306 q 646 313 728 313 q 558 29 572 85 q 543 6 554 8 l 533 3 l 526 10 q 546 181 514 24 q 574 311 558 240 q 289 288 426 307 q 210 29 221 79 q 193 6 204 8 l 185 3 l 178 10 q 196 181 164 24 q 217 278 206 224 q 128 258 165 268 q 114 257 119 257 q 71 292 81 257 q 76 347 64 318 q 111 383 88 376 q 244 394 139 392 q 301 615 269 496 q 186 593 233 604 q 172 592 179 592 q 131 625 139 592 q 134 681 122 651 q 171 718 146 710 q 332 729 203 728 q 332 733 332 731 q 392 914 367 860 q 447 979 417 968 q 535 953 479 992 q 545 938 544 947 q 536 919 546 929 q 436 729 490 876 q 679 721 561 728 q 682 733 681 728 q 724 869 706 819 q 759 945 742 919 q 797 979 776 971 q 885 953 829 992 q 894 939 893 947 m 593 388 q 658 646 621 504 q 401 629 528 643 q 324 396 361 510 q 593 388 456 394 z "},"%":{"ha":739,"x_min":39,"x_max":692,"o":"m 263 557 q 228 496 247 518 q 164 465 200 465 l 163 465 q 92 504 119 465 q 51 625 63 546 q 46 778 40 704 q 68 896 51 851 q 133 967 90 964 q 161 961 147 967 q 181 976 169 972 l 183 978 q 221 972 203 983 q 256 928 240 961 q 283 814 275 885 q 286 797 285 813 q 289 707 292 761 q 263 557 286 619 m 163 497 q 197 515 178 497 q 229 564 215 532 q 256 703 250 619 q 256 722 256 713 q 251 808 256 769 q 224 918 240 882 q 204 943 214 936 q 193 946 197 947 q 188 935 190 944 q 190 929 189 932 q 183 908 199 915 q 186 839 182 876 q 201 783 190 804 q 197 760 210 769 q 175 764 185 751 q 142 899 133 815 q 114 765 125 857 q 139 510 92 561 q 163 497 149 497 m 686 336 q 689 246 692 300 q 663 96 688 157 q 628 33 649 57 q 564 3 601 3 l 563 3 q 492 43 521 4 q 451 163 463 83 q 447 315 440 242 q 468 435 453 389 q 533 504 492 501 q 561 499 547 506 q 582 515 569 510 l 583 515 q 621 511 603 522 q 656 465 642 499 q 685 353 676 424 q 686 336 685 349 m 656 242 q 657 261 657 249 q 653 347 657 308 q 624 457 640 421 q 604 481 615 474 q 593 485 597 486 q 589 474 590 482 q 592 468 590 471 q 585 446 599 454 q 588 378 582 415 q 601 321 592 340 q 598 299 611 308 q 575 303 585 290 q 542 436 535 353 q 515 304 525 396 q 539 47 492 100 q 564 36 550 36 q 598 53 579 36 q 631 103 617 69 q 656 242 651 158 m 642 894 q 497 672 582 850 q 419 508 457 588 q 354 367 382 428 q 303 253 326 306 q 263 161 279 200 q 234 96 246 122 q 215 51 222 69 q 207 32 208 33 q 188 6 199 11 q 169 13 172 -3 q 235 263 163 40 q 407 735 308 486 q 485 906 454 853 q 549 971 517 958 q 595 971 572 981 q 649 938 618 961 q 657 917 658 929 q 642 894 656 904 m 629 908 l 625 901 l 631 908 l 629 908 z "},"&":{"ha":897,"x_min":108,"x_max":808,"o":"m 788 88 q 802 80 797 88 q 803 64 807 72 q 696 6 772 6 q 657 10 676 6 q 564 64 610 19 q 383 4 482 4 q 369 4 375 3 q 248 36 303 7 q 158 115 193 65 q 115 241 119 171 q 138 383 110 311 q 204 490 163 444 q 311 588 246 536 q 301 904 251 804 q 382 975 328 957 q 408 981 394 979 q 413 981 410 981 q 488 960 453 988 q 503 946 496 953 q 536 867 532 914 q 519 767 540 819 q 463 665 501 718 q 382 576 436 628 q 377 572 382 576 q 369 565 372 567 q 582 181 457 311 q 550 410 614 292 q 549 424 546 417 q 560 433 553 432 l 679 461 q 692 459 686 463 q 699 449 697 456 q 699 279 715 361 q 633 133 682 197 q 665 114 650 122 q 722 94 690 100 q 767 87 753 88 q 788 88 782 86 m 343 899 q 338 665 294 824 q 351 618 344 643 q 433 690 401 657 q 483 765 464 724 q 486 914 521 857 q 468 935 478 925 q 414 949 444 951 q 343 899 368 938 m 382 36 q 535 96 479 38 q 347 472 443 207 q 331 525 338 499 q 250 390 282 469 q 219 231 217 308 q 257 101 221 154 q 371 36 300 40 q 382 36 376 36 z "},"'":{"ha":193,"x_min":44,"x_max":151,"o":"m 136 1083 q 140 1035 151 1074 q 126 960 129 993 q 124 916 124 928 q 119 900 125 904 q 95 900 111 894 q 74 918 79 906 q 53 983 61 943 q 49 1043 44 1024 q 86 1083 53 1071 q 136 1083 119 1096 z "},"‘":{"ha":193,"x_min":44,"x_max":151,"o":"m 136 1083 q 140 1035 151 1074 q 126 960 129 993 q 124 916 124 928 q 119 900 125 904 q 95 900 111 894 q 74 918 79 906 q 53 983 61 943 q 49 1043 44 1024 q 86 1083 53 1071 q 136 1083 119 1096 z "},"’":{"ha":193,"x_min":44,"x_max":151,"o":"m 136 1083 q 140 1035 151 1074 q 126 960 129 993 q 124 916 124 928 q 119 900 125 904 q 95 900 111 894 q 74 918 79 906 q 53 983 61 943 q 49 1043 44 1024 q 86 1083 53 1071 q 136 1083 119 1096 z "},"(":{"ha":343,"x_min":71,"x_max":319,"o":"m 301 32 q 313 14 315 28 q 296 3 310 3 q 294 3 296 3 q 267 15 282 4 q 203 72 235 35 q 141 167 172 108 q 90 313 110 225 q 71 504 71 401 q 268 961 71 785 q 288 978 279 972 q 309 975 300 986 q 307 954 318 964 l 306 953 q 293 942 299 947 q 261 899 276 925 q 226 823 246 872 q 195 691 207 774 q 183 506 183 608 q 197 283 185 378 q 227 140 208 189 q 260 69 246 92 q 289 38 275 47 q 301 32 296 35 z "},")":{"ha":351,"x_min":32,"x_max":282,"o":"m 83 961 q 281 504 281 785 q 261 313 281 401 q 210 167 242 225 q 148 72 179 108 q 85 15 117 35 q 57 3 69 4 q 56 3 56 3 q 39 14 42 3 q 50 32 36 28 q 63 38 56 35 q 92 69 78 47 q 124 140 106 92 q 155 283 143 189 q 168 506 167 378 q 156 691 168 608 q 125 823 144 774 q 90 899 106 872 q 58 942 75 925 q 46 953 56 943 l 44 954 q 42 975 33 964 q 64 978 51 986 q 83 961 72 972 z "},"*":{"ha":279,"x_min":43,"x_max":231,"o":"m 210 989 q 224 983 218 989 q 231 969 231 978 q 224 953 231 960 q 210 947 218 947 l 188 947 l 203 932 q 203 903 218 918 q 189 897 197 897 q 174 903 181 897 l 158 918 l 158 896 q 152 881 158 888 q 138 875 146 875 q 123 881 129 875 q 117 896 117 888 l 117 918 l 101 903 q 86 897 94 897 q 72 903 78 897 q 72 932 57 918 l 88 947 l 65 947 q 51 953 57 947 q 44 968 44 960 q 47 978 44 974 q 55 986 50 983 q 65 989 60 989 l 88 989 l 72 1006 q 72 1034 57 1019 q 101 1035 86 1049 l 117 1018 l 117 1040 q 123 1056 117 1050 q 138 1061 129 1061 q 148 1058 143 1061 q 156 1051 153 1056 q 158 1040 158 1046 l 158 1018 l 174 1035 q 203 1034 189 1049 q 203 1006 218 1019 l 188 989 l 210 989 z "},"+":{"ha":493,"x_min":38,"x_max":453,"o":"m 404 521 q 427 508 415 517 q 445 488 439 499 q 450 468 451 476 q 428 457 446 451 q 285 472 365 471 q 276 406 281 439 q 270 351 272 372 q 266 312 268 331 q 262 283 264 293 q 258 265 260 272 q 254 254 257 258 q 240 250 247 247 q 216 303 222 258 q 208 471 210 349 q 76 451 128 467 q 68 450 72 450 q 44 468 51 450 q 51 521 39 489 q 82 560 63 553 q 207 557 107 568 q 243 722 207 694 q 329 726 267 742 q 342 715 339 724 q 336 697 344 707 q 315 647 324 681 q 296 544 307 614 q 404 521 364 532 m 322 703 l 321 697 l 322 697 l 324 704 l 322 703 z "},",":{"ha":364,"x_min":65,"x_max":194,"o":"m 126 265 q 83 283 101 265 q 65 328 65 301 q 83 372 65 354 q 126 390 101 390 q 132 389 126 390 l 132 390 l 133 390 q 174 369 158 388 q 192 322 189 351 q 175 248 194 283 q 119 203 156 213 q 115 203 117 203 q 100 215 103 203 q 111 235 96 231 q 150 271 136 242 q 126 265 138 265 z "},"-":{"ha":535,"x_min":107,"x_max":426,"o":"m 386 525 q 413 504 400 521 q 424 475 425 488 q 407 461 421 458 q 263 470 338 476 q 139 443 188 464 q 132 442 135 442 q 114 458 118 442 q 115 512 107 479 q 138 551 124 544 q 249 552 164 563 q 386 525 333 542 z "},".":{"ha":363,"x_min":89,"x_max":211,"o":"m 150 203 q 107 221 125 203 q 89 265 89 239 q 107 308 89 290 q 150 326 125 326 q 192 308 175 326 q 210 265 210 290 q 201 233 210 247 q 179 211 193 219 q 150 203 165 203 z "},"/":{"ha":536,"x_min":61,"x_max":486,"o":"m 475 971 q 485 951 485 964 q 472 928 485 939 q 346 696 415 879 q 281 525 311 607 q 227 379 250 443 q 185 261 204 315 q 151 167 165 207 q 128 99 138 126 q 113 54 119 72 q 107 33 107 36 q 89 6 100 13 q 71 11 75 -4 q 117 265 61 38 q 250 750 172 493 q 315 926 288 871 q 372 997 342 982 q 398 1003 385 1003 q 424 999 411 1004 q 449 988 438 994 q 475 971 460 982 m 454 933 l 458 940 l 454 933 z "},":":{"ha":469,"x_min":164,"x_max":286,"o":"m 267 628 q 259 619 267 628 q 225 610 250 610 q 182 628 200 610 q 164 672 164 646 q 172 703 164 689 q 194 726 181 718 q 225 735 208 735 q 267 716 250 735 q 285 672 285 697 q 267 628 285 646 m 267 267 q 259 258 267 267 q 225 249 250 249 q 182 267 200 249 q 164 311 164 285 q 182 356 164 338 q 225 374 200 374 q 267 356 250 374 q 285 311 285 338 q 267 267 285 285 z "},";":{"ha":394,"x_min":118,"x_max":247,"o":"m 224 635 q 215 626 224 635 q 181 617 206 617 q 138 635 156 617 q 121 678 121 653 q 138 723 121 704 q 181 742 156 742 q 224 723 206 742 q 242 678 242 704 q 224 635 242 653 m 244 311 q 228 237 247 272 q 172 193 208 201 q 168 192 169 192 q 153 204 156 192 q 164 224 149 219 q 203 260 189 231 q 179 254 190 254 q 136 273 154 254 q 118 317 118 292 q 136 361 118 343 q 179 379 154 379 q 182 379 181 379 l 185 379 q 186 379 186 379 q 226 358 211 376 q 244 311 242 340 z "},"<":{"ha":557,"x_min":106,"x_max":411,"o":"m 394 397 q 406 378 410 392 q 390 365 401 365 q 386 367 388 365 q 353 376 369 371 q 106 519 106 463 q 321 651 106 576 q 386 674 356 667 q 406 661 401 676 q 394 642 410 646 q 332 621 363 632 q 236 514 235 579 q 274 455 238 482 q 358 410 311 428 q 394 397 379 403 z "},"=":{"ha":674,"x_min":125,"x_max":557,"o":"m 508 613 q 542 590 526 607 q 553 560 557 572 q 531 549 549 543 q 343 564 442 567 q 181 543 244 561 q 172 542 176 542 q 149 560 154 542 q 154 613 142 581 q 186 651 167 644 q 327 647 214 661 q 508 613 440 632 m 492 399 q 525 376 510 393 q 538 347 540 360 q 515 335 533 331 q 327 351 425 353 q 164 331 229 349 q 156 329 160 329 q 132 347 139 329 q 138 399 126 367 q 169 438 150 431 q 310 433 197 447 q 492 399 424 418 z "},">":{"ha":556,"x_min":100,"x_max":406,"o":"m 190 665 q 404 533 404 590 q 157 390 404 475 q 125 381 139 383 q 121 379 122 379 q 106 390 108 379 q 115 411 100 406 q 151 424 135 418 q 237 469 200 442 q 274 528 274 496 q 179 635 276 592 q 115 656 147 646 q 105 675 101 660 q 124 688 108 690 q 190 665 154 681 z "},"?":{"ha":738,"x_min":93,"x_max":658,"o":"m 365 131 q 412 112 393 131 q 431 67 431 93 q 412 22 431 40 q 366 3 393 3 q 319 22 339 3 q 300 67 300 40 q 309 99 300 85 q 333 122 318 114 q 365 131 347 131 m 579 913 q 646 672 658 831 q 626 583 642 624 q 577 504 610 542 q 521 444 544 467 q 450 382 497 422 l 432 367 q 388 243 381 325 q 378 210 389 217 q 365 206 372 206 q 356 207 360 206 q 310 256 333 215 q 288 339 286 296 q 297 376 289 358 q 313 405 304 393 q 340 431 322 417 q 369 453 357 446 q 403 476 381 461 q 447 504 432 494 q 486 535 461 514 q 526 576 511 557 q 555 626 540 596 q 576 690 569 656 q 539 890 603 818 q 524 906 532 899 q 374 946 468 946 q 350 944 365 946 q 299 931 335 943 q 235 899 264 919 q 182 838 206 879 q 156 742 158 797 q 215 596 150 626 q 254 589 238 588 q 276 596 271 590 q 293 628 293 608 q 288 658 293 649 q 278 675 283 668 l 263 696 l 390 751 l 401 738 q 430 659 425 703 q 418 579 435 615 q 315 500 390 515 q 171 536 229 483 q 112 638 129 574 q 106 772 94 701 q 201 933 122 872 q 368 993 279 993 q 551 938 485 993 q 579 913 567 925 z "},"@":{"ha":972,"x_min":89,"x_max":872,"o":"m 538 403 q 536 549 531 475 q 526 515 532 536 q 514 476 522 501 q 504 449 511 468 q 450 306 476 360 q 394 272 428 260 q 347 365 357 285 q 367 581 338 444 q 458 699 393 696 q 536 646 506 700 q 579 697 557 692 q 614 693 600 704 q 630 642 629 679 q 624 553 631 604 q 619 499 621 518 q 616 449 617 481 q 618 397 615 417 q 629 359 621 378 q 650 331 638 340 q 740 329 689 303 q 817 418 790 354 q 838 575 839 479 q 724 865 828 768 q 490 950 636 947 q 335 911 403 946 q 226 820 267 876 q 165 699 186 764 q 140 563 144 635 q 140 479 136 533 q 152 371 144 425 q 186 258 160 317 q 253 163 213 200 q 475 97 336 85 q 565 119 525 103 q 627 155 606 136 q 664 197 649 174 q 683 229 679 219 q 689 246 688 239 q 701 257 692 254 q 717 253 710 260 l 806 169 q 808 147 817 160 q 685 42 749 76 q 518 4 622 7 q 508 3 511 4 q 228 101 332 1 q 90 499 93 228 q 101 634 90 571 q 131 745 111 697 q 178 832 150 793 q 238 898 206 871 q 308 944 271 925 q 384 972 346 963 q 463 982 422 981 q 489 982 476 982 q 503 982 496 982 q 650 956 585 983 q 755 885 715 928 q 822 788 794 843 q 859 681 849 732 q 871 582 869 631 q 871 578 871 579 q 871 550 871 564 q 851 418 872 476 q 719 288 817 311 q 590 301 640 267 q 538 403 544 335 m 494 525 q 519 604 511 579 q 519 606 519 604 q 489 639 501 639 q 465 601 478 639 q 441 514 450 557 q 429 438 432 471 q 426 381 426 404 q 429 340 426 357 q 475 464 450 388 q 477 468 476 465 q 478 472 478 471 q 479 474 479 474 q 494 525 483 490 z "},"A":{"ha":944,"x_min":4,"x_max":939,"o":"m 894 142 q 924 150 910 157 q 936 122 939 143 q 899 50 933 89 q 804 4 864 11 q 781 3 792 3 q 672 44 717 3 q 611 139 635 79 q 579 279 588 199 q 569 411 571 360 q 569 539 568 463 q 511 529 543 535 q 428 519 468 522 l 425 510 q 364 361 406 449 q 310 260 335 297 q 179 153 244 163 q 61 182 108 140 q 7 325 4 232 q 64 457 10 408 q 193 497 115 503 l 210 496 l 226 369 l 204 368 q 184 367 197 368 q 146 355 171 365 q 108 328 121 344 q 97 258 88 303 q 149 208 106 215 q 222 228 182 203 q 293 315 261 254 q 322 372 308 342 q 382 517 350 429 q 360 517 369 517 l 358 517 q 274 522 313 517 q 213 535 235 528 q 172 553 190 543 q 149 569 154 564 q 140 578 143 574 l 131 590 l 201 696 l 219 672 q 235 656 224 667 q 283 624 247 644 q 361 596 319 604 q 410 590 382 593 q 474 778 438 669 q 520 903 501 857 q 551 965 539 949 q 574 983 563 981 q 597 982 585 988 q 625 928 618 972 q 640 742 632 883 q 650 606 646 656 q 731 614 707 614 q 837 597 788 615 q 893 564 886 579 l 899 550 l 876 529 l 863 538 q 790 557 829 554 q 654 550 751 560 q 660 482 656 518 q 696 251 672 335 q 747 140 719 168 q 817 111 775 113 q 894 142 863 110 m 571 672 q 572 790 568 701 q 574 919 575 883 q 514 764 551 874 q 454 589 481 665 q 571 594 503 588 q 571 672 571 650 z "},"B":{"ha":1088,"x_min":-1,"x_max":1082,"o":"m 1076 496 q 1081 480 1082 489 q 1074 467 1081 471 q 914 379 1006 413 q 864 149 913 244 q 697 10 806 38 q 649 3 671 3 q 581 22 610 3 q 532 103 539 50 q 603 290 518 207 q 642 322 621 310 l 644 324 q 717 358 678 346 q 822 393 757 374 q 822 443 824 419 q 746 603 815 568 q 668 553 711 553 q 647 557 657 553 q 631 569 638 561 q 624 588 625 578 q 625 606 622 597 q 643 627 628 614 q 686 649 658 640 q 710 653 696 651 l 715 654 q 721 653 718 654 q 724 653 722 653 q 724 654 724 654 q 726 654 725 654 q 744 736 740 688 q 707 932 757 879 q 686 944 694 944 q 590 803 647 943 q 471 368 508 601 q 438 156 456 260 l 433 136 l 288 150 l 294 175 q 407 631 371 414 q 404 781 419 713 q 349 896 389 850 q 246 944 301 946 q 211 938 229 942 q 165 919 193 933 q 116 885 138 906 q 78 828 94 865 q 61 744 63 792 q 121 592 58 619 q 158 585 142 583 q 182 593 175 586 q 198 628 199 607 q 192 660 197 650 q 183 675 188 669 l 168 696 l 174 699 l 294 754 l 306 739 q 331 664 325 708 q 319 574 336 619 q 214 493 290 507 q 68 533 124 478 q 15 638 29 572 q 13 776 0 704 q 94 922 29 864 q 243 986 158 981 q 315 976 275 989 q 390 933 356 964 q 494 654 486 849 q 551 819 521 744 q 619 947 589 910 q 685 986 649 985 q 738 960 711 988 q 786 732 800 894 q 769 649 782 685 q 894 531 854 628 q 913 424 910 493 q 1047 499 989 451 q 1076 496 1063 511 m 819 349 q 731 319 769 333 q 632 260 672 299 q 589 179 603 228 q 585 94 575 131 q 628 56 594 57 q 632 56 631 56 q 722 97 681 56 q 787 203 761 136 q 819 349 813 269 m 696 607 q 667 594 675 601 q 696 607 678 592 z "},"C":{"ha":736,"x_min":-1,"x_max":783,"o":"m 246 4 q 65 75 129 -4 q 8 245 17 133 q 33 479 0 357 q 107 694 65 601 q 188 839 149 786 q 273 925 228 892 q 353 969 318 958 q 426 979 389 979 q 453 978 442 979 q 469 975 461 978 q 489 968 479 974 q 539 932 518 957 q 565 690 597 860 q 545 624 558 656 q 519 574 532 593 q 493 540 507 556 q 473 520 479 525 q 463 513 467 515 q 443 515 453 507 l 363 588 q 358 604 356 594 q 371 615 361 614 q 379 617 375 615 q 396 624 383 618 q 420 638 408 629 q 447 663 432 646 q 475 701 463 679 q 510 899 544 819 q 476 939 497 926 q 450 946 464 943 q 400 928 426 944 q 251 735 324 879 q 140 413 178 592 q 124 183 110 276 q 194 56 139 89 q 258 40 222 40 q 422 114 331 40 q 468 156 446 133 q 494 183 482 168 q 733 531 599 300 q 746 554 739 542 q 768 561 754 568 q 775 540 782 554 q 763 517 772 533 q 488 129 606 242 q 451 96 469 111 q 443 90 449 94 q 246 4 349 10 z "},"D":{"ha":1015,"x_min":8,"x_max":1047,"o":"m 217 482 q 76 521 131 467 q 24 624 39 558 q 22 763 10 690 q 101 908 39 850 q 249 969 164 965 q 319 961 279 974 q 392 918 358 949 q 493 644 485 835 q 597 908 540 829 q 597 910 597 910 q 597 911 597 911 q 626 944 613 931 q 692 971 658 972 q 767 933 733 969 q 845 742 819 878 q 864 431 871 607 q 861 394 863 413 q 867 396 863 394 q 868 397 868 396 q 1014 456 979 431 q 1036 452 1026 465 q 1033 429 1046 439 q 989 405 1014 417 q 944 386 964 393 q 878 365 924 379 q 867 363 875 365 q 858 360 860 360 q 814 194 846 265 q 738 82 782 122 q 647 22 694 42 q 551 3 600 3 l 550 3 q 457 47 489 3 q 433 121 435 78 l 299 133 l 304 153 q 417 615 381 396 q 421 722 425 672 q 401 814 417 771 q 357 888 385 857 q 250 938 308 940 q 214 931 232 936 q 167 913 196 926 q 117 877 139 899 q 79 817 96 856 q 61 731 63 779 q 124 571 58 601 q 163 564 144 563 q 190 574 182 565 q 208 613 208 589 q 201 647 207 636 q 192 664 196 657 l 181 681 l 297 735 l 306 722 q 331 649 325 693 q 319 560 336 604 q 217 482 292 496 m 624 892 q 479 419 540 775 q 446 188 467 318 q 556 286 472 247 q 568 292 563 289 q 583 297 578 296 q 765 364 676 335 q 775 663 783 485 q 744 851 771 778 q 686 932 718 924 q 624 892 658 940 m 549 57 q 622 78 583 56 q 685 136 660 100 q 758 328 736 213 q 594 268 679 300 q 576 260 589 265 q 568 256 569 257 q 565 255 567 256 q 563 253 563 254 q 490 174 508 225 q 493 89 472 122 q 549 57 510 58 z "},"E":{"ha":736,"x_min":3,"x_max":693,"o":"m 631 218 q 653 219 642 229 q 654 197 664 208 q 631 174 647 189 q 558 123 614 160 q 433 56 503 86 q 424 51 433 54 q 229 3 313 3 q 217 3 222 3 q 118 50 153 6 q 100 388 54 132 q 56 363 74 375 q 39 358 47 358 q 17 371 25 358 q 8 426 4 389 q 28 476 11 464 q 124 504 47 490 q 126 513 126 513 q 154 661 149 621 q 158 833 167 757 q 91 850 121 836 q 49 876 61 864 q 21 907 38 888 l 17 911 q 15 934 6 924 q 39 935 25 944 q 149 896 83 906 q 136 928 142 918 q 135 942 132 935 q 147 951 139 950 l 257 971 q 275 958 271 974 q 283 899 279 936 q 360 915 322 904 q 601 922 525 964 q 668 829 650 896 q 633 667 692 743 q 501 596 578 596 q 486 607 490 596 l 460 693 q 462 706 457 700 q 474 714 467 713 q 487 715 479 714 q 513 720 494 715 q 546 732 531 725 q 578 754 561 739 q 601 789 594 769 q 594 869 622 836 q 450 899 551 919 q 333 865 404 889 q 286 850 304 856 q 269 657 289 751 q 238 521 261 611 q 381 531 325 531 q 422 517 400 531 q 443 490 443 504 q 441 482 443 486 q 434 475 439 478 q 424 471 429 472 q 215 431 331 467 q 174 172 175 265 q 215 60 172 88 q 401 75 272 24 q 533 144 469 104 q 631 218 597 185 z "},"F":{"ha":682,"x_min":40,"x_max":738,"o":"m 211 546 q 242 879 253 753 q 210 878 225 878 q 133 893 167 879 q 85 919 99 907 q 56 954 72 932 l 51 958 q 50 983 40 972 q 74 983 60 993 q 233 938 136 940 q 219 976 228 961 q 225 997 214 989 q 246 994 236 1006 q 278 939 263 978 q 399 963 336 944 q 644 969 567 1013 q 713 874 694 942 q 678 707 736 785 q 543 633 621 633 q 528 644 532 633 l 500 733 q 503 748 499 742 q 515 754 507 754 q 526 755 519 754 q 552 760 533 756 q 587 773 571 765 q 619 796 603 781 q 646 832 636 811 q 638 915 665 881 q 490 946 594 967 q 372 911 444 936 q 293 886 319 893 q 300 844 299 865 q 293 557 310 740 q 425 567 374 567 q 466 553 444 567 q 489 525 488 539 q 483 511 489 517 q 468 504 478 506 q 285 472 386 501 q 272 354 281 431 q 265 264 267 306 q 267 194 264 222 q 274 142 269 165 q 283 106 278 119 q 293 84 288 93 q 301 72 299 75 q 306 69 304 69 q 313 53 314 64 q 301 40 311 43 q 249 32 278 32 q 165 72 192 32 q 188 439 124 138 q 94 393 132 417 q 79 389 88 389 q 56 401 65 389 q 47 458 43 419 q 68 510 50 497 q 211 546 93 528 z "},"G":{"ha":779,"x_min":3,"x_max":717,"o":"m 633 435 q 714 389 717 429 q 707 374 714 381 q 688 367 700 367 q 604 360 624 363 q 514 172 576 265 q 497 150 504 158 q 440 85 475 115 q 239 3 353 3 q 179 8 210 3 q 53 93 100 21 q 8 269 13 156 q 35 500 3 383 q 104 704 65 615 q 181 844 143 793 q 263 928 219 896 q 342 972 307 961 q 414 983 378 983 l 421 983 q 443 981 436 982 q 460 979 450 981 q 479 972 469 976 q 531 935 510 960 q 558 689 592 861 q 538 623 551 654 q 513 573 525 592 q 485 538 500 554 q 465 517 471 522 q 454 511 458 513 q 429 513 440 501 l 349 585 q 342 606 338 593 q 360 621 346 619 q 377 626 367 622 q 414 650 388 629 q 460 704 440 671 q 493 896 528 819 q 463 933 482 922 q 439 939 451 938 l 438 939 q 390 922 417 939 q 247 740 321 879 q 133 414 172 600 q 122 193 106 283 q 197 69 139 103 q 299 56 242 44 q 408 113 357 68 q 421 124 414 117 q 461 171 440 143 q 492 283 510 240 q 418 310 476 315 l 413 307 q 397 300 403 303 q 372 297 385 293 q 353 314 360 301 q 353 389 338 342 q 378 426 361 418 q 633 435 422 449 z "},"H":{"ha":968,"x_min":-1,"x_max":961,"o":"m 949 135 l 960 128 l 958 114 q 924 42 954 75 q 854 4 893 8 q 832 3 842 3 q 710 50 761 3 q 630 195 656 99 q 611 424 604 292 q 611 439 611 428 l 611 442 q 481 443 536 446 q 438 161 464 311 l 433 142 l 429 143 l 288 157 l 294 181 q 308 222 300 196 q 372 429 351 349 q 363 428 364 428 q 229 349 276 407 q 225 343 226 344 q 201 333 215 332 q 139 410 175 338 l 133 419 l 140 429 q 148 439 143 433 q 172 456 153 444 q 217 478 192 468 q 288 496 242 488 q 389 507 333 504 q 406 628 401 569 q 396 786 414 715 q 336 898 378 857 q 246 938 294 939 q 211 931 229 935 q 165 913 193 926 q 116 879 138 899 q 78 824 94 860 q 61 740 63 788 q 121 590 58 618 q 158 583 142 582 q 182 592 175 585 q 198 627 199 606 q 192 658 197 649 q 183 674 188 667 l 168 693 l 294 750 l 306 736 q 331 661 325 706 q 319 572 336 617 q 214 494 290 507 q 68 533 125 478 q 15 636 29 571 q 13 772 0 701 q 94 916 29 858 q 243 978 158 974 q 315 969 275 982 q 390 926 356 957 q 494 617 494 836 q 488 504 494 575 q 507 503 500 503 q 615 494 567 499 q 638 643 624 572 q 672 774 651 714 q 717 882 692 833 q 771 964 742 931 q 776 971 775 968 l 781 975 l 781 974 q 789 979 785 979 l 804 983 l 813 971 q 804 938 821 957 q 770 874 788 913 q 731 739 753 836 q 707 524 710 642 q 707 492 707 508 q 858 521 807 490 l 869 528 l 882 519 l 894 511 l 890 497 q 837 460 885 482 q 732 436 789 439 q 707 436 722 436 q 813 128 713 185 q 919 131 867 96 l 922 126 l 919 131 q 949 135 936 142 z "},"I":{"ha":606,"x_min":17,"x_max":507,"o":"m 439 208 l 436 194 q 443 31 415 79 q 443 10 450 19 q 431 3 439 3 q 425 4 428 3 q 351 53 389 13 q 310 140 314 93 q 313 196 307 164 q 325 251 318 228 q 349 319 332 274 q 421 614 408 492 q 367 893 443 807 q 275 940 331 935 q 254 940 264 940 q 204 933 228 939 q 115 879 151 918 q 67 732 68 826 q 135 572 65 603 q 172 565 156 564 q 196 572 188 565 q 213 613 214 589 q 208 647 213 636 q 197 664 203 657 l 186 681 l 304 735 l 311 724 q 339 643 335 688 q 328 561 343 599 q 229 482 301 497 q 90 518 147 464 q 33 623 50 557 q 28 763 17 689 q 76 883 39 832 q 142 942 101 919 q 260 974 193 972 l 261 974 q 276 972 268 974 q 415 908 360 967 q 500 603 506 814 q 439 208 497 511 z "},"J":{"ha":811,"x_min":10,"x_max":756,"o":"m 585 518 q 582 488 583 504 q 572 374 578 417 q 615 375 597 374 q 711 433 683 383 q 733 447 721 450 q 747 425 744 444 q 718 321 754 360 q 636 292 688 289 q 563 304 615 293 q 349 10 515 44 q 289 3 318 3 q 122 92 174 3 q 99 201 92 142 q 146 306 106 260 q 247 372 188 351 q 365 388 307 392 q 485 381 422 385 q 511 581 500 461 q 569 886 531 803 q 561 886 564 886 q 314 922 478 883 q 293 926 303 925 q 265 929 278 928 q 261 929 264 929 q 256 929 257 929 q 126 885 181 932 q 65 744 71 836 q 118 585 57 619 q 156 576 138 575 q 188 586 175 576 q 208 624 207 600 q 203 660 208 649 q 194 681 199 672 l 185 696 l 301 749 l 308 738 q 337 658 332 703 q 326 578 342 614 q 226 499 300 514 q 190 496 208 496 q 79 543 125 496 q 25 647 39 583 q 26 778 11 711 q 151 942 54 900 q 251 961 197 961 q 265 961 260 961 q 297 958 281 960 q 364 947 318 956 q 413 939 396 942 q 459 933 429 936 q 510 931 489 929 q 556 935 531 932 q 607 949 582 939 q 656 972 632 958 q 676 972 667 981 q 681 968 679 971 q 683 949 686 957 q 661 913 679 940 q 616 790 633 874 q 585 518 599 707 m 192 304 q 142 228 153 272 q 147 157 132 185 q 178 118 158 133 q 226 97 199 103 q 285 97 253 92 q 401 165 357 108 q 472 322 446 221 q 324 340 383 340 q 192 304 236 340 z "},"K":{"ha":957,"x_min":10,"x_max":954,"o":"m 319 203 q 418 617 403 453 q 406 780 425 707 q 346 896 388 853 q 251 938 303 940 q 223 933 238 936 q 185 921 208 929 q 142 897 163 913 q 104 860 122 882 q 75 806 86 839 q 63 732 64 774 q 125 574 60 604 q 165 567 146 565 q 192 576 183 568 q 209 615 210 592 q 203 649 208 639 q 193 667 199 660 l 182 682 l 299 736 l 307 724 q 332 651 326 694 q 321 563 338 607 q 218 486 293 499 q 78 525 132 471 q 26 627 40 563 q 24 764 11 692 q 103 908 40 850 q 250 969 165 965 q 320 960 281 972 q 393 918 360 949 q 496 607 496 826 q 490 507 496 568 q 507 510 497 508 q 694 640 600 558 q 836 863 831 760 q 822 919 838 903 q 819 946 807 935 q 846 943 831 957 q 853 937 849 942 q 867 916 857 932 q 882 883 876 900 q 890 838 888 865 q 885 781 892 810 q 860 716 879 753 q 807 640 840 679 q 611 469 732 556 q 625 453 619 461 q 694 278 657 407 q 710 227 704 244 q 726 181 715 210 q 745 138 736 153 q 767 106 754 124 q 794 81 779 89 q 828 71 810 74 q 921 126 896 65 q 940 138 926 140 l 953 135 l 954 121 q 928 53 953 94 q 856 3 903 13 q 822 0 838 0 q 788 3 804 0 q 756 16 771 7 q 730 34 742 25 q 706 60 718 43 q 684 89 693 76 q 663 124 675 101 q 644 163 651 147 q 626 206 638 178 q 610 250 615 235 q 592 297 604 265 q 524 390 563 378 q 476 382 503 397 q 475 382 476 382 q 439 142 460 258 l 436 128 l 300 142 l 306 160 q 319 203 311 175 z "},"L":{"ha":657,"x_min":-1,"x_max":1019,"o":"m 17 774 q 22 638 4 704 q 78 533 39 572 q 218 494 135 479 q 321 575 293 510 q 331 660 336 618 q 307 733 326 703 l 299 744 l 183 692 l 192 676 q 201 657 196 668 q 205 621 206 646 q 186 583 204 596 q 121 583 158 563 q 92 606 106 592 q 65 661 78 621 q 57 756 53 701 q 74 833 60 799 q 110 888 89 868 q 151 919 131 907 q 195 937 172 932 q 230 944 218 942 q 250 946 242 946 l 250 946 l 251 946 q 371 854 326 944 q 421 613 415 764 q 406 404 425 508 q 364 263 386 300 q 349 272 356 268 l 339 278 q 273 301 308 299 q 210 288 238 303 q 171 201 165 260 q 219 131 176 153 q 363 144 281 99 q 386 160 375 150 q 389 159 388 160 q 390 157 390 158 q 536 56 497 76 q 708 8 631 8 q 801 22 757 7 q 877 60 846 38 q 924 98 908 83 q 950 126 940 113 q 993 206 1018 210 q 978 199 988 206 q 617 153 840 115 q 435 219 526 168 q 476 301 456 254 q 516 440 497 347 q 529 625 535 532 q 499 780 524 713 q 445 883 475 847 q 376 940 415 918 q 311 969 336 963 q 263 976 286 975 q 250 978 256 978 q 96 922 158 976 q 17 774 33 868 m 268 233 q 294 226 281 233 q 319 210 304 221 q 290 196 307 200 q 251 203 261 188 q 253 228 243 217 q 268 233 258 233 m 954 122 q 927 94 943 110 q 880 56 911 79 q 803 18 849 33 q 710 3 758 3 l 708 3 q 535 51 629 3 q 388 153 494 72 l 386 154 q 365 139 376 146 q 217 126 282 93 q 167 201 171 149 q 207 292 160 263 q 273 306 236 308 q 342 282 310 303 l 363 269 q 403 413 385 311 q 417 613 421 514 q 391 786 413 713 q 334 899 369 860 q 251 940 299 939 l 250 940 q 224 939 239 940 q 181 927 210 938 q 128 899 151 917 q 85 843 106 881 q 63 756 65 806 q 70 663 58 701 q 95 610 82 624 q 122 588 108 596 q 183 586 158 568 q 201 622 200 599 q 197 656 201 644 q 188 674 192 667 l 176 693 l 300 750 l 311 736 q 336 662 331 706 q 325 572 342 618 q 219 490 297 506 q 75 529 133 474 q 17 637 35 569 q 13 774 0 704 q 93 926 29 871 q 250 982 157 982 l 251 982 q 263 982 261 982 q 312 973 286 979 q 377 944 338 967 q 448 885 417 921 q 504 782 479 850 q 535 625 529 714 q 532 506 539 565 q 514 403 525 446 q 488 319 503 360 q 462 258 472 278 q 442 221 451 238 q 617 158 531 172 q 975 203 840 121 q 1001 208 996 215 q 954 122 1013 196 m 386 167 l 383 164 q 360 149 372 156 q 221 135 281 104 q 176 201 181 156 q 213 283 171 257 q 273 296 239 299 q 336 274 307 293 l 365 256 l 368 260 q 411 404 392 299 q 426 613 431 510 q 410 753 424 690 q 374 860 396 817 q 320 926 351 903 q 251 950 289 950 l 250 950 q 222 949 238 950 q 176 936 207 947 q 122 906 146 925 q 76 848 97 888 q 51 756 56 808 q 60 659 47 700 q 88 603 74 618 q 118 579 101 588 q 189 579 160 557 q 210 619 210 593 q 206 658 211 646 q 196 679 201 671 l 190 689 l 297 738 l 303 731 q 327 660 322 701 q 315 576 332 619 q 217 500 290 514 q 82 538 136 483 q 26 640 43 575 q 22 772 10 704 q 99 917 39 864 q 247 972 160 971 l 249 972 l 250 972 q 261 972 256 972 q 316 963 289 969 q 380 933 343 956 q 445 874 417 910 q 497 774 474 839 q 525 625 519 708 q 519 476 529 549 q 488 350 508 403 q 455 269 468 297 q 431 222 442 242 l 428 218 l 432 215 q 615 149 525 163 q 981 194 842 111 q 994 201 989 200 q 946 129 993 186 q 921 102 936 117 q 875 65 906 88 q 801 27 844 42 q 710 13 757 13 l 708 13 q 539 61 632 13 q 393 161 500 81 l 386 167 m 272 188 q 292 190 282 188 q 324 206 308 196 l 329 210 l 322 214 q 297 231 307 225 q 250 231 265 247 q 247 200 236 217 q 272 188 254 188 m 293 221 q 268 228 279 228 q 257 224 261 228 q 256 206 249 215 q 289 200 263 193 q 311 210 301 204 q 293 221 300 218 z "},"M":{"ha":1389,"x_min":-1,"x_max":1421,"o":"m 1415 557 q 1418 540 1419 549 q 1388 451 1415 531 q 1315 256 1360 371 q 1239 89 1269 142 q 1126 3 1189 3 q 1110 4 1118 3 q 1058 35 1078 10 q 1029 92 1038 60 q 1020 177 1021 125 q 1024 275 1019 229 q 1035 388 1028 321 q 1078 849 1071 681 q 1076 888 1079 871 q 1069 912 1074 904 q 1060 920 1065 919 q 1047 915 1056 921 q 961 743 1007 879 q 853 449 903 571 q 790 304 817 347 q 735 257 764 261 q 697 268 713 254 q 676 368 669 294 q 681 424 678 379 l 681 425 q 697 653 692 547 q 699 678 699 667 q 698 699 699 690 q 696 715 697 708 q 694 727 694 722 q 692 736 693 732 q 689 742 690 740 q 687 746 688 744 q 685 747 686 747 q 685 749 685 747 q 667 738 681 750 q 446 206 557 635 q 438 156 440 168 l 433 136 l 288 150 l 294 175 q 407 629 372 414 q 404 778 419 710 q 349 892 389 847 q 246 940 303 943 q 217 935 232 939 q 181 924 203 932 q 140 901 158 917 q 103 866 121 886 q 74 813 85 846 q 61 742 63 781 q 121 589 58 618 q 158 583 142 582 q 182 590 175 585 q 198 627 199 606 q 192 658 197 649 q 183 674 188 667 l 168 694 l 294 751 l 306 736 q 331 662 325 707 q 319 572 336 617 q 214 492 290 506 q 68 532 125 476 q 15 636 29 571 q 13 774 0 701 q 94 919 29 861 q 243 982 158 978 q 315 973 275 985 q 390 931 356 961 q 494 617 494 838 q 486 485 494 568 q 711 803 599 803 q 714 803 713 803 q 760 781 742 801 q 788 694 782 756 q 791 585 794 632 q 779 453 788 538 q 771 363 772 390 q 813 460 788 399 l 814 463 q 921 756 863 583 q 969 875 946 831 q 1021 947 992 926 q 1107 974 1058 982 q 1177 829 1172 963 q 1153 510 1182 696 q 1125 194 1128 293 q 1127 99 1122 128 q 1149 65 1132 69 q 1211 124 1178 58 q 1289 301 1247 190 q 1351 474 1331 411 q 1376 551 1372 536 q 1403 565 1383 571 q 1415 557 1411 564 z "},"N":{"ha":1079,"x_min":-1,"x_max":1125,"o":"m 1118 588 q 1122 569 1124 579 l 1122 568 q 1060 381 1117 540 q 969 146 1004 222 l 968 143 q 938 83 954 110 q 908 42 922 57 q 876 17 893 26 q 847 3 860 7 q 819 0 833 0 q 781 7 800 0 q 744 33 760 17 q 719 76 728 50 q 706 128 711 103 q 702 192 701 153 q 704 260 703 232 q 712 333 706 288 q 722 404 718 379 q 733 474 726 429 l 739 503 q 751 582 747 556 q 762 651 756 608 q 771 718 768 693 q 776 774 774 743 q 778 826 779 804 q 775 868 778 849 q 756 913 769 910 q 741 907 750 913 q 715 882 732 901 q 679 832 697 863 l 678 828 l 676 828 q 650 776 664 804 q 592 642 619 713 q 544 514 564 572 q 506 395 524 456 q 478 292 489 335 q 458 209 467 250 q 447 153 450 168 q 443 129 444 139 l 440 110 l 435 110 l 293 125 l 303 160 q 411 615 397 460 q 361 899 431 822 q 315 931 342 921 q 249 942 285 942 q 233 942 242 942 q 208 936 221 940 q 174 924 194 932 q 137 901 154 915 q 102 865 119 886 q 74 811 85 844 q 60 738 63 778 q 114 572 49 607 q 153 564 135 563 q 185 575 172 565 q 201 612 201 589 q 197 646 201 635 q 188 664 192 657 l 175 685 l 300 743 l 310 728 q 336 651 331 697 q 325 560 342 606 q 219 476 297 492 q 74 519 133 460 q 16 628 32 561 q 13 768 0 696 q 81 911 28 854 q 211 981 135 968 q 249 985 228 985 q 254 985 253 985 q 336 969 299 985 q 414 917 381 951 q 500 604 506 822 q 490 486 500 569 q 613 794 544 653 q 694 926 654 883 q 776 972 733 968 q 838 951 814 978 q 847 543 906 878 q 814 333 825 418 q 803 172 803 249 q 825 69 804 94 q 847 60 833 60 q 926 153 883 60 l 928 156 q 928 157 928 156 q 929 160 929 158 l 931 165 l 932 164 q 1081 576 1004 328 q 1104 594 1088 597 q 1118 588 1113 594 z "},"O":{"ha":792,"x_min":3,"x_max":836,"o":"m 797 564 q 824 558 814 575 q 818 531 835 540 q 693 494 761 494 q 607 511 649 494 l 606 492 q 485 108 588 243 q 400 32 447 60 q 319 4 363 10 q 290 3 304 3 q 146 49 201 3 q 40 210 76 107 q 7 453 4 313 q 31 660 10 569 q 86 803 53 750 q 149 884 119 856 q 210 926 179 913 q 268 939 239 939 l 269 939 q 401 822 356 938 q 399 939 385 896 q 433 981 410 971 q 486 978 458 992 q 551 901 522 960 q 594 753 579 842 q 608 554 611 658 l 608 553 q 699 535 644 533 q 797 564 753 536 m 451 933 q 479 781 440 894 q 560 608 518 668 q 567 600 563 604 q 536 816 564 724 q 472 933 508 908 q 453 939 461 942 q 451 933 453 939 m 550 393 q 565 521 561 456 q 488 614 521 558 q 422 751 447 682 q 426 615 436 682 q 382 506 415 547 q 276 451 342 451 q 271 451 275 451 q 161 506 196 456 q 137 585 139 539 q 149 660 135 631 q 171 672 154 675 l 251 663 q 267 653 261 661 q 269 638 272 646 q 265 613 267 626 q 265 579 264 599 q 275 549 267 560 q 300 538 283 539 q 343 556 326 536 q 376 658 371 586 q 365 776 381 731 q 268 899 336 896 q 231 879 251 899 q 201 842 215 865 q 167 774 186 819 q 136 653 149 729 q 121 478 124 576 q 144 226 118 329 q 224 75 171 122 q 314 46 264 40 q 374 65 346 50 q 485 197 439 103 q 550 393 531 290 z "},"P":{"ha":893,"x_min":11,"x_max":810,"o":"m 224 476 q 85 513 140 458 q 28 616 44 551 q 22 754 11 681 q 71 872 33 822 q 136 931 96 908 q 254 963 189 961 l 256 963 q 271 961 263 963 q 410 897 354 956 q 494 596 500 804 q 493 572 494 586 q 556 743 525 671 q 568 772 561 756 l 568 774 q 572 783 569 776 q 575 789 575 789 q 657 932 622 894 q 688 956 674 949 q 689 956 688 956 q 710 961 700 961 q 767 938 743 965 q 803 799 797 900 q 794 596 808 699 q 758 424 781 493 q 677 287 729 336 q 561 238 625 238 q 553 238 557 238 q 463 282 494 242 q 451 300 457 290 q 450 289 451 294 q 449 285 450 288 q 449 281 449 282 q 448 278 449 279 q 447 278 447 278 q 433 206 443 250 l 431 192 q 438 31 410 78 q 438 10 444 18 q 425 3 433 3 q 419 3 422 3 q 346 51 383 11 q 304 139 308 92 q 310 210 300 172 q 343 315 319 249 q 415 607 401 485 q 361 883 438 799 q 269 929 325 925 q 247 929 258 931 q 200 922 224 929 q 110 869 146 908 q 61 724 63 817 q 129 565 60 596 q 166 558 150 557 q 190 565 182 560 q 208 606 208 582 q 201 640 207 629 q 192 657 196 650 l 181 672 l 297 726 l 306 715 q 333 635 328 679 q 322 556 338 592 q 224 476 296 490 m 740 724 q 722 924 761 893 q 701 926 714 931 q 678 906 690 921 q 603 774 649 871 q 585 731 596 758 q 486 436 535 611 q 508 444 499 444 q 511 444 510 444 q 528 419 531 442 q 526 383 526 396 q 535 363 526 371 q 548 353 543 356 q 561 350 553 351 q 611 364 586 344 q 665 434 640 385 q 710 558 690 483 q 740 724 729 632 z "},"Q":{"ha":756,"x_min":0,"x_max":751,"o":"m 735 168 q 749 143 750 163 q 721 75 747 114 q 649 26 694 36 q 511 60 571 11 q 478 94 493 75 q 325 6 413 14 q 296 3 310 3 q 153 46 204 3 q 7 482 1 171 q 32 683 10 593 q 88 826 54 772 q 153 910 122 879 q 215 954 185 940 q 272 968 243 967 q 274 968 274 968 q 275 968 275 968 q 408 840 364 965 q 414 826 411 835 q 446 918 429 881 q 472 964 458 946 q 504 990 486 982 q 540 1000 521 1000 q 567 994 556 1000 q 639 778 643 967 l 639 768 q 632 625 639 704 q 601 400 622 501 q 535 185 581 279 q 614 129 569 138 q 672 133 644 122 q 709 159 699 144 q 735 168 719 174 m 596 771 q 563 947 596 910 q 550 957 557 954 q 539 958 546 958 q 524 954 532 958 q 515 947 519 951 q 485 900 499 932 q 451 726 460 839 q 450 512 443 613 q 469 349 457 411 q 507 232 485 281 q 564 431 542 314 q 586 596 578 518 q 596 771 594 681 m 347 572 q 380 678 375 604 q 371 800 385 753 q 274 926 342 924 q 236 907 257 926 q 206 868 221 892 q 173 798 192 844 q 141 672 154 751 q 126 493 128 593 q 150 233 124 340 q 229 78 176 125 q 319 46 268 42 q 453 132 396 57 q 374 504 375 265 q 275 465 332 463 q 167 522 201 469 q 142 602 144 554 q 154 679 140 650 q 176 693 160 696 l 257 682 q 272 674 267 682 q 275 657 276 667 q 270 631 272 646 q 270 597 268 617 q 281 565 272 576 q 306 554 289 554 q 347 572 331 551 z "},"R":{"ha":917,"x_min":13,"x_max":917,"o":"m 888 74 l 897 79 l 917 67 l 913 57 q 907 49 913 53 l 907 47 q 904 46 906 47 q 856 19 888 32 q 790 3 824 6 q 769 3 779 3 q 653 42 699 3 q 567 164 607 82 q 514 247 540 215 q 447 286 488 279 q 435 224 446 278 l 432 210 q 439 53 411 99 q 440 32 446 40 q 426 25 435 25 q 421 26 424 25 q 347 74 385 35 q 306 158 310 113 q 308 212 303 182 q 321 264 314 242 q 344 331 328 286 q 418 615 404 496 q 363 885 439 801 q 271 929 326 925 q 250 931 261 931 q 201 924 225 929 q 111 871 147 910 q 63 729 64 819 q 131 575 63 604 q 168 567 151 567 q 192 575 185 568 q 209 613 210 590 q 203 647 208 636 q 193 664 199 657 l 182 679 l 300 732 l 307 721 q 335 643 331 686 q 324 564 339 600 q 225 488 297 501 q 86 524 143 471 q 29 624 46 561 q 24 760 13 688 q 72 875 35 826 q 138 932 97 910 q 256 961 190 961 l 257 961 q 272 961 265 961 q 411 899 356 956 q 496 604 501 808 q 494 582 496 594 q 557 749 526 678 q 569 778 563 763 q 571 783 569 779 q 574 788 572 786 q 576 793 575 790 q 658 933 624 897 q 689 956 674 950 q 690 956 690 956 q 711 961 701 961 q 768 939 744 965 q 801 844 792 910 q 805 705 810 779 q 788 558 800 631 q 760 438 776 486 q 638 274 719 315 q 675 197 653 247 q 724 106 703 132 q 768 68 743 81 q 816 56 793 56 q 858 60 839 56 q 888 74 876 65 m 742 729 q 725 924 763 894 q 703 926 715 931 q 679 907 692 921 q 606 779 650 874 q 586 736 599 764 q 488 449 536 619 q 510 457 500 457 q 513 457 511 457 q 529 433 532 453 q 531 389 525 406 q 544 369 538 372 q 563 364 551 367 q 613 378 588 360 q 667 447 642 399 q 711 567 692 496 q 742 729 731 639 z "},"S":{"ha":828,"x_min":3,"x_max":721,"o":"m 508 757 q 521 746 517 754 q 521 729 525 738 q 514 708 518 721 q 512 673 510 696 q 531 642 514 650 q 585 643 560 628 q 636 711 617 661 q 658 832 656 761 q 635 919 663 890 q 579 943 614 942 q 576 943 578 943 q 509 929 549 943 q 415 883 469 915 q 297 781 360 850 q 181 619 235 713 q 117 467 131 533 q 131 369 104 400 q 221 356 158 339 q 250 365 233 360 q 335 401 279 378 l 336 403 q 431 442 401 431 q 528 471 483 463 q 676 432 632 490 q 699 369 696 406 q 696 301 703 333 q 674 239 689 268 q 518 61 617 122 q 324 0 419 0 q 311 0 317 0 q 224 26 258 3 q 181 89 190 49 q 181 147 174 117 q 207 203 188 178 q 254 244 226 229 q 278 242 267 251 q 285 219 289 233 q 278 175 276 197 q 279 160 278 165 q 287 146 281 154 q 310 133 293 138 q 353 131 326 129 q 534 201 442 132 q 638 356 626 271 q 622 419 642 403 q 510 422 596 443 q 446 403 479 414 q 436 397 440 400 l 396 381 q 265 326 304 342 q 233 315 249 319 q 119 297 164 293 q 42 333 74 301 q 28 351 36 340 q 13 399 21 363 q 8 477 4 435 q 43 590 13 519 q 133 738 74 660 q 256 872 192 817 q 375 951 319 926 q 472 985 431 976 q 550 996 513 994 l 551 996 q 669 949 629 996 q 704 774 719 892 q 594 571 683 625 q 451 556 525 529 q 369 643 386 578 q 369 717 361 679 q 400 781 378 756 q 424 786 410 790 l 508 757 z "},"T":{"ha":696,"x_min":-1,"x_max":872,"o":"m 849 969 q 871 919 871 949 q 868 901 871 911 q 851 871 864 886 q 849 867 851 869 q 679 803 793 794 q 624 810 653 804 q 560 638 586 738 q 508 375 524 506 q 494 160 492 244 q 513 39 497 76 q 510 11 519 22 q 492 3 503 3 q 482 4 488 3 q 418 51 456 14 q 376 121 381 89 q 415 475 361 269 q 558 825 468 681 q 506 840 533 832 q 404 875 472 851 q 243 919 278 918 q 217 918 231 919 q 182 912 203 917 q 142 894 161 907 q 106 862 124 881 q 78 810 89 843 q 64 735 67 776 q 114 574 56 607 q 179 575 150 554 q 197 611 196 588 q 192 647 197 635 q 183 665 188 658 l 172 686 l 297 744 l 307 729 q 335 647 331 693 q 325 561 340 600 q 222 476 297 493 q 69 522 131 457 q 13 633 28 565 q 15 769 -1 700 q 121 936 42 888 q 299 957 197 983 q 456 904 357 942 q 519 882 500 889 q 585 864 554 871 q 615 903 601 886 q 701 970 656 947 q 785 992 747 993 q 849 969 824 990 m 828 921 q 819 938 826 931 q 814 942 817 939 q 785 947 803 947 q 778 947 782 947 q 764 946 771 947 q 649 851 703 935 q 828 919 790 832 q 828 921 828 919 z "},"U":{"ha":968,"x_min":-1,"x_max":926,"o":"m 888 60 q 892 57 888 60 q 910 48 897 54 q 924 28 924 42 q 914 8 925 15 q 875 0 903 0 q 811 13 838 0 q 711 246 707 63 q 775 731 715 457 q 714 596 756 689 q 454 63 515 153 q 360 6 415 6 q 290 46 317 6 q 269 99 275 69 q 272 175 264 129 q 288 256 279 221 q 317 363 297 290 q 385 632 364 528 q 394 785 403 717 q 353 894 385 854 q 260 940 317 938 q 235 940 247 942 l 224 939 q 192 933 207 938 l 185 931 l 183 931 l 179 929 q 100 875 132 913 l 97 871 q 60 742 61 822 q 125 589 60 618 q 158 583 143 582 q 181 589 174 583 q 197 626 197 604 q 191 657 196 647 q 182 672 186 667 l 167 693 l 293 751 l 304 736 q 333 655 328 700 q 321 572 338 610 q 218 492 293 507 q 75 529 133 474 q 17 633 33 568 q 11 772 0 699 q 63 896 24 844 l 67 901 q 164 968 104 947 l 165 969 l 167 969 l 181 974 q 218 981 199 978 l 222 981 q 228 982 228 982 l 232 982 q 249 982 239 982 q 260 982 257 982 q 403 919 347 978 q 474 617 489 826 q 414 283 468 533 l 413 281 q 394 190 399 214 q 385 118 386 150 q 390 96 385 97 q 428 117 410 90 q 475 199 447 143 l 485 217 q 636 554 533 314 q 756 819 719 749 q 818 899 792 890 q 842 896 831 903 q 855 881 851 890 q 858 847 858 871 q 853 795 857 822 q 842 710 850 768 q 825 587 831 633 q 813 462 819 540 q 807 315 806 383 q 818 188 808 246 q 835 124 824 151 q 862 82 846 97 q 888 60 878 67 z "},"V":{"ha":856,"x_min":0,"x_max":857,"o":"m 807 1025 q 840 1033 822 1044 q 843 1000 857 1021 q 717 701 775 885 q 656 39 610 353 q 658 19 663 29 l 660 15 l 656 13 q 644 6 651 7 q 639 3 643 4 q 636 3 638 3 q 629 4 633 3 q 542 35 590 6 q 476 111 494 65 q 460 204 463 146 q 463 328 458 263 q 451 663 471 539 q 321 922 419 860 q 218 943 275 951 q 204 939 210 942 q 196 936 199 938 q 151 918 172 929 q 74 839 100 889 q 67 683 42 775 q 176 546 101 557 q 211 549 194 543 q 233 561 228 554 q 242 587 242 574 q 238 610 242 600 q 227 629 235 619 q 216 642 219 639 q 210 647 213 644 l 190 664 l 303 758 l 317 746 q 355 699 339 726 q 377 642 371 672 q 381 585 383 613 q 299 474 371 510 q 143 471 218 432 q 54 560 90 499 q 10 701 18 622 q 25 836 0 775 q 78 915 42 882 q 190 981 122 961 q 207 985 200 983 q 371 960 296 1003 q 544 676 490 890 q 579 436 560 611 q 610 558 593 494 q 642 663 625 613 q 672 753 658 714 q 701 828 686 792 q 728 890 717 864 q 752 938 740 915 q 772 974 764 960 q 788 999 781 988 q 797 1013 794 1010 q 801 1018 800 1017 l 807 1025 z "},"W":{"ha":1193,"x_min":3,"x_max":1192,"o":"m 1161 965 q 1183 957 1175 968 q 1181 929 1192 944 q 979 275 1042 738 q 962 169 969 210 q 940 88 954 129 q 904 27 925 47 q 853 4 883 7 q 842 3 847 3 q 788 24 811 3 q 729 247 732 71 q 726 414 728 311 l 726 419 q 724 642 726 554 q 715 682 722 674 q 685 651 703 679 q 665 611 675 633 q 664 608 665 610 q 566 333 614 499 q 507 46 518 168 q 504 26 510 36 q 483 17 497 15 l 482 17 q 401 58 444 22 q 349 140 358 94 q 345 181 347 168 q 349 228 343 193 q 358 281 354 263 q 371 342 363 300 q 414 650 413 533 q 333 907 415 833 q 244 942 294 942 q 242 942 242 942 q 228 940 235 942 q 219 940 224 940 q 172 928 196 936 q 92 869 122 910 q 60 728 50 815 q 139 586 71 608 q 174 583 158 581 q 194 592 189 585 q 206 609 203 600 q 207 627 208 618 q 203 644 206 636 q 197 658 201 651 q 190 668 192 665 q 186 672 189 671 l 169 692 l 290 760 l 301 746 q 338 670 329 714 q 336 589 347 626 q 242 499 315 522 q 96 522 158 474 q 26 618 50 556 q 7 754 3 681 q 44 875 11 822 q 104 939 67 913 q 221 982 154 975 l 224 982 q 238 982 231 982 q 386 933 324 985 q 503 647 488 851 q 481 204 511 535 q 478 144 478 172 q 542 399 500 264 q 626 626 583 533 q 651 676 636 654 q 701 742 679 726 q 771 750 742 767 q 816 665 807 732 q 825 447 825 597 l 825 446 q 826 328 825 368 q 851 88 832 103 q 856 88 853 88 q 885 176 865 92 q 954 493 906 260 l 957 504 q 1001 668 975 590 q 1051 798 1026 746 q 1099 889 1075 850 q 1138 946 1122 928 q 1161 965 1154 964 z "},"X":{"ha":844,"x_min":0,"x_max":896,"o":"m 882 135 q 892 110 896 126 q 875 73 889 94 q 829 28 861 51 q 760 3 797 6 q 747 3 754 3 q 603 105 657 3 q 485 469 550 207 q 444 397 471 446 q 390 302 408 332 q 346 233 372 272 q 297 175 319 194 q 251 146 275 156 q 218 140 235 140 q 139 181 172 140 q 132 215 122 200 l 139 228 l 154 224 q 201 219 175 215 q 253 238 226 224 q 315 296 279 253 q 394 408 351 339 q 468 533 436 478 l 458 575 q 437 665 444 636 q 417 737 429 693 q 395 803 404 781 q 372 852 386 825 q 342 897 358 879 q 306 928 326 914 q 244 946 282 944 q 228 946 240 946 q 214 944 221 944 q 133 908 169 938 l 132 908 l 132 907 l 126 904 q 83 850 101 883 q 61 725 57 799 q 136 581 68 604 q 174 576 158 574 q 196 585 190 579 q 209 612 207 597 q 206 639 211 626 q 196 658 200 651 q 189 669 192 665 l 172 689 l 292 760 l 304 744 q 340 667 331 711 q 338 583 350 622 q 243 490 317 514 q 86 519 154 463 q 22 619 42 556 q 10 754 1 682 q 46 869 17 818 l 46 871 q 99 935 67 908 q 103 939 101 938 l 106 940 q 107 942 106 942 q 174 978 138 967 q 199 985 181 982 l 204 986 q 229 989 215 988 q 463 808 389 999 q 526 636 493 729 q 549 678 535 651 q 631 825 593 763 q 691 919 664 885 q 741 963 718 953 q 781 970 764 972 q 819 957 797 968 q 829 953 826 954 l 842 947 l 842 935 q 828 913 843 921 q 547 575 715 850 q 569 506 553 556 q 617 369 601 414 q 657 267 632 325 q 705 177 682 208 q 754 129 728 146 q 811 113 783 111 q 856 132 839 115 l 867 142 l 882 135 z "},"Y":{"ha":869,"x_min":4,"x_max":793,"o":"m 772 917 q 788 899 783 910 q 789 824 792 888 q 767 646 786 761 l 767 642 q 742 499 751 551 q 708 362 732 446 q 651 210 683 278 q 361 3 554 3 q 206 58 269 3 q 117 215 142 114 l 113 232 l 128 240 q 160 228 143 247 q 325 131 231 138 q 342 131 333 131 q 453 158 401 131 q 540 231 504 185 q 601 327 576 278 q 646 435 626 376 q 704 657 682 546 q 581 401 653 529 q 449 288 521 297 q 369 314 403 281 q 343 354 351 331 q 333 399 335 378 q 336 454 331 419 q 347 509 342 489 q 364 569 353 529 q 385 651 379 624 q 396 798 404 732 q 354 903 388 864 q 254 950 317 949 l 250 950 q 235 950 243 950 l 224 949 q 192 943 207 947 l 179 939 q 100 886 132 922 l 97 882 q 60 757 61 835 q 125 610 60 638 q 158 603 143 603 q 181 610 174 604 q 195 630 192 618 q 197 651 199 642 q 192 669 196 660 q 186 683 189 679 q 182 690 183 688 l 167 710 l 293 767 l 304 751 q 333 673 328 717 q 321 593 338 629 q 218 514 293 529 q 181 510 199 510 q 75 550 119 510 q 31 613 49 575 q 9 694 14 650 q 11 788 4 739 q 63 907 24 857 l 65 910 l 68 913 q 164 976 104 957 l 164 978 l 167 978 q 171 979 167 978 l 181 982 q 218 989 199 988 l 228 990 l 229 990 l 231 990 q 232 990 232 990 q 256 992 246 992 q 428 919 365 989 q 485 644 510 831 q 461 496 476 575 q 450 431 454 457 q 456 375 443 388 q 468 369 460 369 q 469 369 469 369 q 563 472 511 369 q 697 826 644 633 q 719 895 711 876 q 742 920 726 914 q 772 917 757 926 z "},"Z":{"ha":968,"x_min":-1,"x_max":907,"o":"m 853 311 q 895 240 885 288 q 892 142 906 192 q 855 73 881 103 q 792 25 829 43 q 713 4 756 7 q 686 3 699 3 q 597 14 642 3 q 504 50 553 25 q 426 93 456 75 q 344 144 396 111 q 314 165 329 156 q 308 161 310 163 q 174 113 244 113 q 56 158 99 113 q 50 164 53 161 q 36 194 39 178 q 47 260 26 231 q 89 288 61 279 q 135 293 111 296 q 204 274 167 289 l 208 272 q 210 272 208 272 q 213 271 211 271 l 214 269 q 261 246 235 261 q 446 489 333 317 q 338 469 381 482 q 312 472 324 465 q 296 492 300 478 q 302 553 288 515 q 339 599 317 590 q 513 592 374 611 l 539 632 q 593 718 575 690 q 654 807 625 767 q 354 908 550 824 q 353 910 354 910 q 300 932 308 929 q 149 924 214 956 q 142 919 143 921 q 60 763 60 872 q 115 608 58 639 q 179 613 150 590 q 197 648 196 625 q 192 682 197 671 q 183 700 188 693 q 182 717 179 708 q 193 731 185 726 l 281 771 q 307 763 297 778 q 335 681 331 726 q 325 599 340 636 q 221 515 297 532 q 69 561 131 497 q 13 668 28 603 q 15 801 -1 733 q 117 954 40 910 q 129 961 122 958 q 245 985 181 989 q 371 947 310 981 q 683 844 582 856 q 839 972 778 965 q 883 957 865 975 q 889 900 903 938 q 781 811 864 835 q 646 610 729 738 l 622 574 q 701 556 671 565 q 740 529 722 550 q 754 492 758 508 q 744 478 753 483 q 724 475 735 472 q 569 493 657 490 q 349 196 421 267 q 438 152 392 172 q 552 110 485 132 q 678 93 619 89 q 771 132 738 97 q 790 170 785 147 q 788 210 794 193 q 765 233 781 231 q 725 214 736 239 q 701 201 718 197 q 685 224 685 206 q 746 322 689 296 q 801 331 772 335 q 853 311 831 328 z "},"[":{"ha":289,"x_min":44,"x_max":244,"o":"m 226 33 q 243 19 242 33 q 239 8 243 13 q 228 3 235 4 l 224 3 q 221 3 224 3 q 152 5 178 3 q 105 15 126 7 q 73 33 83 22 q 56 67 63 44 q 47 115 49 89 q 44 185 44 142 l 44 831 q 76 960 44 929 q 118 978 93 975 q 192 981 143 982 q 211 981 208 981 q 229 981 219 982 q 243 964 244 978 q 226 950 242 950 q 211 950 221 950 q 185 939 196 949 q 160 869 160 919 q 160 603 160 799 q 160 124 158 239 q 188 47 161 69 q 221 33 201 35 l 226 33 z "},"\\":{"ha":507,"x_min":43,"x_max":468,"o":"m 279 750 q 413 265 357 493 q 458 11 468 38 q 440 6 454 -3 q 422 33 431 13 q 185 696 299 397 q 57 928 114 879 q 44 951 44 939 q 54 971 44 964 q 81 988 69 982 q 106 999 92 994 q 132 1003 119 1004 q 157 997 144 1003 q 215 926 188 982 q 279 750 242 871 m 75 933 l 71 940 l 71 942 l 75 933 z "},"]":{"ha":301,"x_min":43,"x_max":243,"o":"m 211 958 q 243 829 243 929 l 243 185 q 241 124 243 147 q 235 78 239 100 q 223 45 232 57 q 203 24 214 33 q 171 11 192 15 q 126 5 150 7 q 67 3 103 3 q 64 3 64 3 q 60 3 61 3 q 45 19 44 4 q 61 33 46 33 l 67 33 q 100 47 86 35 q 128 124 126 69 q 128 603 129 243 q 128 869 128 799 q 103 939 128 919 q 75 950 92 949 q 61 950 68 950 q 44 964 46 950 q 58 981 43 978 q 76 981 67 982 q 94 981 78 981 q 144 981 129 982 q 179 975 160 981 q 211 958 199 969 z "},"^":{"ha":424,"x_min":69,"x_max":358,"o":"m 351 774 q 344 753 358 760 q 322 760 329 746 q 292 813 310 786 q 253 860 275 839 q 214 882 231 882 q 160 843 193 882 q 106 760 128 804 q 92 751 101 751 q 85 753 88 751 q 76 774 69 760 q 158 932 126 878 q 199 993 190 986 q 215 1000 207 1000 q 223 999 219 1000 q 237 985 226 997 q 260 951 247 974 q 297 884 274 929 q 351 774 321 839 l 351 774 z "},"_":{"ha":619,"x_min":111,"x_max":526,"o":"m 478 297 q 511 276 496 293 q 524 246 526 258 q 500 233 518 229 q 313 249 411 251 q 150 229 215 247 q 142 228 146 228 q 118 246 125 228 q 124 297 113 265 q 156 336 136 329 q 297 332 183 347 q 478 297 410 317 z "},"`":{"ha":226,"x_min":68,"x_max":146,"o":"m 128 972 q 140 942 133 964 q 146 904 146 919 q 139 890 146 897 q 126 885 132 883 q 122 888 124 885 q 118 895 121 890 q 112 906 115 900 q 101 924 108 913 q 83 946 93 935 q 74 972 69 964 q 99 984 81 982 q 128 972 117 986 z "},"a":{"ha":471,"x_min":-62,"x_max":513,"o":"m 472 569 q 495 581 478 586 q 507 558 513 575 q 481 475 497 528 q 426 325 444 363 q 339 244 397 257 q 321 243 331 243 q 264 264 286 243 q 207 449 208 317 q 28 246 125 246 q 11 247 19 246 q -37 288 -18 253 q -60 392 -61 329 q -31 525 -58 456 q 268 729 50 738 q 276 728 274 728 q 277 728 276 728 q 278 728 278 728 q 290 722 285 728 q 293 708 294 717 q 294 414 283 614 q 301 356 296 381 q 310 321 306 332 q 323 303 315 310 q 335 297 331 297 q 346 296 339 296 q 392 336 369 296 q 392 338 392 338 q 393 339 393 338 q 446 485 411 372 q 472 569 463 536 m 224 619 q 236 679 228 647 q 133 612 183 668 q 50 449 83 556 q 34 372 36 406 q 38 325 32 339 q 51 306 43 311 q 93 319 68 294 q 94 319 93 319 q 96 321 94 321 q 183 490 140 372 q 224 619 207 550 z "},"b":{"ha":438,"x_min":-31,"x_max":318,"o":"m 299 594 q 285 361 318 458 q 183 246 253 264 q 157 243 169 243 q 64 311 96 243 q 42 261 53 276 q 15 246 31 246 q -1 253 6 246 q -15 296 -10 261 q -24 383 -21 331 q -28 495 -26 436 q -28 623 -29 554 q -27 747 -28 692 q -25 859 -26 803 q -23 938 -24 915 q -21 976 -22 961 q 39 1046 -19 1017 q 113 1054 90 1069 q 121 1031 124 1046 q 83 718 103 910 q 56 415 65 544 q 56 419 56 417 q 57 422 57 421 q 107 597 88 540 q 121 636 114 618 q 140 676 131 658 q 218 732 172 739 q 269 690 247 726 q 299 594 292 653 m 158 367 q 204 457 190 390 q 215 599 218 524 q 212 627 214 614 q 206 649 210 640 q 199 662 203 657 q 192 667 194 667 q 183 664 188 667 q 170 650 178 661 q 154 622 163 639 q 92 413 128 558 q 78 358 82 378 q 81 357 79 357 q 92 351 85 354 q 120 351 100 349 q 158 367 140 353 z "},"c":{"ha":392,"x_min":-94,"x_max":472,"o":"m 432 589 q 456 595 440 604 q 463 571 472 586 q 317 374 393 450 q 315 372 317 372 l 311 368 q 185 275 254 313 q 69 243 124 243 q -14 271 19 243 q -37 506 -93 338 q 71 681 -4 608 q 196 742 146 754 q 229 714 218 736 q 218 574 253 668 q 196 563 213 557 q 185 586 179 569 q 196 635 193 610 q 192 672 199 660 q 183 675 189 675 q 103 596 151 672 q 40 408 54 519 q 75 307 31 329 q 161 310 106 292 q 285 392 217 329 q 432 589 361 467 z "},"d":{"ha":514,"x_min":-76,"x_max":565,"o":"m 525 568 q 549 576 532 583 q 558 554 565 569 q 485 389 511 442 q 346 253 419 253 q 308 261 328 253 q 228 417 250 285 q 63 243 151 243 q 44 244 53 243 q -24 303 6 251 q -18 539 -75 400 q 39 632 4 593 q 110 688 74 671 q 172 713 146 706 q 219 721 197 719 q 251 986 229 865 q 333 1043 258 1021 q 392 1040 378 1056 q 397 1017 401 1031 q 340 794 358 908 q 322 592 321 681 q 328 411 324 504 q 357 303 333 321 q 375 300 364 297 q 383 304 379 301 q 413 336 399 315 q 451 403 431 361 q 452 405 451 404 q 453 406 453 406 q 525 568 479 457 m 218 488 q 219 490 218 489 q 217 665 214 568 q 135 599 175 651 q 65 453 94 547 q 52 352 47 386 q 76 306 57 318 q 126 317 101 290 q 128 317 128 317 q 129 318 129 318 q 218 488 174 369 z "},"e":{"ha":449,"x_min":-82,"x_max":500,"o":"m 460 588 q 482 598 465 604 q 493 574 499 592 q 343 361 451 464 q 299 321 322 339 q 215 268 254 285 q 111 243 163 243 q 4 282 47 243 q -25 526 -81 358 q 82 672 6 615 q 224 735 158 729 q 292 710 271 739 q 299 613 321 672 q 214 504 281 568 q 201 493 207 499 q 56 399 131 432 q 103 308 54 332 q 176 301 129 293 q 269 343 222 310 q 321 389 294 364 q 322 390 322 390 q 460 588 421 488 m 224 674 q 163 638 194 665 q 102 558 132 610 q 61 440 72 506 q 156 503 111 467 q 210 551 185 526 q 256 620 244 589 q 258 665 267 651 q 239 675 254 675 q 224 674 232 675 z "},"f":{"ha":438,"x_min":-36,"x_max":489,"o":"m 449 583 q 473 590 458 599 q 478 565 488 581 q 461 542 472 556 q 410 503 450 529 q 322 465 371 476 q 200 460 257 449 q 253 94 263 347 q 236 -74 249 -7 q 236 -75 236 -74 q 200 -179 225 -143 q 176 -204 189 -194 q 163 -212 169 -210 q 128 -221 146 -221 q 76 -207 103 -221 q -3 -43 25 -178 q -34 259 -32 92 q -26 584 -36 426 q 0 835 -17 742 q 58 878 6 861 q 147 878 126 899 q 153 854 157 868 q 104 569 122 760 q 169 507 133 558 q 314 500 232 481 q 390 533 356 510 q 434 566 425 556 q 449 583 443 576 m 217 97 q 208 307 222 214 q 165 447 194 400 q 146 479 156 465 q 99 511 119 492 q 81 175 85 354 q 83 -61 78 -4 q 91 -119 86 -96 q 101 -155 96 -143 q 115 -173 107 -167 q 128 -180 124 -179 q 139 -181 132 -181 q 161 -171 150 -181 q 171 -158 167 -165 q 217 97 208 -100 z "},"g":{"ha":460,"x_min":-51,"x_max":503,"o":"m 461 583 q 485 592 469 600 q 493 568 501 583 q 310 285 415 411 q 304 154 308 217 q 297 24 301 78 q 284 -94 292 -31 q 264 -200 276 -157 q 233 -281 251 -243 q 190 -340 215 -319 q 131 -364 164 -361 q 118 -364 124 -364 q 7 -299 50 -364 q -26 -217 -17 -264 q -28 -112 -36 -171 q 11 3 -19 -53 q 53 64 28 32 q 97 116 78 96 q 156 175 117 136 q 200 218 181 199 q 200 241 200 229 q 201 268 200 253 q 201 290 201 283 q 204 429 203 386 q 135 313 171 354 q 132 306 133 308 q 124 300 132 306 q 22 260 75 250 q -26 300 -7 265 q -49 405 -50 342 q -19 538 -47 468 q 279 742 61 750 q 288 740 285 740 q 299 735 294 740 q 304 724 304 731 q 311 343 314 561 q 461 583 396 451 m 153 -262 q 199 167 190 -154 q 181 149 181 150 q 124 93 143 113 q 81 43 106 74 q 42 -14 57 13 q 5 -162 4 -94 q 35 -276 6 -229 q 39 -279 38 -279 q 67 -303 49 -293 q 104 -310 86 -312 q 153 -262 138 -306 m 246 689 q 247 690 246 689 q 247 692 247 690 q 146 623 196 679 q 63 461 96 567 q 48 385 50 418 q 51 338 46 351 q 64 318 56 324 q 101 328 79 308 q 194 503 149 378 q 246 689 231 599 z "},"h":{"ha":501,"x_min":-29,"x_max":542,"o":"m 500 581 q 524 592 507 597 q 535 568 540 586 q 444 356 486 425 q 444 354 444 354 q 301 243 376 243 q 278 246 290 243 q 223 283 243 256 q 199 360 203 311 q 199 465 194 408 q 215 599 203 521 q 218 644 219 626 q 215 668 217 661 q 210 675 213 675 q 186 654 201 676 q 178 638 182 646 q 94 394 138 554 q 77 333 83 351 q 63 292 71 314 q 45 264 54 271 q 24 257 36 257 q 6 265 14 257 q -20 433 -12 286 q -24 739 -28 579 q -11 983 -21 899 q 53 1064 -6 1039 q 119 1067 97 1083 q 129 1042 132 1057 q 92 729 111 921 q 63 411 72 542 q 121 596 94 528 q 156 672 136 643 q 206 725 178 708 q 263 733 235 742 q 310 685 293 725 q 318 575 328 644 q 309 488 313 526 q 305 422 306 449 q 306 375 304 394 q 311 344 308 356 q 319 326 314 333 q 331 317 325 319 q 343 314 336 314 q 396 347 367 310 q 414 374 406 361 q 500 581 453 439 z "},"i":{"ha":290,"x_min":-64,"x_max":356,"o":"m 315 578 q 338 589 321 594 q 349 567 354 583 q 290 418 321 481 q 149 251 229 282 q 106 243 128 243 q 51 256 76 243 q -17 689 -64 314 q 24 728 -14 713 q 72 738 47 736 q 114 731 96 740 q 122 706 125 721 q 108 308 51 374 q 138 296 119 294 q 251 419 192 300 q 269 460 260 438 q 272 465 271 463 q 315 578 294 514 m 113 874 q 102 863 113 874 q 62 851 92 851 q 10 874 32 851 q -11 927 -11 896 q 10 980 -11 958 q 62 1001 32 1001 q 113 980 92 1001 q 135 927 135 958 q 113 874 135 896 z "},"j":{"ha":300,"x_min":-250,"x_max":338,"o":"m 296 563 q 320 572 304 579 q 329 547 336 564 q 97 232 249 378 q 92 133 94 183 q 83 3 88 57 q 72 -115 79 -51 q 51 -221 64 -178 q 21 -302 39 -264 q -24 -361 3 -340 q -83 -385 -50 -382 q -94 -385 -89 -385 q -206 -319 -162 -385 q -239 -238 -229 -285 q -240 -133 -249 -192 q -201 -18 -232 -74 q -156 46 -185 13 q -103 101 -126 79 q -32 163 -79 122 q -15 178 -22 171 q -18 454 -15 267 q -19 646 -19 572 q 26 707 -19 683 q 75 722 50 719 q 118 714 100 725 q 131 683 133 703 q 100 296 113 560 q 100 290 100 294 q 100 285 100 286 q 296 563 225 413 m -22 -86 q -15 131 -17 3 q -80 73 -57 94 q -129 22 -103 51 q -171 -35 -156 -8 q -208 -181 -208 -114 q -179 -296 -207 -249 q -175 -300 -176 -297 q -147 -324 -165 -314 q -111 -331 -129 -333 q -60 -283 -78 -326 q -22 -86 -29 -203 m 103 857 q 93 846 103 857 q 51 835 82 835 q 0 857 21 835 q -21 910 -21 879 q 0 963 -21 942 q 51 985 21 985 q 103 963 82 985 q 125 910 125 942 q 103 857 125 879 z "},"k":{"ha":481,"x_min":-24,"x_max":514,"o":"m 474 578 q 497 589 481 594 q 508 565 514 583 q 495 530 503 550 q 470 468 488 510 q 433 391 453 426 q 389 320 413 356 q 338 264 365 285 q 283 243 310 243 q 274 243 278 243 q 160 328 213 251 q 100 464 108 404 q 97 453 99 457 q 68 328 81 403 q 61 288 64 300 q 50 265 58 276 q 28 254 42 254 q 11 261 18 254 q -17 479 -10 285 q -21 808 -24 674 q -15 997 -18 943 q 32 1054 -14 1032 q 81 1069 56 1065 q 124 1063 106 1072 q 133 1040 136 1054 q 96 726 115 918 q 74 494 83 599 q 271 740 138 661 q 294 735 285 749 q 288 707 304 722 q 188 592 226 644 q 187 487 164 551 q 249 378 210 422 q 326 335 292 331 q 397 399 365 339 q 397 400 397 399 q 474 578 442 482 z "},"l":{"ha":278,"x_min":-42,"x_max":315,"o":"m 275 579 q 297 590 281 596 q 308 567 314 583 q 178 296 226 350 q 89 243 135 243 q 63 247 76 243 q -19 406 3 267 q -31 707 -42 546 q 7 1004 -21 868 q 81 1065 15 1046 q 142 1063 125 1079 q 147 1039 151 1053 q 75 401 54 744 q 110 304 79 322 q 131 303 121 297 q 149 317 139 307 q 215 432 179 354 q 215 432 215 432 q 275 579 240 489 z "},"m":{"ha":781,"x_min":-29,"x_max":822,"o":"m 782 579 q 803 592 786 596 q 817 569 821 588 q 756 394 786 460 q 756 393 756 394 q 694 293 731 331 q 614 247 657 256 q 596 246 606 246 q 535 272 558 246 q 503 529 483 329 q 504 658 514 628 q 467 597 486 642 q 413 436 447 546 q 351 275 371 300 q 349 271 350 274 q 301 243 328 243 q 256 263 275 243 q 221 360 228 292 q 217 547 214 429 q 210 647 219 621 q 207 644 208 646 q 183 597 197 625 q 99 357 144 515 q 86 314 90 328 q 85 313 85 314 q 56 253 69 261 q 38 247 47 247 q 22 251 31 247 q -15 349 -4 267 q -28 618 -25 432 q 4 722 -29 690 q 90 746 32 749 q 100 746 99 744 q 115 738 110 746 q 117 721 121 729 q 86 442 92 654 q 143 593 114 528 q 143 594 143 594 q 175 660 160 638 q 283 735 228 758 q 323 674 317 721 q 326 533 329 626 q 325 483 325 499 q 331 310 322 358 q 342 333 335 319 q 379 446 353 364 q 428 592 408 543 q 428 593 428 593 q 438 617 432 606 q 521 729 479 718 q 582 719 558 740 q 613 632 610 697 q 604 503 615 567 q 599 447 600 464 q 597 383 593 408 q 602 343 600 357 q 611 322 604 329 q 622 314 618 315 q 632 311 625 313 q 706 373 669 307 q 782 579 743 439 z "},"n":{"ha":494,"x_min":-22,"x_max":539,"o":"m 521 585 q 533 563 539 579 q 456 369 508 481 q 404 292 429 319 q 310 243 363 243 q 307 243 310 243 q 247 276 269 244 q 222 373 226 303 q 225 542 218 443 q 219 653 229 625 q 190 597 207 632 q 106 357 151 515 q 93 314 97 326 q 92 313 92 313 q 63 253 76 261 q 44 247 54 247 q 29 251 38 247 q -8 349 3 267 q -21 618 -18 432 q 11 722 -22 690 q 97 746 39 749 q 107 744 106 744 q 122 738 117 746 q 124 721 128 729 q 93 442 99 654 q 150 593 121 528 l 150 594 q 188 671 169 646 q 290 735 236 754 q 323 672 317 725 q 326 488 329 618 q 328 335 324 368 q 353 307 331 308 q 422 385 382 304 q 499 572 471 481 q 521 585 504 589 z "},"o":{"ha":449,"x_min":-43,"x_max":488,"o":"m 450 558 q 471 569 456 574 q 485 550 486 565 q 433 483 479 511 q 293 458 374 447 q 210 258 274 318 q 126 222 171 222 q 91 228 110 222 q 51 253 72 235 q 11 299 29 271 q -19 372 -7 326 q -35 474 -32 417 q 18 678 -43 614 q 94 719 49 710 q 129 768 106 749 q 200 785 161 794 q 274 713 250 772 q 279 697 276 706 q 283 683 282 692 l 283 683 q 299 525 303 617 q 297 499 297 511 q 353 497 324 493 q 412 519 388 503 q 442 544 436 535 q 450 558 447 553 m 185 285 q 257 465 242 338 q 236 472 246 468 q 148 528 186 490 q 94 615 110 567 q 76 506 81 568 q 78 378 72 432 q 97 299 85 325 q 126 265 110 274 q 185 285 150 253 m 263 526 q 246 685 267 622 q 219 715 235 715 q 196 695 207 714 q 183 643 185 676 q 232 533 181 579 q 261 511 246 521 q 263 526 263 519 z "},"p":{"ha":447,"x_min":-33,"x_max":322,"o":"m 303 583 q 289 351 321 447 q 188 236 257 254 q 161 232 174 232 q 68 300 101 232 q 33 -146 44 64 q 27 -158 32 -153 q 15 -162 22 -162 q -1 -156 6 -162 q -25 -15 -18 -137 q -31 267 -32 108 q -27 521 -29 425 q -24 647 -25 617 q 25 706 -22 683 q 67 719 44 715 q 108 713 90 722 q 118 689 121 704 l 115 671 q 97 546 104 599 q 110 586 104 568 l 110 588 q 125 626 117 608 q 143 667 135 649 q 221 721 176 729 q 274 679 251 717 q 303 583 296 642 m 164 349 q 219 588 225 401 q 214 625 218 608 q 205 649 210 642 q 194 657 200 656 q 187 654 192 657 q 174 640 182 651 q 158 613 165 629 q 96 403 132 549 q 81 349 86 368 q 85 346 83 347 q 91 342 88 344 q 103 338 94 340 q 121 334 113 335 q 141 337 129 333 q 164 349 153 340 z "},"q":{"ha":471,"x_min":-44,"x_max":331,"o":"m 308 742 q 328 622 326 724 q 321 257 329 521 q 313 26 318 138 q 290 -55 311 -15 q 239 -107 268 -94 q 196 -119 213 -119 q 178 -115 185 -119 q 168 -93 167 -107 q 182 -19 172 -69 q 208 147 196 49 q 227 320 221 246 q 240 479 233 394 q 247 578 246 564 q 247 575 247 576 q 246 572 246 574 q 190 397 213 454 l 190 396 q 174 357 182 375 q 153 317 164 335 q 67 263 117 254 q 9 304 33 267 q -24 400 -15 342 q -8 633 -44 536 q 106 747 28 729 q 186 738 153 758 q 238 683 219 717 q 262 733 250 718 q 290 749 274 749 q 308 742 301 749 m 207 581 q 222 635 218 618 q 215 640 218 636 q 213 643 215 640 q 206 649 210 646 q 197 657 203 653 q 185 665 192 661 q 172 670 179 668 q 156 672 164 672 q 138 669 147 672 q 118 658 128 665 q 72 559 83 632 q 69 396 61 486 q 96 326 76 333 q 115 333 106 324 q 138 371 124 343 q 207 581 165 435 z "},"r":{"ha":481,"x_min":-100,"x_max":526,"o":"m 488 581 q 510 592 493 597 q 522 569 526 586 q 497 506 515 547 q 410 342 454 403 q 275 243 351 247 q 268 243 272 243 q 181 299 206 243 q 169 362 169 322 q 171 429 168 401 q 182 508 174 457 q 190 599 192 581 q 175 589 185 596 q 67 550 125 558 q -37 575 4 540 q -94 653 -79 610 q -90 672 -99 664 l 7 758 q 26 762 15 765 q 38 747 36 758 q 76 656 43 681 q 113 649 92 644 q 161 675 129 651 q 190 694 179 688 q 219 705 201 700 q 254 706 238 710 q 290 682 278 700 q 305 633 303 664 q 304 574 307 603 q 296 504 301 546 q 288 307 268 331 q 306 300 293 301 q 381 363 338 300 q 382 365 382 364 q 463 517 432 447 q 488 581 476 549 z "},"s":{"ha":469,"x_min":-53,"x_max":506,"o":"m 476 596 q 479 598 476 596 q 489 599 482 600 q 500 592 496 597 q 503 578 504 586 q 431 396 483 474 q 317 282 379 318 q 192 246 256 246 q 181 246 186 246 q 147 243 163 243 q 53 260 99 243 q -6 288 8 276 q -29 306 -21 299 q -32 328 -39 315 l 17 413 q 33 421 22 421 q 49 410 44 421 q 164 303 88 326 q 222 304 203 292 q 240 343 242 317 q 171 411 236 382 l 156 418 q 96 445 117 435 q 44 474 75 456 q -3 514 14 493 q -29 560 -21 535 q -7 694 -51 638 q 149 753 46 760 q 198 743 175 751 q 237 725 221 735 q 267 701 253 715 q 288 676 281 688 q 301 653 296 665 q 308 638 307 642 q 311 631 310 633 q 304 611 314 618 l 238 567 q 219 565 229 561 q 210 579 210 569 q 197 616 207 597 q 171 652 188 635 q 136 681 154 669 q 67 693 96 704 q 39 650 40 683 q 92 571 35 603 q 167 532 119 556 q 200 516 189 521 q 228 501 211 511 q 256 483 246 490 q 277 465 265 476 q 295 444 289 454 q 307 419 301 433 q 314 390 313 406 q 294 311 318 346 q 403 416 356 346 q 468 585 450 486 q 476 596 469 592 z "},"t":{"ha":299,"x_min":-310,"x_max":461,"o":"m 446 883 q 451 860 460 874 l 408 786 q 396 778 404 779 q 381 782 388 776 q 329 805 360 800 q 272 806 299 810 q 189 792 246 803 q 103 776 135 782 q 88 414 76 590 q 108 324 90 356 q 154 293 125 293 q 178 299 167 293 q 199 318 189 306 q 219 344 210 331 q 237 379 228 357 q 252 417 246 401 q 267 462 258 433 q 281 506 276 490 q 294 553 286 522 l 303 581 q 324 594 307 599 q 336 571 342 589 l 329 543 q 299 442 310 474 q 297 436 299 439 q 163 247 249 275 q 131 243 147 243 q 64 265 94 243 q -15 450 1 313 q -17 764 -32 588 q -19 764 -18 764 q -21 764 -19 764 q -122 776 -74 764 q -201 806 -169 789 q -256 842 -232 822 q -292 875 -281 861 q -304 896 -303 889 q -297 917 -310 910 q -274 914 -285 925 q -268 908 -271 911 q -115 833 -207 842 q -10 839 -65 829 q 14 997 0 922 q 81 1046 19 1026 q 151 1044 135 1061 q 157 1021 161 1035 q 118 869 133 950 q 126 872 119 869 q 193 889 167 882 q 356 911 306 914 q 446 883 406 908 z "},"u":{"ha":481,"x_min":-24,"x_max":515,"o":"m 485 585 q 489 588 485 585 q 499 589 492 590 q 510 581 506 588 q 514 568 515 575 q 447 335 489 413 q 438 319 443 329 q 436 318 436 318 q 326 243 389 243 q 325 243 325 243 q 274 263 296 244 q 240 311 251 281 q 208 496 214 379 q 160 339 179 388 q 157 331 160 335 q 153 321 156 325 q 97 251 126 263 q 74 247 85 247 q 40 258 56 247 q 0 328 15 276 q -19 446 -15 379 q -24 558 -24 513 q -21 646 -24 604 q 29 728 -18 706 q 74 738 50 738 q 107 731 97 738 q 115 711 117 722 q 104 633 113 683 q 88 407 88 517 q 100 310 89 332 q 121 339 108 318 q 182 535 143 392 q 210 635 200 603 q 232 694 219 668 q 258 726 244 719 q 281 728 269 732 q 307 692 303 719 q 310 601 311 665 q 311 421 306 494 l 313 413 q 350 300 319 303 q 424 369 389 296 q 478 574 458 443 q 485 585 479 581 z "},"v":{"ha":469,"x_min":-39,"x_max":507,"o":"m 467 571 q 490 581 474 588 q 500 557 507 574 q 456 500 488 526 q 376 478 424 474 q 303 517 329 483 q 282 554 289 532 q 244 411 263 469 q 210 315 226 353 q 178 260 193 276 q 146 243 163 243 q 142 243 143 243 q 58 345 101 247 q -8 533 15 443 q -35 653 -32 624 q -7 711 -37 690 q 36 726 11 724 q 74 722 61 729 q 88 703 86 717 q 89 674 88 693 q 122 433 96 553 q 164 306 149 324 q 188 358 175 318 q 192 364 189 361 q 268 651 225 461 q 281 700 278 696 q 302 709 288 714 q 313 681 317 704 q 331 539 299 579 q 379 514 347 517 q 403 515 392 513 q 424 522 415 518 q 439 533 432 526 q 451 545 446 539 q 460 558 456 551 q 465 567 464 564 q 467 571 465 569 z "},"w":{"ha":621,"x_min":-29,"x_max":654,"o":"m 614 576 q 638 584 622 592 q 647 560 654 576 q 642 552 644 557 q 628 535 639 547 q 605 516 618 524 q 570 502 592 508 q 522 496 549 496 q 450 531 478 499 q 436 550 443 539 q 417 410 426 465 q 394 319 407 356 q 363 267 381 282 q 322 244 344 247 q 315 244 318 244 q 239 310 267 244 q 206 479 213 372 q 156 320 182 379 q 93 247 129 261 q 71 243 81 243 q 38 254 53 243 q -6 335 10 275 q -26 470 -22 394 q -29 588 -29 546 q -26 661 -29 629 q 15 733 -24 714 q 62 740 39 743 q 99 729 85 738 q 108 708 110 721 q 100 643 106 683 q 85 403 83 521 q 90 342 85 365 q 97 313 94 318 q 101 307 100 308 q 126 343 113 314 l 126 344 q 182 536 151 403 q 208 617 200 610 l 208 618 l 208 618 q 224 629 214 622 q 256 644 235 636 q 290 646 278 653 q 306 615 307 638 q 304 403 300 533 q 326 294 307 313 q 335 292 331 292 q 338 293 336 292 q 376 392 363 319 q 378 397 376 394 q 414 685 396 489 q 414 689 414 688 l 414 690 q 421 702 415 697 q 434 706 426 707 q 447 699 442 706 q 450 686 451 693 q 450 683 450 685 q 478 554 443 594 q 524 532 494 533 q 577 542 554 531 q 606 562 600 554 q 614 576 611 569 z "},"x":{"ha":482,"x_min":-49,"x_max":514,"o":"m 474 576 q 497 588 479 593 q 508 565 514 582 q 410 342 468 440 q 407 335 408 338 q 392 315 400 324 q 389 310 390 311 q 339 263 369 282 q 274 243 308 243 q 243 247 258 243 q 81 392 167 267 q -7 258 33 321 q -22 250 -12 250 q -32 253 -28 250 q -37 276 -47 261 q -35 282 -37 278 q -27 294 -32 286 q -16 312 -22 301 q -1 335 -10 322 q 16 363 7 349 q 36 395 25 378 q 57 428 47 413 q -35 622 -10 538 q -29 704 -49 672 q 42 746 -12 733 q 53 749 50 747 q 67 747 60 751 q 75 735 74 743 q 129 544 92 640 q 219 689 211 675 q 267 715 236 718 q 303 692 296 713 q 299 671 307 679 q 151 492 242 615 q 163 469 158 479 q 311 304 249 307 q 363 336 338 304 q 422 442 393 379 q 460 535 450 506 q 474 576 471 564 z "},"y":{"ha":482,"x_min":-49,"x_max":521,"o":"m 479 568 q 504 574 489 583 q 511 550 519 565 q 299 264 421 397 q 293 135 297 197 q 285 4 289 58 q 273 -113 281 -50 q 253 -219 265 -176 q 222 -301 240 -262 q 178 -360 204 -339 q 118 -383 153 -381 q 107 -385 113 -385 q -4 -318 39 -385 q -37 -237 -28 -283 q -39 -131 -47 -190 q 0 -17 -31 -72 q 47 51 18 15 q 97 110 75 86 q 164 176 119 133 q 189 201 181 193 q 190 271 189 247 q 193 436 192 381 q 158 326 174 367 q 156 318 158 322 q 150 308 153 313 q 94 239 124 250 q 72 235 83 235 q 40 246 54 235 q -4 325 13 265 q -24 461 -21 385 q -26 579 -26 538 q -25 653 -26 621 q 17 724 -22 706 q 64 731 40 733 q 100 719 88 729 q 110 699 113 711 q 101 633 107 674 q 86 394 85 511 q 97 297 86 319 q 119 325 107 306 q 181 522 142 379 q 222 663 207 622 q 256 714 238 704 q 264 717 260 715 q 275 721 269 721 q 288 716 282 721 q 293 704 293 711 q 299 319 303 540 q 479 568 401 435 m 142 -283 q 188 150 179 -174 q 124 85 146 108 q 74 29 101 63 q 31 -35 47 -4 q -7 -181 -8 -114 q 24 -296 -6 -249 q 26 -299 26 -299 q 56 -323 36 -314 q 93 -331 75 -332 q 142 -283 126 -326 z "},"z":{"ha":469,"x_min":-74,"x_max":521,"o":"m 481 569 q 504 581 488 586 q 515 558 521 575 q 383 310 461 396 l 382 307 q 324 258 358 276 q 238 232 281 232 q 219 232 229 232 q 213 233 215 232 q 172 238 192 233 q 25 239 93 246 q 3 238 13 238 q -12 241 -6 238 q -24 252 -19 244 q -31 274 -29 260 q 64 447 -36 308 q 47 446 61 446 q 29 458 33 446 q 38 479 26 472 q 100 501 71 500 q 106 503 104 503 q 154 563 129 532 q 106 551 131 556 q 60 549 82 546 q 21 557 38 553 q -10 570 4 561 q -35 586 -25 579 q -52 603 -44 593 q -62 616 -60 613 q -67 621 -65 619 q -67 642 -74 632 l 1 735 q 20 742 8 744 q 35 728 32 739 q 36 720 35 725 q 41 705 38 715 q 51 685 44 694 q 66 668 57 676 q 89 656 75 660 q 119 653 103 651 q 235 694 186 661 q 263 708 253 707 q 300 692 289 711 q 218 507 328 643 q 206 490 211 499 q 263 481 254 483 q 276 472 272 479 q 276 454 282 463 q 260 446 271 446 q 254 446 258 446 q 171 449 239 449 q 114 359 126 389 q 115 307 101 329 q 178 274 131 285 q 222 268 199 271 q 314 293 274 268 q 349 324 331 306 q 354 329 350 325 q 422 437 389 374 q 465 527 454 500 q 481 569 476 554 z "},"{":{"ha":413,"x_min":36,"x_max":365,"o":"m 343 38 q 363 25 360 40 q 349 7 365 10 q 300 3 321 3 q 219 28 247 3 q 181 120 188 56 q 185 276 174 185 q 174 467 199 411 q 110 457 146 457 q 53 474 71 453 q 49 514 38 492 q 114 540 65 544 q 169 528 143 539 q 186 814 213 603 q 217 950 174 907 q 321 982 250 983 q 350 981 338 983 q 362 963 364 976 q 344 950 360 949 q 321 951 329 951 q 285 939 299 950 q 263 869 261 919 q 267 801 263 853 q 263 561 285 619 q 222 494 249 519 q 267 388 263 454 q 263 256 269 346 q 257 121 256 168 q 286 50 258 71 q 343 38 310 32 m 126 492 q 144 500 136 494 q 111 510 131 508 l 110 488 q 126 492 118 489 z "},"|":{"ha":310,"x_min":86,"x_max":257,"o":"m 238 965 q 252 950 249 961 q 247 925 256 939 q 194 686 207 868 q 160 38 174 401 q 151 7 158 17 q 132 8 140 -4 q 101 245 115 29 q 88 708 88 461 q 92 838 88 788 q 106 917 96 888 q 132 960 115 946 q 238 965 161 986 m 229 925 l 231 933 l 228 925 l 229 925 z "},"}":{"ha":410,"x_min":42,"x_max":371,"o":"m 358 514 q 354 474 369 492 q 297 457 336 453 q 233 467 261 457 q 222 276 208 411 q 226 120 233 185 q 188 28 219 56 q 107 3 160 3 q 58 7 86 3 q 44 25 42 10 q 64 38 47 40 q 121 50 97 32 q 150 121 149 71 q 144 256 151 168 q 140 388 138 346 q 185 494 144 454 q 144 561 158 519 q 140 801 122 619 q 144 869 144 853 q 122 939 146 919 q 86 951 108 950 q 63 949 78 950 q 45 963 47 949 q 57 981 43 976 q 86 982 68 983 q 190 950 156 983 q 221 814 233 907 q 238 528 194 603 q 293 540 264 539 q 358 514 342 544 m 281 492 q 297 488 289 489 l 296 510 q 263 500 276 508 q 281 492 271 494 z "},"~":{"ha":633,"x_min":32,"x_max":589,"o":"m 544 579 q 574 578 560 586 q 587 547 588 569 q 561 493 586 524 q 428 418 497 418 q 306 451 379 419 q 203 483 232 482 q 171 483 185 485 q 144 475 157 482 q 126 466 131 468 q 106 452 121 464 q 92 440 92 440 q 50 442 64 418 q 64 510 32 468 q 196 593 126 593 q 287 575 244 593 q 366 540 329 557 q 438 524 403 522 q 482 535 463 524 q 517 562 501 547 q 544 579 533 576 z "}," ":{"ha":500,"x_min":0,"x_max":0,"o":""},"¡":{"ha":331,"x_min":103,"x_max":263,"o":"m 164 858 q 121 876 139 858 q 103 920 103 894 q 121 965 103 946 q 164 983 139 983 q 206 965 189 983 q 224 921 224 946 q 215 890 224 904 q 193 867 207 875 q 164 858 179 858 m 254 44 q 259 24 263 33 q 244 13 256 15 q 149 17 176 -6 q 117 78 126 33 q 108 218 108 124 q 113 479 108 358 q 126 685 117 600 q 149 779 135 771 l 157 783 l 165 779 q 174 754 175 772 q 206 236 171 651 q 254 44 218 90 m 239 38 l 238 44 l 239 38 z "},"¢":{"ha":565,"x_min":64,"x_max":485,"o":"m 446 760 q 481 633 476 710 q 460 507 485 556 q 440 499 454 496 l 365 522 q 355 533 357 525 q 358 549 353 542 q 405 656 394 589 q 396 757 415 724 q 375 776 388 774 q 374 776 375 776 q 343 644 357 724 q 269 221 299 400 q 357 307 321 249 q 396 410 383 354 q 397 414 396 411 q 411 428 400 426 q 428 418 422 429 q 428 407 429 415 l 429 407 q 428 401 428 406 q 378 279 415 335 q 335 224 357 246 q 263 178 300 192 q 250 94 253 110 q 239 71 249 75 l 229 67 l 222 74 q 214 171 210 82 q 165 183 188 171 q 88 287 111 211 q 79 461 64 363 q 122 604 90 538 q 197 716 154 671 q 288 786 239 761 q 328 872 303 854 q 393 878 347 888 q 408 867 404 876 q 404 849 411 858 q 385 808 394 835 q 446 760 421 803 m 389 856 l 388 846 l 389 856 m 268 674 q 272 696 269 681 q 186 491 215 614 q 179 250 157 368 q 217 208 186 213 q 268 674 228 381 z "},"£":{"ha":674,"x_min":78,"x_max":624,"o":"m 604 931 q 615 824 622 890 q 596 705 608 757 q 571 621 583 653 q 561 613 568 615 q 549 613 554 610 l 465 653 q 456 667 457 657 q 464 681 456 676 q 519 747 483 694 q 561 858 553 794 q 550 940 569 921 q 517 940 539 953 q 381 813 450 903 q 269 613 311 722 q 236 422 226 503 q 253 369 240 389 q 447 363 371 372 q 484 346 465 360 q 501 317 503 332 q 479 300 500 299 q 342 296 418 304 q 336 289 336 289 q 241 166 278 221 q 194 83 204 111 q 188 46 183 56 q 201 44 190 43 q 395 57 308 57 q 506 53 482 57 q 543 46 531 49 q 555 27 557 42 q 539 13 553 13 q 213 6 363 24 q 175 3 192 3 q 104 32 121 3 q 171 194 79 76 q 246 281 210 244 q 131 247 175 265 q 118 244 124 244 q 93 261 101 244 q 92 312 85 279 q 117 354 100 344 q 178 365 132 361 q 179 633 110 457 q 304 849 229 764 q 450 965 379 933 q 561 975 515 993 q 604 931 590 964 z "},"¤":{"ha":589,"x_min":68,"x_max":519,"o":"m 433 396 l 507 321 q 515 300 515 313 q 507 279 515 288 q 486 271 499 271 q 465 279 474 271 l 390 354 q 293 324 347 324 q 194 356 239 324 l 121 282 q 100 272 111 272 q 78 281 88 272 q 69 303 69 290 q 78 324 69 315 l 153 399 q 125 467 131 431 q 154 593 114 536 l 81 668 q 72 690 72 678 q 81 710 72 701 q 102 719 90 719 q 124 710 114 719 l 197 635 q 267 664 229 658 q 393 635 336 675 l 468 708 q 489 717 476 717 q 510 708 501 717 q 518 686 518 699 q 510 665 518 674 l 435 592 q 463 522 457 560 q 433 396 474 453 m 390 439 q 404 513 410 475 q 392 549 401 531 q 358 585 379 571 q 349 592 357 586 q 294 606 324 606 q 276 604 285 606 q 240 592 258 601 q 203 560 218 579 q 197 550 203 560 q 183 476 178 515 q 197 440 188 458 q 229 404 210 418 q 239 399 229 404 q 347 397 293 367 q 385 429 371 410 q 390 439 385 429 z "},"¥":{"ha":710,"x_min":44,"x_max":663,"o":"m 654 943 q 662 929 661 938 q 651 911 663 921 q 517 679 594 863 q 390 381 449 522 q 471 371 439 376 q 506 352 489 367 q 522 324 524 338 q 499 308 518 306 q 363 314 439 317 q 332 240 346 274 q 440 226 399 235 q 476 208 458 224 q 492 179 494 193 q 468 165 489 163 q 304 168 396 175 q 275 97 288 129 q 257 49 263 64 q 250 28 251 33 q 232 6 243 8 l 224 3 l 217 11 q 244 163 204 24 q 117 136 167 153 q 108 135 113 135 q 81 152 89 133 q 83 201 74 171 q 111 239 93 232 q 268 244 140 251 q 285 297 275 268 q 283 307 285 301 q 147 279 200 297 q 139 278 143 278 q 111 296 119 276 q 109 327 107 310 q 120 361 111 344 q 142 383 129 378 q 269 389 167 393 q 157 714 239 524 q 58 910 99 853 q 50 922 53 918 l 44 931 l 50 940 l 56 949 l 67 946 q 78 938 72 946 q 108 893 85 931 q 183 771 147 836 q 332 443 285 594 q 432 732 375 575 q 508 913 478 860 q 568 974 538 965 q 654 943 601 983 z "},"§":{"ha":642,"x_min":54,"x_max":581,"o":"m 567 438 q 568 364 575 407 q 451 144 549 246 q 250 13 354 43 q 186 3 214 3 q 99 40 126 3 q 81 156 67 82 q 110 235 89 204 q 122 243 114 243 l 189 243 l 206 243 q 221 235 217 243 q 219 218 225 226 q 168 119 190 179 q 159 81 161 97 q 160 55 157 65 q 172 42 163 44 q 267 65 203 31 q 372 151 324 94 q 465 333 436 228 q 472 444 488 419 q 467 450 469 447 q 358 442 446 469 q 289 415 326 431 q 99 428 158 364 q 74 547 60 469 q 107 717 56 617 q 277 920 175 849 q 460 982 379 992 q 465 982 463 982 q 478 978 472 981 q 533 917 517 967 q 540 811 547 872 q 488 671 531 721 q 467 668 479 661 l 432 689 l 400 707 q 392 720 392 711 q 399 735 392 729 q 435 768 418 747 q 463 813 451 789 q 481 860 475 836 q 486 900 486 881 q 483 925 486 914 q 468 949 479 943 q 458 950 463 949 q 453 950 457 950 q 325 872 400 950 q 226 741 271 817 q 164 594 181 665 q 168 531 154 550 q 174 524 171 526 q 310 535 206 496 q 350 549 331 542 q 539 554 489 593 q 567 440 581 522 q 567 439 567 440 q 567 438 567 438 m 349 471 q 476 496 428 497 q 467 525 476 517 q 360 518 444 544 q 289 492 326 507 q 161 471 215 463 q 174 449 164 456 q 311 458 207 419 q 349 471 331 465 z "},"¨":{"ha":271,"x_min":79,"x_max":200,"o":"m 106 1006 q 124 998 117 1006 q 132 978 132 990 q 124 959 132 967 q 106 951 117 951 q 92 955 99 951 q 83 965 86 958 q 79 978 79 971 q 83 992 79 986 q 92 1002 86 999 q 106 1006 99 1006 m 155 998 q 159 1002 155 998 q 174 1006 163 1006 q 192 998 185 1006 q 200 978 200 990 q 192 959 200 967 q 174 951 185 951 q 160 955 167 951 q 151 965 154 958 q 147 979 147 971 q 155 998 147 990 z "},"©":{"ha":767,"x_min":44,"x_max":718,"o":"m 493 411 q 522 410 508 425 q 521 382 535 396 q 436 321 478 342 q 339 293 386 293 q 271 315 297 293 q 250 488 210 365 q 334 622 276 567 q 429 665 392 676 q 458 642 450 661 q 451 533 478 606 q 426 522 444 515 q 414 546 408 528 q 419 604 429 592 q 389 581 408 603 q 349 514 369 560 q 321 414 328 468 q 342 346 314 360 q 405 351 364 335 q 493 411 446 367 m 143 715 q 192 765 143 715 q 381 814 242 814 q 619 715 519 814 q 718 478 718 617 q 619 240 718 339 q 381 142 519 142 q 250 168 313 142 q 142 240 188 194 q 71 347 97 285 q 44 478 44 410 q 143 715 44 617 m 199 297 q 237 259 199 297 q 381 221 275 221 q 563 297 488 221 q 638 478 638 372 q 563 660 638 585 q 381 735 488 735 q 199 660 275 735 q 124 478 124 585 q 199 297 124 372 z "},"«":{"ha":803,"x_min":151,"x_max":667,"o":"m 440 301 q 460 267 467 288 q 425 256 454 249 q 394 269 413 258 q 288 333 338 300 q 195 412 239 365 q 151 494 151 458 q 367 703 151 585 q 425 733 399 722 q 447 737 436 739 q 460 725 458 735 q 440 688 464 704 q 431 681 440 688 q 415 668 422 674 q 394 652 407 663 q 369 632 381 642 q 344 610 358 622 q 319 586 331 597 q 297 563 308 575 q 278 538 286 550 q 267 515 271 526 q 263 494 263 504 q 338 387 263 456 q 440 301 413 318 m 640 301 q 660 267 667 288 q 625 256 654 249 q 594 269 611 258 q 488 333 538 300 q 395 412 439 365 q 351 494 351 458 q 565 703 351 585 q 624 733 599 724 q 647 737 635 739 q 660 725 658 735 q 640 688 663 704 q 635 683 639 686 q 461 494 461 556 q 536 387 461 456 q 640 301 611 318 z "},"­":{"ha":0,"x_min":0,"x_max":0,"o":""},"®":{"ha":765,"x_min":44,"x_max":718,"o":"m 143 911 q 192 960 143 911 q 381 1010 242 1010 q 619 911 519 1010 q 718 674 718 813 q 619 436 718 535 q 381 338 519 338 q 250 364 313 338 q 142 435 188 390 q 71 543 97 481 q 44 674 44 606 q 143 911 44 813 m 199 492 q 237 454 199 492 q 381 417 275 417 q 563 492 488 417 q 638 673 638 567 q 563 855 638 779 q 381 931 488 931 q 199 855 275 931 q 124 673 124 779 q 199 492 124 567 m 489 560 q 509 547 501 557 q 515 525 517 538 q 503 506 513 513 q 481 500 493 499 q 397 531 440 507 q 322 588 354 556 q 306 518 313 551 q 276 493 301 493 q 274 493 275 493 q 253 503 261 494 q 247 525 246 513 l 264 825 q 269 840 264 833 q 281 851 274 847 q 296 854 288 854 q 317 844 308 853 q 324 822 325 835 l 319 750 q 396 836 356 817 q 472 833 433 854 q 493 817 485 826 q 506 797 501 808 q 511 774 511 786 q 508 749 511 761 q 478 701 500 724 q 424 662 457 678 q 354 642 390 646 q 415 590 378 615 q 489 560 453 565 m 421 782 q 364 704 393 769 q 405 719 386 708 q 435 741 424 729 q 450 765 447 753 q 444 781 454 776 q 432 785 438 785 q 421 782 426 785 z "},"°":{"ha":319,"x_min":64,"x_max":256,"o":"m 213 989 q 228 978 213 989 q 249 930 243 967 q 233 863 254 893 q 174 826 211 833 q 160 825 167 825 q 107 843 131 825 q 71 901 76 864 q 87 969 65 939 q 145 1005 108 999 q 213 989 182 1011 m 165 885 q 172 886 165 885 q 185 898 178 888 q 190 921 192 908 q 177 941 188 933 q 154 947 167 949 q 135 934 142 944 q 130 911 128 924 q 142 891 132 899 q 165 885 153 883 z "},"±":{"ha":582,"x_min":64,"x_max":517,"o":"m 114 538 q 90 556 96 538 q 90 588 86 568 q 105 625 94 608 q 126 647 115 642 q 251 644 153 656 q 288 810 251 782 q 374 814 313 829 q 386 803 383 811 q 382 785 389 794 q 360 735 368 768 q 342 631 353 701 q 450 608 408 619 q 483 585 468 603 q 494 556 499 568 q 472 543 490 539 q 331 560 411 558 q 323 501 326 531 q 317 453 319 472 q 313 415 314 433 q 310 385 311 397 q 306 365 308 374 q 303 350 304 356 q 299 342 301 344 q 285 338 293 335 q 262 390 268 346 q 253 558 256 435 q 122 539 174 554 q 114 538 118 538 m 368 790 l 367 785 l 368 792 l 368 790 m 461 290 q 498 271 481 288 q 513 242 515 254 q 489 228 508 225 q 284 234 392 242 q 107 204 176 226 q 99 203 103 203 q 72 219 79 201 q 76 272 64 239 q 108 313 88 304 q 266 315 146 324 q 461 290 386 307 z "},"²":{"ha":319,"x_min":65,"x_max":251,"o":"m 228 790 q 250 757 244 790 q 240 725 251 738 q 208 711 229 713 q 201 711 204 711 q 175 715 192 711 q 132 719 151 719 q 100 714 115 719 q 79 714 88 710 q 71 731 72 718 q 78 768 67 749 q 101 799 89 788 q 139 833 113 811 q 203 908 197 883 q 194 956 208 939 q 188 961 192 960 q 153 971 174 971 q 147 969 150 969 q 136 966 144 969 q 122 958 128 963 q 110 944 115 954 q 104 921 106 933 q 115 889 103 894 q 125 888 121 886 q 122 897 128 890 l 113 911 l 164 935 l 169 925 q 175 872 188 899 q 142 846 167 851 q 94 858 114 840 q 74 931 67 883 q 101 978 79 960 q 149 999 122 996 l 153 999 l 154 999 l 156 999 q 204 985 185 999 q 217 974 211 981 q 239 901 242 949 q 225 862 236 882 q 203 831 214 842 q 174 801 193 819 q 140 767 149 778 q 132 753 135 760 q 142 753 133 753 l 151 751 q 210 761 196 749 q 214 774 214 765 q 228 790 213 789 z "},"³":{"ha":299,"x_min":53,"x_max":247,"o":"m 225 894 q 226 792 246 853 q 194 739 215 758 q 160 715 174 719 q 135 711 147 711 q 128 713 131 711 q 75 746 93 715 q 71 821 53 783 q 126 858 88 860 q 160 839 149 857 q 160 800 171 819 q 143 790 153 788 q 131 803 133 790 q 129 806 129 806 q 115 806 122 808 q 107 794 110 803 q 113 753 100 769 q 135 740 121 742 q 167 764 153 740 q 189 828 182 788 q 183 892 199 881 q 154 890 175 899 q 151 889 153 890 q 131 875 142 885 q 111 875 119 865 q 110 894 101 883 q 122 907 111 897 q 172 954 154 936 q 139 947 157 949 q 82 975 106 946 q 83 994 75 985 q 103 996 92 1003 q 133 988 111 989 q 192 994 154 986 q 194 994 192 994 q 203 996 199 996 q 226 988 219 999 q 211 942 236 972 q 193 921 203 931 q 194 921 194 921 q 225 894 214 915 z "},"´":{"ha":189,"x_min":65,"x_max":144,"o":"m 138 972 q 128 946 143 964 q 103 913 113 928 q 92 891 94 897 q 86 885 89 885 q 73 890 79 883 q 67 904 67 897 q 72 942 67 919 q 85 972 78 964 q 113 984 94 986 q 138 972 132 982 z "},"¸":{"ha":242,"x_min":33,"x_max":181,"o":"m 171 61 q 144 -4 181 17 q 113 -12 131 -12 q 49 14 79 -12 q 47 43 33 28 q 69 47 56 53 q 75 43 72 46 q 88 35 78 40 q 105 28 97 31 q 121 27 113 25 q 133 36 129 29 q 133 52 136 44 q 123 66 131 60 q 108 78 115 72 q 94 86 100 83 l 88 89 q 78 101 81 94 q 96 157 72 118 q 104 171 103 169 q 112 184 106 179 q 126 188 118 189 q 139 181 133 188 q 143 165 144 174 q 131 136 142 157 q 119 117 122 122 q 171 61 164 94 z "},"¹":{"ha":182,"x_min":46,"x_max":122,"o":"m 110 940 q 121 731 103 797 q 119 719 122 724 q 110 713 115 714 q 96 711 103 711 q 63 731 68 711 q 69 950 50 767 q 53 954 60 947 q 53 972 46 964 q 61 981 54 975 q 81 994 68 988 q 101 997 93 1001 q 111 984 110 994 q 110 940 113 974 z "},"»":{"ha":758,"x_min":114,"x_max":629,"o":"m 414 693 q 629 485 629 575 q 585 402 629 449 q 491 323 540 356 q 385 260 442 290 q 354 246 368 249 q 321 257 326 239 q 339 292 314 278 q 443 377 368 308 q 518 485 518 446 q 513 506 518 494 q 501 528 508 517 q 483 553 494 540 q 461 576 472 565 q 436 600 450 588 q 411 622 422 613 q 386 642 400 632 q 365 658 372 653 q 349 671 358 664 q 339 678 340 678 q 319 715 317 694 q 333 727 322 725 q 356 724 344 729 q 414 693 381 713 m 429 485 q 405 424 429 457 q 341 360 381 392 q 264 305 301 329 q 186 260 226 281 q 154 246 168 249 q 121 257 126 239 q 140 292 114 278 q 243 377 168 308 q 318 485 318 446 q 314 506 318 494 q 302 528 310 517 q 283 553 294 540 q 261 576 272 565 q 236 600 250 588 q 211 622 222 613 q 187 642 200 632 q 166 658 174 653 q 149 671 158 664 q 140 678 140 678 q 121 715 117 694 q 133 727 122 725 q 156 724 144 729 q 214 693 182 713 q 429 485 429 575 z "},"¿":{"ha":706,"x_min":74,"x_max":628,"o":"m 404 883 q 395 874 404 883 q 361 865 386 865 q 319 883 336 865 q 301 925 301 900 q 319 967 301 950 q 361 985 336 985 q 392 976 378 985 q 414 954 406 968 q 422 925 422 940 q 404 883 422 900 m 553 451 q 611 353 594 415 q 615 219 628 290 q 523 63 600 122 q 358 3 446 3 q 179 58 244 3 q 151 83 164 69 q 86 319 74 164 q 106 407 90 367 q 154 485 122 447 q 210 544 186 522 q 281 606 233 567 l 299 621 q 344 749 351 665 q 351 778 343 772 q 363 782 357 782 q 369 781 365 782 q 413 733 389 772 q 433 653 436 694 q 424 612 433 631 q 397 576 415 593 q 363 548 378 558 q 321 519 349 538 q 265 483 285 497 q 217 442 246 468 q 172 381 189 415 q 146 303 154 346 q 183 99 119 172 q 200 82 192 90 q 353 40 258 42 q 366 41 357 40 q 397 47 375 42 q 440 59 418 51 q 485 83 461 67 q 528 119 510 99 q 561 174 547 140 q 576 250 575 208 q 514 400 583 369 q 473 408 492 408 q 447 400 454 407 q 429 363 429 385 q 435 330 429 340 q 446 314 440 319 l 457 299 l 338 246 l 331 257 q 302 333 307 292 q 313 411 297 375 q 414 486 340 472 q 553 451 496 503 z "},"À":{"ha":1029,"x_min":72,"x_max":997,"o":"m 961 133 q 985 141 974 146 q 994 118 996 136 q 958 47 990 85 q 867 4 925 10 q 844 3 854 3 q 738 43 782 3 q 679 133 701 76 q 649 267 657 190 q 638 401 640 343 q 638 539 636 458 q 572 529 604 535 q 488 519 529 522 q 483 507 486 515 q 422 357 465 446 q 369 257 394 294 q 242 151 304 163 q 128 181 172 140 q 75 319 72 229 q 131 449 78 400 q 256 488 181 493 l 268 486 l 285 368 l 267 368 q 247 367 260 368 q 207 355 233 365 q 167 326 181 344 q 156 253 146 299 q 211 199 165 206 q 257 203 233 194 q 309 239 281 213 q 361 307 338 265 q 390 365 376 335 q 453 517 418 425 q 422 517 436 517 q 337 523 376 517 q 276 537 297 529 q 237 554 254 544 q 215 569 219 564 q 207 576 210 574 l 200 586 l 265 682 l 279 664 q 282 660 279 663 q 292 651 285 658 q 306 638 299 644 q 326 624 314 632 q 353 609 339 615 q 385 597 367 603 q 424 586 404 590 q 476 581 446 582 q 542 771 504 658 q 601 927 581 885 q 638 974 622 969 q 658 974 649 978 q 684 919 676 964 q 699 736 692 874 q 708 594 704 649 q 793 604 771 603 q 871 596 833 606 q 928 575 908 586 q 951 557 949 564 l 956 546 l 939 531 l 928 536 q 852 557 893 554 q 711 549 811 560 q 717 476 714 510 q 755 243 731 328 q 808 131 779 158 q 879 101 836 103 q 961 133 928 100 m 640 785 q 640 932 644 901 q 572 761 617 893 q 510 578 538 657 q 639 586 567 578 q 639 668 639 644 q 640 785 636 697 m 644 1008 q 639 1015 642 1010 q 627 1037 636 1021 q 601 1071 618 1053 q 593 1096 588 1088 q 617 1108 599 1107 q 646 1097 635 1110 q 654 1080 650 1092 q 661 1053 658 1068 q 664 1029 664 1039 q 657 1015 664 1021 q 644 1008 650 1008 z "},"Á":{"ha":1018,"x_min":61,"x_max":986,"o":"m 950 133 q 974 141 963 146 q 983 118 985 136 q 947 47 979 85 q 856 4 914 10 q 833 3 843 3 q 726 43 771 3 q 668 133 690 76 q 638 267 646 190 q 627 401 629 343 q 626 539 625 458 q 561 529 593 535 q 476 519 518 522 q 472 507 475 515 q 411 357 454 446 q 358 257 383 294 q 231 151 293 163 q 117 181 161 140 q 64 319 61 229 q 119 449 67 400 q 244 488 169 493 l 257 486 l 274 368 l 256 368 q 235 367 249 368 q 196 355 222 365 q 156 326 169 344 q 144 253 135 299 q 200 199 154 206 q 246 203 222 194 q 298 239 269 213 q 350 307 326 265 q 379 365 365 335 q 442 517 407 425 q 411 517 425 517 q 347 519 378 517 q 297 527 317 522 q 258 539 276 532 q 230 551 240 546 q 211 563 219 557 q 200 572 203 569 q 196 576 197 575 l 189 586 l 254 682 l 268 664 q 284 646 272 657 q 333 615 296 635 q 413 586 369 594 q 465 581 435 582 q 531 771 493 658 q 567 870 551 831 q 593 931 582 910 q 612 962 604 953 q 626 974 619 971 q 647 974 638 978 q 673 919 665 964 q 688 736 681 874 q 697 594 693 649 q 782 604 760 603 q 860 596 822 606 q 917 575 897 586 q 940 557 938 564 l 944 546 l 928 531 l 917 536 q 841 557 882 554 q 700 549 800 560 q 706 476 703 510 q 744 243 719 328 q 797 131 768 158 q 868 101 825 103 q 950 133 917 100 m 629 785 q 629 932 633 901 q 561 761 606 893 q 499 578 526 657 q 628 586 556 578 q 628 668 628 644 q 629 785 625 697 m 650 1008 q 638 1015 644 1008 q 631 1029 631 1021 q 637 1067 631 1044 q 649 1097 643 1089 q 678 1108 660 1110 q 703 1096 696 1107 q 693 1071 707 1088 q 672 1044 681 1057 q 661 1024 664 1031 q 656 1014 658 1018 q 650 1008 653 1010 z "},"Â":{"ha":1039,"x_min":82,"x_max":1007,"o":"m 994 142 q 1004 118 1006 136 q 967 47 1000 85 q 876 4 935 10 q 854 3 864 3 q 747 43 792 3 q 689 133 711 76 q 658 267 667 190 q 648 401 650 343 q 647 539 646 458 q 582 529 614 535 q 497 519 539 522 q 493 507 496 515 q 432 357 475 446 q 379 257 404 294 q 251 151 314 163 q 138 181 182 140 q 85 319 82 229 q 140 449 88 400 q 265 488 190 493 l 278 486 l 294 368 l 276 368 q 256 367 269 368 q 217 355 243 365 q 178 326 190 344 q 165 253 156 299 q 221 199 175 206 q 297 219 256 193 q 371 307 338 246 q 400 365 386 335 q 463 517 428 425 q 432 517 446 517 q 347 523 386 517 q 285 537 307 529 q 247 554 264 544 q 224 569 229 564 q 217 576 219 574 l 210 586 l 275 682 l 289 664 q 306 647 294 657 q 353 615 317 636 q 433 586 390 594 q 486 581 456 582 q 551 771 514 658 q 586 870 571 831 q 613 931 601 910 q 633 962 625 953 q 647 974 640 971 q 668 974 658 978 q 694 919 686 964 q 708 736 701 874 q 718 594 714 649 q 804 604 781 603 q 881 596 843 606 q 938 575 918 586 q 961 557 958 564 l 965 546 l 949 531 l 938 536 q 862 557 903 554 q 721 549 821 560 q 728 476 724 515 q 765 243 740 328 q 817 131 789 158 q 889 101 846 103 q 971 133 938 100 q 994 142 983 146 m 650 785 q 650 932 654 901 q 582 761 626 893 q 519 578 547 658 q 649 586 576 578 q 649 668 649 644 q 650 785 646 697 m 624 1001 l 619 1003 q 614 1022 608 1010 q 636 1069 628 1054 q 649 1088 644 1085 q 658 1090 653 1090 q 668 1088 664 1090 q 681 1069 672 1085 q 703 1022 689 1053 q 696 1003 708 1010 q 685 1003 690 1000 q 676 1010 679 1004 q 657 1038 665 1035 q 639 1010 649 1029 q 626 1001 635 1001 l 624 1001 z "},"Ã":{"ha":996,"x_min":39,"x_max":964,"o":"m 951 139 q 961 115 963 133 q 947 74 958 96 q 904 28 935 51 q 833 1 874 6 q 811 0 821 0 q 704 40 749 0 q 646 131 668 74 q 615 264 624 188 q 605 398 607 340 q 604 536 603 456 q 539 526 574 532 q 454 517 496 519 q 450 504 454 514 q 389 356 432 443 q 336 256 361 292 q 208 150 271 160 q 94 178 139 138 q 42 317 39 226 q 97 446 44 399 q 222 485 147 490 l 235 483 l 251 367 l 233 365 q 225 365 231 365 q 207 363 219 365 q 182 356 194 360 q 156 343 169 351 q 133 324 143 335 q 122 250 113 296 q 178 196 132 203 q 253 217 213 190 q 328 304 293 243 q 357 363 343 333 q 419 514 385 422 q 389 514 403 514 q 303 520 343 514 q 242 534 264 526 q 203 551 221 542 q 181 566 186 561 q 174 574 176 571 l 167 583 l 232 679 l 246 661 q 263 644 251 654 q 310 613 274 633 q 390 583 347 592 q 443 578 413 579 q 508 768 471 656 q 568 924 547 882 q 604 971 589 967 q 625 971 615 975 q 651 916 643 961 q 665 733 658 871 q 675 592 671 646 q 760 601 736 600 q 809 599 785 603 q 851 590 833 596 q 885 576 869 583 q 908 564 900 569 q 918 554 917 558 l 922 543 l 906 528 l 894 533 q 819 555 860 551 q 678 546 778 558 q 685 475 681 513 q 722 240 697 325 q 774 128 746 156 q 846 99 803 100 q 928 131 894 97 q 951 139 940 143 m 607 782 q 607 929 611 899 q 539 758 583 890 q 476 576 504 656 q 606 583 533 575 q 606 665 606 642 q 607 782 603 694 m 561 1021 q 549 1024 551 1014 q 554 1040 547 1032 q 590 1063 571 1063 q 626 1053 607 1063 q 656 1044 644 1043 q 674 1051 664 1044 q 685 1060 683 1058 q 693 1059 689 1061 q 697 1051 697 1057 q 689 1036 696 1044 q 653 1015 672 1015 q 620 1024 640 1015 q 592 1033 600 1033 q 561 1021 578 1035 z "},"Ä":{"ha":1029,"x_min":72,"x_max":997,"o":"m 961 131 q 985 138 974 143 q 994 115 996 133 q 958 44 990 82 q 867 1 925 7 q 844 0 854 0 q 738 40 782 0 q 688 111 708 67 q 658 206 668 156 q 643 316 649 257 q 638 429 638 375 q 638 536 638 483 q 572 526 607 532 q 488 517 529 519 q 483 504 486 513 q 422 354 465 443 q 369 254 394 292 q 242 149 304 160 q 128 178 172 138 q 75 317 72 226 q 131 446 78 397 q 256 485 181 490 l 268 483 l 285 365 l 267 365 q 247 364 260 365 q 207 352 233 363 q 168 324 181 342 q 156 250 146 296 q 211 196 165 203 q 287 216 246 190 q 361 304 328 242 q 390 363 376 332 q 453 514 418 422 q 422 514 436 514 q 337 519 376 514 q 276 533 297 525 q 237 551 254 542 q 215 566 219 561 q 207 574 210 571 l 200 583 l 265 679 l 279 661 q 285 654 281 658 q 303 639 289 650 q 332 618 317 628 q 372 599 347 608 q 424 583 397 589 q 476 578 446 579 q 542 768 504 656 q 601 924 581 882 q 638 971 622 967 q 658 971 649 975 q 667 964 663 968 q 674 951 671 960 q 680 935 678 943 q 685 910 682 926 q 689 880 688 894 q 692 840 690 865 q 696 792 694 814 q 699 733 697 769 q 708 592 704 647 q 793 601 771 600 q 871 593 833 603 q 928 572 908 583 q 951 554 949 561 l 956 543 l 939 528 l 928 533 q 852 554 893 551 q 711 546 811 557 q 717 474 714 513 q 755 240 731 325 q 808 128 779 156 q 879 99 836 100 q 961 131 928 97 m 640 782 q 640 929 644 899 q 572 758 617 890 q 510 575 538 656 q 639 583 567 575 q 639 665 639 642 q 640 782 636 694 m 634 1010 q 630 1006 634 1010 q 615 1001 626 1001 q 597 1010 604 1001 q 589 1029 589 1018 q 597 1048 589 1040 q 615 1056 604 1056 q 628 1052 622 1056 q 638 1042 635 1049 q 642 1029 642 1036 q 634 1010 642 1018 m 702 1010 q 698 1006 702 1010 q 683 1001 694 1001 q 665 1010 672 1001 q 657 1029 657 1018 q 665 1048 657 1040 q 683 1056 672 1056 q 702 1048 694 1056 q 710 1029 710 1040 q 702 1010 710 1018 z "},"Å":{"ha":996,"x_min":39,"x_max":964,"o":"m 928 131 q 951 138 940 143 q 961 115 963 133 q 924 44 957 82 q 833 1 892 7 q 811 0 821 0 q 704 40 749 0 q 655 111 675 67 q 625 206 635 156 q 610 316 615 257 q 604 429 604 375 q 604 536 604 483 q 539 526 574 532 q 454 517 496 519 q 450 504 453 513 q 389 354 432 443 q 336 254 361 292 q 208 149 271 160 q 94 178 139 138 q 42 317 39 226 q 97 446 44 397 q 222 485 147 490 l 235 483 l 251 365 l 233 365 q 225 365 231 365 q 207 362 219 364 q 182 356 194 360 q 156 343 169 351 q 133 324 143 335 q 122 250 113 296 q 178 196 132 203 q 253 216 213 190 q 328 304 293 242 q 357 363 343 332 q 419 514 385 422 q 389 514 403 514 q 303 519 343 514 q 242 533 264 525 q 203 551 221 542 q 181 566 186 561 q 174 574 176 571 l 167 583 l 232 679 l 246 661 q 263 644 251 654 q 310 613 274 633 q 390 583 347 592 q 443 578 413 579 q 508 768 471 656 q 568 924 547 882 q 604 971 589 967 q 625 971 615 975 q 650 916 643 961 q 665 733 657 871 q 675 592 671 647 q 760 601 738 600 q 838 593 800 603 q 895 572 875 583 q 918 554 915 561 l 922 543 l 906 528 l 894 533 q 819 554 860 551 q 678 546 778 557 q 683 474 681 514 q 722 240 697 325 q 774 128 746 156 q 846 99 803 100 q 928 131 894 97 m 607 782 q 607 929 611 899 q 539 758 583 890 q 476 575 504 656 q 606 583 533 575 q 604 665 606 642 q 607 782 603 694 m 619 1004 q 590 1014 603 1004 q 570 1047 574 1026 q 578 1083 567 1067 q 611 1103 590 1100 q 649 1095 632 1107 q 669 1063 665 1083 q 660 1025 672 1042 q 619 1004 644 1004 m 603 1067 q 607 1038 590 1050 q 636 1043 624 1026 q 639 1058 640 1050 q 631 1072 638 1067 q 615 1075 624 1076 q 603 1067 607 1074 z "},"Æ":{"ha":1346,"x_min":49,"x_max":1292,"o":"m 1229 276 q 1251 276 1240 286 q 1251 254 1263 265 q 1219 224 1238 239 q 1035 82 1125 138 q 943 33 990 51 q 871 10 906 18 q 854 7 864 8 q 843 6 849 6 q 842 6 842 6 q 817 3 826 3 q 808 4 814 3 q 708 50 743 7 q 708 51 708 51 q 707 53 707 51 q 653 144 674 88 q 624 275 632 200 q 615 406 617 350 q 614 540 613 463 q 549 531 583 536 q 464 521 506 524 q 460 508 464 519 q 399 358 442 447 q 346 258 371 296 q 218 153 281 164 q 104 182 149 142 q 51 321 49 231 q 107 450 54 401 q 232 489 157 494 l 244 488 l 261 369 l 243 369 q 223 368 236 369 q 183 356 210 367 q 144 328 157 346 q 132 254 122 300 q 188 200 142 207 q 263 220 222 194 q 338 308 304 246 q 367 367 353 336 q 429 518 394 426 q 399 518 413 518 q 313 524 353 518 q 252 538 274 529 q 213 556 231 546 q 191 570 196 565 q 183 578 186 575 l 176 588 l 242 683 l 256 665 q 261 658 257 663 q 279 643 265 654 q 308 622 293 632 q 349 603 324 613 q 400 588 374 593 q 453 582 422 583 q 518 772 481 660 q 578 928 557 886 q 614 975 599 971 q 635 974 625 979 q 661 917 653 965 q 739 894 697 901 q 726 928 732 918 q 726 942 722 935 q 738 951 729 949 l 849 971 q 867 958 864 972 q 876 897 872 933 q 953 915 915 904 q 1199 922 1121 964 q 1267 829 1249 894 q 1232 667 1290 742 q 1096 596 1175 596 q 1082 607 1086 596 l 1054 693 q 1056 706 1051 700 q 1069 713 1061 713 q 1075 713 1071 713 q 1090 716 1079 714 q 1111 721 1100 718 q 1135 729 1122 724 q 1160 742 1149 735 q 1183 762 1172 750 q 1199 788 1193 774 q 1192 868 1219 835 q 1044 899 1149 919 q 926 865 999 889 q 879 850 897 854 q 863 657 882 751 q 849 597 857 633 q 902 577 879 589 q 928 558 925 565 l 932 547 l 915 532 l 904 538 q 839 557 874 553 q 829 521 832 529 q 807 431 826 511 q 764 174 765 265 q 813 56 763 81 q 839 49 824 50 q 938 65 881 43 q 1021 110 976 82 l 1021 111 q 1197 246 1129 186 q 1229 276 1214 261 m 617 786 q 618 896 619 861 q 610 906 615 900 l 606 911 q 549 763 583 864 q 486 579 514 660 q 615 588 543 579 q 615 669 615 646 q 617 786 613 699 m 717 513 q 725 554 722 540 q 688 550 706 553 q 694 478 690 517 q 699 428 696 454 q 707 467 703 446 q 714 500 711 488 q 717 513 717 513 m 744 661 q 750 833 758 757 q 668 856 703 836 q 675 738 671 821 q 685 596 681 651 q 735 603 717 600 q 744 661 742 639 z "},"Ç":{"ha":753,"x_min":18,"x_max":783,"o":"m 746 471 q 768 478 754 485 q 775 456 782 471 q 761 433 771 449 q 524 122 657 250 q 488 89 506 104 q 481 83 483 86 q 290 1 382 0 q 261 0 275 0 q 254 0 260 0 q 249 0 251 0 q 243 -11 246 -7 q 232 -32 235 -26 q 283 -87 276 -54 q 257 -153 293 -132 q 225 -161 243 -161 q 161 -133 193 -161 q 159 -106 146 -121 q 188 -104 172 -90 q 236 -118 217 -129 q 244 -95 247 -111 q 206 -64 240 -79 q 190 -47 194 -58 q 207 6 185 -31 q 108 75 146 21 q 86 457 19 206 q 158 674 118 581 q 235 824 197 768 q 315 914 274 879 q 392 960 357 949 q 463 972 426 972 q 490 971 478 972 q 506 968 499 971 q 525 961 515 967 q 575 925 556 950 q 601 683 635 853 q 582 617 594 649 q 557 567 569 586 q 530 533 544 549 q 509 513 515 518 q 500 507 503 508 q 481 508 489 500 l 400 581 q 395 597 392 588 q 408 608 399 607 q 426 613 415 610 q 465 638 438 617 q 511 694 492 660 q 546 893 581 813 q 513 932 535 919 q 488 939 501 936 q 436 921 463 938 q 288 728 360 872 q 176 406 215 585 q 162 176 147 269 q 232 49 176 82 q 290 33 257 33 q 458 107 376 42 q 460 107 460 107 q 506 149 483 128 q 531 176 518 163 q 732 447 658 321 q 746 471 742 461 z "},"È":{"ha":794,"x_min":35,"x_max":735,"o":"m 672 275 q 694 275 683 286 q 695 253 706 264 q 664 224 685 242 q 479 81 568 138 q 388 32 433 50 q 261 3 317 3 q 251 3 257 3 q 151 50 186 6 q 133 386 86 132 q 88 363 107 374 q 72 357 81 357 q 49 371 58 357 q 40 425 36 388 q 61 475 43 463 q 158 503 81 489 q 159 508 158 504 q 160 511 160 511 q 189 660 183 619 q 193 832 201 757 q 124 849 154 835 q 82 874 94 863 q 53 906 69 886 l 49 910 q 47 933 38 922 q 71 933 57 943 q 182 894 115 904 q 169 926 176 917 q 170 941 167 933 q 181 950 174 949 l 292 969 q 311 957 307 972 q 319 897 315 933 q 397 914 358 903 q 642 921 564 963 q 710 828 692 894 q 675 665 735 742 q 540 596 619 596 q 525 606 529 596 l 497 692 q 500 706 496 699 q 513 713 504 713 q 524 713 515 713 q 550 718 532 714 q 584 730 568 722 q 617 752 600 738 q 643 788 635 767 q 635 868 663 835 q 488 897 592 918 q 369 864 442 888 q 322 849 339 854 q 306 656 325 750 q 274 519 296 610 q 418 531 361 531 q 459 517 438 531 q 482 489 481 504 q 476 476 482 482 q 461 471 471 471 q 250 431 367 465 q 208 172 210 265 q 219 97 207 126 q 256 56 231 68 q 381 64 301 32 q 464 110 419 82 q 465 110 464 110 q 640 244 572 185 q 672 275 657 260 m 407 1006 q 401 1013 404 1007 q 390 1034 399 1018 q 364 1068 381 1050 q 356 1093 350 1085 q 379 1106 361 1104 q 408 1094 397 1107 q 421 1064 415 1086 q 426 1026 426 1042 q 419 1012 426 1018 q 407 1006 413 1006 z "},"É":{"ha":783,"x_min":35,"x_max":735,"o":"m 672 275 q 694 275 683 286 q 695 253 706 264 q 664 224 685 242 q 479 81 568 138 q 388 32 433 50 q 261 3 317 3 q 251 3 257 3 q 151 50 186 6 q 133 386 86 132 q 88 363 107 374 q 72 357 81 357 q 49 371 58 357 q 40 425 36 388 q 61 475 43 463 q 158 503 81 489 q 159 508 158 504 q 160 511 160 511 q 189 660 183 618 q 193 832 201 757 q 124 849 154 835 q 82 874 94 863 q 53 906 69 886 l 49 910 q 48 933 39 922 q 71 933 57 943 q 182 894 115 904 q 169 926 176 915 q 170 941 167 933 q 181 950 174 949 l 292 969 q 311 957 307 972 q 319 897 315 935 q 397 914 358 903 q 642 921 564 963 q 710 828 692 894 q 675 665 735 742 q 540 596 619 596 q 525 606 529 596 l 497 692 q 500 706 496 699 q 513 713 504 713 q 524 713 515 713 q 550 718 532 714 q 584 730 568 722 q 617 752 600 738 q 643 788 635 767 q 635 868 663 835 q 488 897 592 918 q 369 864 442 888 q 322 849 339 854 q 306 656 325 750 q 274 519 296 608 q 418 531 361 531 q 459 517 438 531 q 482 489 481 504 q 476 476 482 482 q 461 471 471 471 q 250 431 367 465 q 208 172 210 265 q 256 56 207 81 q 381 64 301 32 q 464 110 419 82 q 465 110 464 110 q 640 244 572 185 q 672 275 657 261 m 426 1006 q 415 1012 421 1006 q 408 1026 408 1018 q 411 1051 408 1036 q 417 1077 414 1065 q 425 1094 421 1089 q 454 1106 436 1107 q 479 1093 472 1104 q 469 1068 485 1085 q 445 1034 454 1050 q 433 1013 436 1018 q 426 1006 431 1007 z "},"Ê":{"ha":806,"x_min":35,"x_max":735,"o":"m 672 275 q 694 275 683 286 q 695 253 706 264 q 664 224 685 242 q 479 81 568 138 q 388 32 433 50 q 261 3 317 3 q 251 3 257 3 q 151 50 186 6 q 133 386 86 132 q 88 363 107 374 q 72 357 81 357 q 49 371 58 357 q 40 425 36 388 q 61 475 43 463 q 158 503 81 489 q 159 508 158 504 q 160 511 160 511 q 189 660 183 618 q 193 832 201 757 q 124 849 154 835 q 82 874 94 863 q 53 906 69 886 l 49 910 q 48 933 39 922 q 71 933 57 943 q 182 894 115 904 q 169 926 176 915 q 170 941 167 933 q 181 950 174 949 l 292 969 q 311 957 307 972 q 319 897 315 935 q 397 914 358 903 q 642 921 564 963 q 710 828 692 894 q 675 665 735 742 q 540 596 619 596 q 525 606 529 596 l 497 692 q 500 706 496 699 q 513 713 504 713 q 524 713 515 713 q 550 718 532 714 q 584 730 568 722 q 617 752 600 738 q 643 788 635 767 q 635 868 663 835 q 488 897 592 918 q 369 864 442 888 q 322 849 339 854 q 306 656 325 750 q 274 519 296 608 q 418 531 361 531 q 459 517 438 531 q 482 489 481 504 q 476 476 482 482 q 461 471 471 471 q 250 431 367 465 q 208 172 210 265 q 256 56 207 81 q 381 64 301 32 q 464 110 419 82 q 465 110 464 110 q 640 244 572 185 q 672 275 657 261 m 404 999 l 400 1000 q 393 1019 388 1007 q 416 1067 407 1051 q 429 1085 425 1082 q 438 1088 433 1088 q 447 1085 443 1088 q 460 1067 451 1082 q 482 1019 468 1051 q 475 1000 488 1007 q 465 999 471 997 q 457 1007 458 1001 q 438 1035 446 1032 q 419 1007 429 1028 q 407 999 415 999 l 404 999 z "},"Ë":{"ha":774,"x_min":35,"x_max":735,"o":"m 672 275 q 694 275 683 286 q 695 253 706 264 q 664 224 685 242 q 479 81 568 138 q 388 32 433 50 q 261 3 317 3 q 251 3 257 3 q 151 50 186 6 q 133 386 86 132 q 88 363 107 374 q 72 357 81 357 q 49 371 58 357 q 40 425 36 388 q 61 475 43 463 q 158 503 81 489 q 159 508 158 504 q 160 511 160 511 q 189 660 183 618 q 193 832 201 757 q 124 849 154 835 q 82 874 94 863 q 53 906 69 886 l 49 910 q 48 933 39 922 q 71 933 57 943 q 182 894 115 904 q 169 926 176 915 q 170 941 167 933 q 181 950 174 949 l 292 969 q 311 957 307 972 q 319 897 315 935 q 397 914 358 903 q 642 921 564 963 q 710 828 692 894 q 675 665 735 742 q 540 596 619 596 q 525 606 529 596 l 497 692 q 500 706 496 699 q 513 713 504 713 q 524 713 515 713 q 550 718 532 714 q 584 730 568 722 q 617 752 600 738 q 643 788 635 767 q 635 868 663 835 q 488 897 592 918 q 369 864 442 888 q 322 849 339 854 q 306 656 325 750 q 274 519 296 608 q 418 531 361 531 q 459 517 438 531 q 482 489 481 504 q 476 476 482 482 q 461 471 471 471 q 250 431 367 465 q 208 172 210 265 q 256 56 207 81 q 381 64 301 32 q 464 110 419 82 q 465 110 464 110 q 640 244 572 185 q 672 275 657 261 m 433 1010 q 429 1006 433 1010 q 414 1001 425 1001 q 395 1010 403 1001 q 388 1029 388 1018 q 395 1048 388 1040 q 414 1056 403 1056 q 433 1048 425 1056 q 440 1029 440 1040 q 433 1010 440 1018 m 501 1010 q 497 1006 501 1010 q 482 1001 493 1001 q 463 1010 471 1001 q 456 1029 456 1018 q 463 1048 456 1040 q 482 1056 471 1056 q 501 1048 493 1056 q 508 1029 508 1040 q 501 1010 508 1018 z "},"Ì":{"ha":578,"x_min":13,"x_max":503,"o":"m 432 193 q 439 31 411 79 q 439 10 446 18 q 426 3 435 3 q 421 3 424 3 q 347 52 385 11 q 306 140 310 93 q 308 195 303 164 q 321 249 314 226 q 344 318 328 272 q 417 614 404 490 q 363 893 439 807 q 271 939 326 935 q 250 940 260 940 q 200 932 225 939 q 111 879 147 918 q 63 732 64 825 q 131 571 61 603 q 167 564 151 563 q 192 572 183 565 q 209 612 210 588 q 203 647 208 636 q 193 664 199 657 l 182 679 l 300 735 l 307 722 q 335 643 331 688 q 324 561 339 599 q 225 481 297 496 q 86 518 143 464 q 29 622 46 557 q 24 763 13 688 q 72 882 35 832 q 138 940 97 918 q 256 972 189 972 l 257 972 q 272 972 265 972 q 411 907 356 965 q 496 603 501 814 q 435 208 493 511 l 432 193 m 246 1007 q 239 1014 242 1008 q 227 1035 236 1019 q 203 1069 218 1051 q 193 1094 188 1086 q 218 1107 200 1106 q 247 1096 236 1108 q 258 1065 253 1088 q 264 1028 264 1043 q 258 1013 264 1019 q 246 1007 251 1007 z "},"Í":{"ha":506,"x_min":13,"x_max":503,"o":"m 432 193 q 439 31 411 79 q 439 10 446 18 q 426 3 435 3 q 421 3 424 3 q 347 52 385 11 q 306 140 310 93 q 308 195 303 164 q 321 249 314 226 q 344 318 328 272 q 417 614 404 490 q 363 893 439 807 q 271 939 326 935 q 250 940 260 940 q 200 932 225 939 q 111 879 147 918 q 63 732 64 825 q 131 571 61 603 q 167 564 151 563 q 192 572 183 565 q 209 612 210 588 q 203 647 208 636 q 193 664 199 657 l 182 679 l 300 735 l 307 722 q 335 643 331 688 q 324 561 339 599 q 225 481 297 496 q 86 518 143 464 q 29 622 46 557 q 24 763 13 688 q 72 882 35 832 q 138 940 97 918 q 256 972 189 972 l 257 972 q 272 972 265 972 q 411 907 356 965 q 496 603 501 814 q 435 208 493 511 l 432 193 m 265 1007 q 253 1013 260 1007 q 247 1028 247 1019 q 253 1065 247 1043 q 264 1096 258 1088 q 293 1107 275 1108 q 318 1094 311 1106 q 308 1069 324 1086 q 288 1042 296 1056 q 276 1023 279 1029 q 271 1013 274 1017 q 265 1007 268 1008 z "},"Î":{"ha":568,"x_min":13,"x_max":503,"o":"m 432 193 q 439 31 411 79 q 439 10 446 18 q 426 3 435 3 q 421 3 424 3 q 347 52 385 11 q 306 140 310 93 q 308 195 303 164 q 321 249 314 226 q 344 318 328 272 q 417 614 404 490 q 363 893 439 807 q 271 939 326 935 q 250 940 260 940 q 200 932 225 939 q 111 879 147 918 q 63 732 64 825 q 131 571 61 603 q 167 564 151 563 q 192 572 183 565 q 209 612 210 588 q 203 647 208 636 q 193 664 199 657 l 182 679 l 300 735 l 307 722 q 335 643 331 688 q 324 561 339 599 q 225 481 297 496 q 86 518 143 464 q 29 622 46 557 q 24 763 13 688 q 72 882 35 832 q 138 940 97 918 q 256 972 189 972 l 257 972 q 272 972 265 972 q 411 907 356 965 q 496 603 501 814 q 435 208 493 511 l 432 193 m 224 1000 l 219 1001 q 214 1021 208 1008 q 236 1068 228 1053 q 249 1086 244 1083 q 258 1089 253 1089 q 265 1088 263 1089 q 273 1080 268 1086 q 285 1059 278 1074 q 303 1021 292 1044 q 296 1001 308 1008 q 285 1001 290 999 q 276 1008 279 1003 q 257 1036 265 1033 q 239 1008 249 1029 q 226 1000 235 1000 l 224 1000 z "},"Ï":{"ha":589,"x_min":13,"x_max":503,"o":"m 432 193 q 439 31 411 79 q 439 10 446 18 q 426 3 435 3 q 421 3 424 3 q 347 52 385 11 q 306 140 310 93 q 308 195 303 164 q 321 249 314 226 q 344 318 328 272 q 417 614 404 490 q 363 893 439 807 q 271 939 326 935 q 250 940 260 940 q 200 932 225 939 q 111 879 147 918 q 63 732 64 825 q 131 571 61 603 q 167 564 151 563 q 192 572 183 565 q 209 612 210 588 q 203 647 208 636 q 193 664 199 657 l 182 679 l 300 735 l 307 722 q 335 643 331 688 q 324 561 339 599 q 225 481 297 496 q 86 518 143 464 q 29 622 46 557 q 24 763 13 688 q 72 882 35 832 q 138 940 97 918 q 256 972 189 972 l 257 972 q 272 972 265 972 q 411 907 356 965 q 496 603 501 814 q 435 208 493 511 l 432 193 m 224 1003 q 210 1006 217 1003 q 201 1016 204 1010 q 197 1030 197 1022 q 201 1044 197 1038 q 210 1053 204 1050 q 224 1057 217 1057 q 242 1049 235 1057 q 250 1031 250 1042 q 242 1011 250 1019 q 224 1003 235 1003 m 310 1011 q 307 1007 310 1011 q 292 1003 303 1003 q 273 1011 281 1003 q 265 1031 265 1019 q 269 1044 265 1038 q 278 1053 272 1050 q 292 1057 285 1057 q 305 1053 299 1057 q 315 1044 311 1050 q 318 1031 318 1038 q 310 1011 318 1019 z "},"Ñ":{"ha":1046,"x_min":8,"x_max":1058,"o":"m 1044 456 q 1052 453 1049 456 q 1056 449 1056 451 q 1058 443 1057 446 q 1058 438 1058 440 q 1058 436 1058 436 q 968 142 1024 260 q 825 3 913 3 q 788 10 806 3 q 751 34 767 18 q 728 76 736 50 q 716 126 721 101 q 712 190 711 151 q 714 257 713 229 q 722 329 715 285 q 732 398 728 374 q 743 467 736 422 l 749 496 q 761 574 757 549 q 772 642 765 600 q 781 710 778 685 q 786 765 783 735 q 788 818 789 796 q 785 860 788 840 q 761 908 778 904 q 727 890 749 910 q 681 825 706 871 l 679 825 q 650 769 665 800 q 571 585 608 683 q 512 413 533 486 q 473 267 490 340 q 451 169 456 194 q 443 126 446 143 l 440 111 l 304 125 l 313 154 q 421 608 407 453 q 369 893 440 815 q 322 926 350 915 q 254 938 290 938 q 238 936 246 938 q 212 931 225 935 q 178 919 199 928 q 139 896 157 911 q 103 859 121 881 q 74 804 86 838 q 58 731 63 771 q 117 561 49 597 q 159 553 139 551 q 192 564 179 554 q 211 604 211 579 q 206 640 211 629 q 197 658 201 651 l 188 675 l 303 729 l 311 717 q 336 643 331 688 q 325 556 342 599 q 222 475 299 489 q 82 517 139 458 q 26 623 42 557 q 22 760 10 689 q 90 899 38 843 q 217 967 142 954 q 254 969 236 971 q 258 969 258 971 q 339 954 303 969 q 415 904 383 938 q 500 597 506 811 q 483 428 499 553 q 621 785 543 622 q 702 912 664 871 q 782 958 740 953 q 839 938 817 963 q 847 538 906 867 q 814 328 825 413 q 803 166 803 243 q 825 64 804 89 q 851 51 836 51 q 936 147 890 51 q 939 154 939 154 q 1026 442 993 272 q 1028 447 1026 444 q 1033 453 1029 449 q 1044 456 1038 457 m 524 1000 q 511 1003 514 993 q 517 1019 510 1011 q 553 1042 533 1042 q 588 1032 568 1042 q 618 1024 607 1022 q 636 1031 626 1024 q 647 1039 646 1038 q 658 1032 657 1042 q 651 1015 660 1025 q 615 994 633 994 q 581 1003 601 994 q 554 1013 561 1011 q 524 1000 540 1013 z "},"Ò":{"ha":764,"x_min":-8,"x_max":799,"o":"m 792 481 q 783 460 797 467 q 741 451 769 454 q 663 458 713 449 q 571 496 614 468 q 451 107 554 242 q 368 32 414 58 q 289 4 331 8 q 260 3 274 3 q 131 51 189 3 q 27 213 63 107 q -7 460 -8 318 q 13 651 -7 565 q 63 789 32 736 q 123 873 93 842 q 182 917 153 904 q 238 929 210 929 q 239 929 238 929 q 368 808 325 926 q 394 640 400 726 q 349 503 388 554 q 240 451 307 449 q 135 504 168 456 q 112 580 114 535 q 124 653 110 625 q 140 663 128 664 l 221 653 q 232 646 228 651 q 235 633 236 640 q 240 542 218 571 q 269 528 250 529 q 315 547 297 526 q 350 653 344 579 q 340 772 356 726 q 239 899 310 896 l 238 899 q 197 878 219 899 q 183 864 190 872 q 167 842 176 856 q 150 811 158 829 q 132 770 142 793 q 115 717 122 747 q 101 651 108 686 q 91 569 94 615 q 86 474 88 524 q 110 219 83 324 q 190 67 136 114 q 285 35 232 31 q 346 56 317 40 q 433 144 393 82 q 492 267 472 207 q 524 386 513 326 q 540 518 536 451 q 461 611 494 556 q 381 794 406 704 q 374 933 357 883 q 406 972 383 961 q 453 969 428 982 q 517 893 489 951 q 560 746 544 835 q 574 546 575 653 q 707 483 635 492 q 756 485 732 482 q 758 486 757 486 q 792 481 786 494 m 525 600 q 542 579 533 589 q 512 806 540 707 q 446 933 483 904 q 428 939 436 939 q 421 938 425 939 q 417 931 418 936 q 424 840 408 904 q 469 707 440 775 q 525 600 499 639 m 342 994 q 340 993 342 994 q 333 992 338 992 q 326 999 329 993 q 315 1020 324 1004 q 290 1054 306 1036 q 281 1081 275 1072 q 306 1092 288 1090 q 335 1081 324 1094 q 346 1050 340 1072 q 351 1013 351 1028 q 349 1002 351 1007 q 342 994 346 997 z "},"Ó":{"ha":764,"x_min":-8,"x_max":799,"o":"m 792 481 q 783 460 797 467 q 741 451 769 454 q 663 458 713 449 q 571 496 614 468 q 451 107 554 242 q 368 32 414 58 q 289 4 331 8 q 260 3 274 3 q 131 51 189 3 q 27 213 63 107 q -7 460 -8 318 q 13 651 -7 565 q 63 789 32 736 q 123 873 93 842 q 182 917 153 904 q 238 929 210 929 q 239 929 238 929 q 368 808 325 926 q 394 640 400 726 q 349 503 388 554 q 240 451 307 449 q 135 504 168 456 q 112 580 114 535 q 124 653 110 625 q 140 663 128 664 l 221 653 q 232 646 228 651 q 235 633 236 640 q 240 542 218 571 q 269 528 250 529 q 315 547 297 526 q 350 653 344 579 q 340 772 356 726 q 239 899 310 896 l 238 899 q 197 878 219 899 q 167 840 182 864 q 133 772 151 817 q 101 649 114 726 q 86 474 88 571 q 110 219 83 324 q 190 67 136 114 q 285 35 232 31 q 346 56 317 40 q 433 144 393 82 q 492 267 472 207 q 524 386 513 326 q 540 518 536 451 q 461 611 494 556 q 381 794 406 704 q 374 933 357 883 q 406 972 383 961 q 453 969 428 982 q 517 893 489 951 q 560 746 544 835 q 574 546 575 653 q 707 483 635 492 q 756 485 732 482 q 758 486 757 486 q 792 481 786 494 m 526 600 q 542 579 533 589 q 512 806 540 707 q 446 933 483 904 q 428 939 436 939 q 421 938 425 939 q 417 931 418 936 q 424 840 408 904 q 469 707 440 775 q 526 600 499 639 m 326 993 q 313 998 319 992 q 307 1013 307 1004 q 310 1037 307 1022 q 317 1063 313 1051 q 325 1081 321 1075 q 353 1092 335 1094 q 378 1081 371 1090 q 368 1054 383 1072 q 344 1021 353 1036 q 332 999 335 1006 q 326 993 329 993 z "},"Ô":{"ha":764,"x_min":-8,"x_max":799,"o":"m 792 481 q 783 460 797 467 q 741 451 769 454 q 663 458 713 449 q 571 496 614 468 q 451 107 554 242 q 368 32 414 58 q 289 4 331 8 q 260 3 274 3 q 131 51 189 3 q 27 213 63 107 q -7 460 -8 318 q 13 651 -7 565 q 63 789 32 736 q 123 873 93 842 q 182 917 153 904 q 238 929 210 929 q 239 929 238 929 q 368 808 325 926 q 394 640 400 726 q 349 503 388 554 q 240 451 307 449 q 135 504 168 456 q 112 580 114 535 q 124 653 110 625 q 140 663 128 664 l 221 653 q 232 646 228 651 q 235 633 236 640 q 240 542 218 571 q 269 528 250 529 q 315 547 297 526 q 350 653 344 579 q 340 772 356 726 q 239 899 310 896 l 238 899 q 197 878 219 899 q 167 840 182 864 q 133 772 151 817 q 101 649 114 726 q 86 474 88 571 q 110 219 83 324 q 190 67 136 114 q 285 35 232 31 q 346 56 317 40 q 433 144 393 82 q 492 267 472 207 q 524 386 513 326 q 540 518 536 451 q 461 611 494 556 q 381 794 406 704 q 374 933 357 883 q 406 972 383 961 q 453 969 428 982 q 517 893 489 951 q 560 746 544 835 q 574 546 575 653 q 707 483 635 492 q 756 485 732 482 q 758 486 757 486 q 792 481 786 494 m 525 600 q 542 579 533 590 q 512 806 540 707 q 446 933 483 904 q 428 939 436 939 q 421 938 425 939 q 417 931 418 936 q 424 840 408 904 q 469 707 440 775 q 525 600 499 639 m 306 997 l 301 1000 q 296 1018 290 1006 q 318 1065 310 1050 q 331 1084 326 1081 q 340 1088 335 1088 q 347 1085 344 1088 q 355 1077 350 1083 q 367 1057 360 1071 q 383 1018 374 1043 q 378 1000 389 1006 q 367 999 372 997 q 358 1007 361 1000 q 339 1035 347 1032 q 321 1006 331 1026 q 308 997 317 997 l 306 997 z "},"Õ":{"ha":764,"x_min":-8,"x_max":799,"o":"m 792 481 q 783 460 797 467 q 741 451 769 454 q 663 458 713 449 q 571 496 614 468 q 451 107 554 242 q 368 32 414 58 q 289 4 331 8 q 260 3 274 3 q 131 51 189 3 q 27 213 63 107 q -7 460 -8 318 q 13 651 -7 565 q 63 789 32 736 q 123 873 93 842 q 182 917 153 904 q 238 929 210 929 q 239 929 238 929 q 368 808 325 926 q 394 640 400 726 q 349 503 388 554 q 240 451 307 449 q 135 504 168 456 q 112 580 114 535 q 124 653 110 625 q 140 663 128 664 l 221 653 q 232 646 228 651 q 235 633 236 640 q 240 542 218 571 q 269 528 250 529 q 315 547 297 526 q 350 653 344 579 q 340 772 356 726 q 239 899 310 896 l 238 899 q 197 878 219 899 q 167 840 182 864 q 133 772 151 817 q 101 649 114 726 q 86 474 88 571 q 110 219 83 324 q 190 67 136 114 q 285 35 232 31 q 346 56 317 40 q 433 144 393 82 q 492 267 472 207 q 524 386 513 326 q 540 518 536 451 q 461 611 494 556 q 381 794 406 704 q 374 933 357 883 q 406 972 383 961 q 453 969 428 982 q 517 893 489 951 q 560 746 544 835 q 574 546 575 653 q 707 483 635 492 q 756 485 732 482 q 758 486 757 486 q 792 481 786 494 m 526 600 q 542 579 533 589 q 512 806 540 707 q 446 933 483 904 q 428 939 436 939 q 421 938 425 939 q 417 931 418 936 q 444 776 404 890 q 526 600 483 661 m 278 1006 q 265 1008 268 999 q 271 1025 264 1017 q 307 1047 288 1047 q 342 1038 324 1047 q 372 1029 361 1028 q 390 1036 381 1029 q 401 1044 400 1043 q 409 1044 406 1046 q 413 1035 413 1042 q 406 1021 413 1029 q 369 1000 389 1000 q 337 1008 357 1000 q 308 1018 317 1017 q 278 1006 294 1018 z "},"Ö":{"ha":764,"x_min":-8,"x_max":799,"o":"m 792 481 q 783 460 797 467 q 741 451 769 454 q 663 458 713 449 q 571 496 614 468 q 451 107 554 242 q 368 32 414 58 q 289 4 331 8 q 260 3 274 3 q 131 51 189 3 q 27 213 63 107 q -7 460 -8 318 q 13 651 -7 565 q 63 789 32 736 q 123 873 93 842 q 182 917 153 904 q 238 929 210 929 q 239 929 238 929 q 368 808 325 926 q 394 640 400 726 q 349 503 388 554 q 240 451 307 449 q 135 504 168 456 q 112 580 114 535 q 124 653 110 625 q 140 663 128 664 l 221 653 q 232 646 228 651 q 235 633 236 640 q 240 542 218 571 q 269 528 250 529 q 315 547 297 526 q 350 653 344 579 q 340 772 356 726 q 239 899 310 896 l 238 899 q 197 878 219 899 q 167 840 182 864 q 133 772 151 817 q 101 649 114 726 q 86 474 88 571 q 110 219 83 324 q 190 67 136 114 q 285 35 232 31 q 346 56 317 40 q 433 144 393 82 q 492 267 472 207 q 524 386 513 326 q 540 518 536 451 q 461 611 494 556 q 381 794 406 704 q 374 933 357 883 q 406 972 383 961 q 453 969 428 982 q 517 893 489 951 q 560 746 544 835 q 574 546 575 653 q 707 483 635 492 q 756 485 732 482 q 758 486 757 486 q 792 481 786 494 m 526 600 q 542 579 533 589 q 512 806 540 707 q 446 933 483 904 q 428 939 436 939 q 421 938 425 939 q 417 931 418 936 q 424 840 408 904 q 469 707 440 775 q 526 600 499 639 m 328 1018 q 324 1014 328 1018 q 309 1010 319 1010 q 291 1018 299 1010 q 283 1038 283 1026 q 291 1056 283 1049 q 309 1064 299 1064 q 328 1056 319 1064 q 336 1038 336 1049 q 328 1018 336 1026 m 395 1018 q 391 1014 395 1018 q 377 1010 388 1010 q 358 1018 367 1010 q 350 1038 350 1026 q 358 1056 350 1049 q 377 1064 367 1064 q 395 1056 388 1064 q 403 1038 403 1049 q 395 1018 403 1026 z "},"×":{"ha":494,"x_min":39,"x_max":451,"o":"m 444 594 q 447 577 450 585 q 431 568 443 569 q 393 554 415 567 q 351 529 371 542 q 293 488 332 517 q 354 394 332 432 q 361 356 363 379 q 349 326 360 333 q 324 333 333 318 q 235 446 290 388 q 172 397 203 421 q 125 360 142 374 q 94 335 108 346 q 72 319 79 324 q 58 314 64 314 q 46 321 49 313 q 67 374 39 338 q 179 499 94 411 q 72 578 119 551 q 67 583 69 581 q 63 613 54 596 q 103 644 72 631 q 153 650 135 658 q 239 560 178 639 q 325 635 293 614 q 382 651 357 656 q 444 594 413 649 m 421 579 l 425 582 l 419 579 l 421 579 z "},"Ø":{"ha":763,"x_min":-8,"x_max":799,"o":"m 792 481 q 783 460 797 467 q 741 451 769 454 q 663 458 713 449 q 571 496 614 468 q 451 107 554 242 q 368 32 414 58 q 289 4 331 8 q 260 3 274 3 q 131 51 189 3 q 122 59 126 54 q 117 65 117 64 l 92 24 q 67 8 83 8 q 51 13 58 8 q 38 31 40 19 q 40 54 35 43 l 75 113 q -7 460 -8 239 q 13 651 -7 565 q 63 789 32 736 q 123 873 93 842 q 182 917 153 904 q 238 929 210 929 q 239 929 238 929 q 368 808 325 926 q 393 651 397 733 l 419 693 q 374 830 386 767 q 374 933 361 893 q 406 972 383 961 q 453 969 428 982 q 525 872 494 949 l 567 942 q 584 956 572 953 q 607 952 596 958 q 621 934 618 946 q 618 911 624 922 l 549 796 q 560 746 556 769 q 574 546 575 653 q 707 483 635 492 q 756 485 732 482 q 758 486 757 486 q 792 481 786 494 m 417 931 q 453 750 403 885 l 503 835 q 446 933 478 910 q 428 939 436 939 q 421 938 425 939 q 417 931 418 936 m 119 188 l 279 457 q 240 451 258 451 q 135 504 168 456 q 112 580 114 535 q 124 653 110 625 q 140 663 128 664 l 221 653 q 232 646 228 651 q 235 633 236 640 q 240 542 218 571 q 269 528 250 529 q 315 547 297 526 q 350 653 344 579 q 340 772 356 726 q 239 899 310 896 l 238 899 q 197 878 219 897 q 167 840 182 864 q 133 772 151 817 q 101 649 114 726 q 86 474 88 571 q 119 188 82 300 m 524 386 q 540 518 536 451 q 461 611 494 556 q 456 622 460 615 q 451 631 451 628 l 149 119 q 190 67 168 86 q 285 35 232 31 q 346 56 317 40 q 460 192 414 94 q 524 386 506 289 m 525 600 q 542 579 533 590 q 524 754 540 672 l 481 681 q 525 600 504 631 z "},"Ù":{"ha":974,"x_min":13,"x_max":929,"o":"m 915 40 q 927 25 926 35 q 919 8 928 15 q 882 3 910 3 q 821 14 846 3 q 724 243 719 64 q 793 751 728 456 q 797 771 793 757 q 717 596 776 726 q 457 63 519 153 q 368 7 419 7 l 367 7 q 301 46 326 8 q 281 98 286 69 q 284 173 276 126 q 301 253 292 219 q 329 358 310 286 q 397 629 376 525 q 406 785 415 715 q 364 894 397 854 q 267 943 328 940 q 257 943 261 943 q 242 943 250 943 q 238 943 239 943 q 236 942 238 943 q 235 942 236 942 l 235 946 l 235 942 l 231 942 q 197 935 214 940 l 193 935 l 193 933 q 191 933 192 933 q 190 933 190 933 q 185 932 189 933 q 104 875 136 914 l 103 875 l 86 888 l 103 874 l 100 872 q 63 739 64 821 q 131 582 61 613 q 167 575 151 574 q 192 583 183 576 q 209 622 210 599 q 203 656 208 646 q 193 674 197 667 l 182 689 l 300 742 l 307 731 q 335 652 331 696 q 324 572 339 608 q 225 493 297 508 q 188 490 206 490 q 86 531 129 490 q 29 633 46 568 q 24 769 13 697 q 75 890 35 840 l 76 893 l 78 894 l 78 896 l 79 896 q 175 961 115 942 q 181 963 178 963 q 185 965 183 964 l 189 967 l 189 967 q 226 974 207 971 l 231 974 q 236 975 233 974 q 239 975 238 975 q 257 975 246 975 q 267 975 263 975 q 407 914 353 971 q 476 615 492 822 q 417 282 469 532 q 397 189 401 214 q 388 117 389 147 q 397 88 388 92 q 419 91 408 85 q 443 117 431 97 q 464 150 456 136 q 488 194 472 164 l 496 213 q 649 550 546 310 q 766 812 729 740 q 826 892 803 883 q 847 889 838 894 q 858 875 854 885 q 860 841 861 865 q 856 790 858 817 q 844 708 853 764 q 828 585 833 632 q 815 459 822 538 q 810 312 808 381 q 819 183 811 243 q 838 119 826 146 q 867 76 850 92 q 892 53 883 60 q 915 40 901 47 m 81 892 l 82 890 l 78 894 l 81 892 m 613 988 q 606 993 608 988 q 594 1015 604 999 q 569 1049 585 1031 q 560 1075 554 1067 q 585 1087 567 1085 q 614 1075 603 1089 q 625 1044 619 1067 q 632 1007 631 1022 q 625 992 632 999 q 613 988 618 986 z "},"Ú":{"ha":974,"x_min":13,"x_max":929,"o":"m 915 40 q 927 26 926 36 q 919 10 928 15 q 882 3 910 3 q 821 15 846 3 q 724 244 719 64 q 793 751 728 457 q 797 771 794 760 q 717 596 776 728 q 457 64 519 154 q 368 8 419 8 l 367 8 q 301 47 326 8 q 281 99 286 69 q 284 174 276 128 q 301 253 292 219 q 329 358 310 288 q 397 629 376 525 q 406 785 415 715 q 364 896 397 854 q 267 944 328 940 q 257 944 261 944 q 242 943 250 944 q 238 943 239 943 q 236 943 238 943 q 235 943 235 943 l 231 942 q 197 936 213 940 l 193 935 l 193 938 l 193 935 q 191 934 192 935 q 190 933 190 933 q 186 932 189 933 q 104 876 136 915 l 103 875 l 86 888 l 103 875 l 100 872 q 63 740 64 822 q 131 582 61 614 q 167 576 151 575 q 192 583 183 576 q 208 622 208 599 q 203 656 208 646 q 193 674 197 667 l 182 689 l 300 743 l 307 732 q 335 652 331 696 q 324 572 339 608 q 225 494 297 510 q 188 490 206 490 q 86 531 129 490 q 29 633 46 568 q 24 771 13 697 q 75 892 35 842 l 76 894 l 78 894 l 78 896 l 79 896 q 175 963 115 942 q 181 964 175 963 q 185 965 182 965 l 189 967 q 226 974 207 972 l 231 975 q 234 975 232 975 q 236 975 236 975 q 239 975 236 975 q 257 976 244 975 q 267 976 263 976 q 407 914 353 972 q 476 615 492 822 q 417 282 471 532 q 397 189 401 215 q 388 117 389 149 q 397 89 388 92 q 419 91 408 85 q 443 116 431 97 q 464 149 456 135 q 486 194 472 164 q 488 196 488 194 l 496 213 q 649 550 546 310 q 766 812 729 740 q 826 892 803 883 q 847 889 838 894 q 858 876 854 885 q 860 842 861 867 q 856 792 858 818 q 844 708 853 765 q 828 586 833 633 q 815 460 822 539 q 810 313 808 382 q 819 185 811 243 q 838 119 826 147 q 867 76 850 92 q 892 53 883 60 q 915 40 901 47 m 81 892 l 82 890 l 78 894 l 81 892 m 646 994 q 644 992 646 994 q 640 988 643 989 q 632 990 636 988 q 624 997 628 992 q 621 1007 621 1003 q 627 1045 621 1024 q 639 1076 633 1067 q 668 1088 650 1089 q 693 1075 686 1086 q 683 1050 697 1067 q 658 1015 667 1031 q 646 994 649 1000 z "},"Û":{"ha":888,"x_min":-3,"x_max":914,"o":"m 900 40 q 912 26 911 36 q 904 10 913 15 q 867 3 894 3 q 806 15 831 3 q 708 243 704 64 q 778 751 713 457 q 782 771 779 758 q 701 596 761 726 q 442 64 504 153 q 353 8 404 8 l 351 8 q 286 46 311 8 q 266 99 271 69 q 269 174 261 128 q 285 253 276 219 q 314 358 294 288 q 382 629 361 525 q 391 785 400 715 q 349 896 382 854 q 251 943 311 940 q 242 944 246 944 q 226 943 235 944 q 224 943 225 943 q 221 943 222 943 q 219 943 219 943 l 215 942 q 182 936 199 940 l 178 935 l 178 938 l 178 935 q 176 934 176 935 q 175 933 175 933 q 171 932 172 933 q 89 876 121 915 l 88 875 l 71 888 l 88 875 l 85 872 q 47 740 49 822 q 115 582 46 614 q 152 576 136 575 q 176 583 168 576 q 194 622 194 599 q 188 656 193 646 q 178 674 182 667 l 167 689 l 285 743 l 292 731 q 319 652 315 696 q 308 572 324 608 q 210 494 282 510 q 172 490 190 490 q 71 531 114 490 q 14 633 31 568 q 8 771 -3 697 q 60 892 19 842 l 61 894 l 63 894 l 63 896 l 64 896 q 160 963 100 942 q 165 964 164 964 q 169 965 167 965 l 174 967 l 174 967 q 211 974 192 972 l 215 975 q 221 975 218 975 q 222 975 221 975 q 224 975 224 975 q 242 976 231 975 q 251 975 247 976 q 392 914 338 972 q 461 615 476 822 q 401 282 456 532 q 382 189 386 214 q 372 117 374 147 q 382 89 372 92 q 404 91 393 85 q 428 117 415 97 q 449 151 440 136 q 472 196 457 165 l 481 213 q 633 550 531 310 q 751 812 715 740 q 811 892 788 883 q 832 889 822 894 q 845 843 846 872 q 829 708 844 814 q 813 586 818 633 q 800 460 807 539 q 794 313 793 382 q 804 185 796 243 q 823 119 811 147 q 851 76 835 92 q 877 53 868 60 q 900 40 886 47 m 65 892 l 67 890 l 63 894 l 65 892 m 557 988 l 553 989 q 546 1008 540 996 q 569 1056 560 1040 q 582 1074 578 1071 q 591 1076 586 1076 q 600 1074 596 1076 q 613 1055 604 1071 q 635 1008 621 1039 q 628 989 640 994 q 622 988 625 988 q 618 989 619 988 q 610 996 611 990 q 590 1024 599 1021 q 572 996 581 1015 q 560 988 568 988 l 557 988 z "},"Ü":{"ha":889,"x_min":-3,"x_max":914,"o":"m 900 40 q 912 26 911 36 q 904 10 913 15 q 867 3 894 3 q 806 15 831 3 q 708 244 704 64 q 778 751 713 457 q 782 771 779 763 q 701 596 760 726 q 442 64 504 153 q 353 8 404 8 l 351 8 q 286 47 311 8 q 271 81 276 63 q 266 124 265 99 q 269 169 267 149 q 279 227 271 190 q 294 287 288 264 q 314 358 300 310 q 382 629 361 525 q 391 785 400 715 q 349 896 382 854 q 251 943 311 940 q 242 944 246 944 q 226 943 235 944 q 224 943 225 943 q 221 943 222 943 q 219 943 219 943 l 219 946 l 219 943 l 215 942 q 182 936 199 940 l 178 935 q 176 934 176 935 q 175 933 175 933 q 169 932 172 933 q 89 876 121 915 l 88 875 l 71 888 l 88 875 l 85 872 q 47 740 49 822 q 115 582 46 614 q 152 576 136 575 q 176 583 168 576 q 193 622 193 599 q 188 656 193 646 q 178 674 182 667 l 167 689 l 285 743 l 292 731 q 319 652 315 696 q 308 572 324 608 q 210 494 282 510 q 172 490 190 490 q 71 531 114 490 q 14 633 31 568 q 8 771 -3 697 q 60 892 19 840 l 61 894 l 63 894 l 63 896 l 64 896 q 160 963 100 942 q 165 964 163 964 q 167 965 165 964 q 169 965 168 965 l 174 967 l 174 967 q 211 974 192 971 l 215 975 q 221 975 218 975 q 224 975 222 975 q 242 976 231 975 q 251 975 247 976 q 392 914 338 972 q 461 615 476 822 q 401 282 456 532 q 382 189 386 214 q 372 117 374 147 q 382 89 372 92 q 404 91 393 85 q 428 117 415 97 q 449 151 440 136 q 472 196 457 165 l 481 213 q 633 550 531 310 q 751 812 715 740 q 811 892 788 883 q 832 889 822 894 q 845 843 846 872 q 829 708 844 814 q 813 586 818 633 q 800 460 807 539 q 794 313 793 382 q 804 185 796 243 q 823 119 811 147 q 851 76 835 92 q 877 53 868 60 q 900 40 886 47 m 65 892 l 67 890 l 63 894 l 65 892 m 609 985 q 605 982 609 985 q 591 978 601 978 q 572 985 581 978 q 564 1005 564 993 q 572 1024 564 1017 q 590 1032 581 1032 q 601 1030 596 1032 q 609 1024 606 1028 q 615 1016 613 1021 q 617 1006 617 1011 q 609 985 617 993 m 658 978 q 640 985 647 978 q 632 1005 632 993 q 640 1024 632 1017 q 658 1032 647 1032 q 677 1024 669 1032 q 685 1006 685 1017 q 681 991 685 997 q 672 981 678 985 q 658 978 665 978 z "},"Ý":{"ha":742,"x_min":-3,"x_max":781,"o":"m 763 907 q 775 892 771 903 q 776 818 779 881 q 754 643 774 756 l 754 639 q 729 495 739 547 q 695 359 719 443 q 639 208 671 275 q 354 3 543 3 l 353 3 q 201 58 264 3 q 114 213 138 113 l 110 224 l 122 231 q 147 219 135 236 q 317 121 221 128 q 438 144 382 118 q 532 217 493 169 q 597 317 571 265 q 643 429 622 368 q 710 703 689 568 q 568 399 651 546 q 440 288 510 297 q 365 313 396 282 q 335 360 344 333 q 331 424 326 386 q 341 488 335 463 q 361 564 347 514 q 382 646 376 618 q 393 794 401 728 q 350 901 385 861 q 247 950 311 949 q 242 950 243 950 q 226 950 235 950 q 226 950 226 950 q 224 950 225 950 q 221 950 222 950 l 219 950 l 215 949 q 182 943 197 947 l 178 942 l 176 942 q 176 941 176 942 q 174 940 175 940 q 174 940 174 940 q 171 939 171 939 q 89 885 121 922 l 88 883 l 68 897 l 88 883 l 85 881 q 47 753 49 832 q 115 600 46 629 q 152 593 136 592 q 176 601 168 594 q 194 639 194 617 q 188 672 193 661 q 178 688 183 682 l 167 703 l 285 756 l 292 744 q 319 667 315 710 q 308 590 324 625 q 210 514 282 529 q 172 510 190 510 q 71 550 114 510 q 14 649 31 586 q 8 782 -3 711 q 60 899 19 850 l 60 900 l 61 901 l 61 903 l 63 903 l 63 904 l 64 904 q 160 968 100 949 l 160 968 q 164 969 163 969 q 169 971 167 971 l 174 972 q 211 979 192 978 l 211 979 l 215 981 l 215 981 q 222 981 217 981 q 224 981 222 981 l 224 981 l 225 981 q 242 982 233 982 q 249 982 244 982 q 417 911 356 979 q 472 640 497 824 q 449 493 464 571 q 438 426 442 449 q 443 367 431 382 q 461 360 450 360 q 560 465 504 357 q 694 821 642 626 q 708 869 703 856 q 719 895 713 883 q 736 911 726 907 q 763 907 749 915 m 579 958 q 567 963 574 957 q 561 978 561 969 q 567 1015 561 993 q 578 1046 572 1038 q 607 1058 589 1060 q 632 1046 625 1056 q 622 1019 638 1038 q 598 986 607 1001 q 586 965 589 971 q 579 958 583 958 z "},"à":{"ha":488,"x_min":-50,"x_max":525,"o":"m 193 776 q 186 783 189 778 q 174 805 183 789 q 150 839 165 821 q 140 864 135 856 q 165 876 147 875 q 194 865 183 878 q 206 835 200 857 q 211 797 211 813 q 205 782 211 789 q 193 776 199 775 m 485 569 q 508 581 490 586 q 519 558 525 575 q 493 475 510 528 q 439 325 457 363 q 351 244 410 257 q 333 243 342 243 q 276 265 299 243 q 219 450 221 317 q 40 246 138 246 q 24 249 32 246 q -25 289 -6 253 q -47 393 -49 331 q -18 526 -46 456 q 281 729 63 739 q 289 729 286 729 q 289 729 289 729 q 290 729 289 729 q 302 722 297 728 q 306 710 307 717 q 306 415 296 615 q 313 357 308 381 q 323 322 318 333 q 335 303 328 310 q 347 297 343 297 q 358 296 351 296 q 404 338 382 296 q 405 338 404 338 q 406 339 406 339 q 458 486 424 374 q 485 569 475 538 m 236 621 q 249 679 240 647 q 146 612 196 668 q 63 450 96 556 q 47 373 49 406 q 50 326 44 340 q 64 306 56 311 q 106 319 81 296 q 106 320 106 319 q 108 321 107 321 q 196 490 153 372 q 236 621 218 550 z "},"á":{"ha":481,"x_min":-57,"x_max":518,"o":"m 192 776 q 179 782 186 775 q 172 797 172 789 q 178 835 172 813 q 190 865 185 857 q 219 876 201 878 q 244 864 238 875 q 235 839 250 856 q 214 811 222 824 q 203 792 206 799 q 197 781 200 785 q 192 776 194 778 m 478 569 q 501 581 483 586 q 513 558 518 575 q 486 475 503 528 q 432 325 450 363 q 344 244 403 257 q 326 243 335 243 q 269 265 292 243 q 213 450 214 317 q 33 246 131 246 q 17 249 25 246 q -32 289 -12 253 q -54 393 -56 331 q -25 526 -53 456 q 274 729 56 739 q 282 729 279 729 q 283 729 282 729 q 283 729 283 729 q 295 722 290 728 q 299 710 300 717 q 299 415 289 614 q 306 357 301 381 q 316 322 311 333 q 328 303 321 310 q 340 297 336 297 q 351 296 344 296 q 397 338 375 296 q 399 339 397 338 q 451 486 417 374 q 478 569 468 538 m 229 621 q 242 679 233 649 q 176 649 208 672 q 111 574 144 625 q 56 450 78 522 q 40 373 42 406 q 43 326 38 340 q 57 306 49 311 q 99 319 74 296 q 99 320 99 319 q 101 321 100 321 q 190 490 146 372 q 229 621 213 550 z "},"â":{"ha":488,"x_min":-50,"x_max":525,"o":"m 157 769 l 153 771 q 146 789 140 776 q 169 836 161 821 q 182 855 178 851 q 192 858 186 858 q 201 855 197 858 q 213 836 204 851 q 235 789 221 821 q 229 771 240 776 q 218 770 224 768 q 210 778 213 772 q 190 806 199 803 q 172 778 182 797 q 160 769 168 769 l 157 769 m 485 569 q 508 581 490 586 q 519 558 525 575 q 493 475 510 528 q 439 325 457 363 q 351 244 410 257 q 333 243 342 243 q 276 265 299 243 q 219 450 221 317 q 40 246 138 246 q 24 249 32 246 q -25 289 -6 253 q -47 393 -49 331 q -18 526 -46 456 q 281 729 63 739 q 289 729 286 729 q 290 729 289 729 q 290 729 290 729 q 302 722 297 728 q 306 710 307 717 q 306 415 296 614 q 313 357 308 381 q 323 322 318 333 q 335 303 328 310 q 347 297 343 297 q 358 296 351 296 q 404 338 382 296 q 406 339 404 338 q 458 486 424 374 q 485 569 475 538 m 236 621 q 249 679 240 649 q 183 649 215 672 q 117 574 150 625 q 63 450 85 522 q 47 373 49 406 q 50 326 44 340 q 64 306 56 311 q 106 319 81 296 q 106 320 106 319 q 108 321 107 321 q 196 490 153 372 q 236 621 218 550 z "},"ã":{"ha":481,"x_min":-57,"x_max":518,"o":"m 140 792 q 128 794 131 785 q 132 811 125 801 q 168 833 150 833 q 204 824 185 833 q 233 814 224 814 q 252 822 243 815 q 263 829 261 829 q 271 829 267 832 q 275 820 275 826 q 268 807 275 814 q 231 786 250 786 q 198 794 218 786 q 171 804 178 803 q 140 792 157 804 m 478 569 q 501 581 483 586 q 513 558 518 575 q 486 475 503 528 q 432 325 450 363 q 344 244 403 257 q 326 243 335 243 q 269 265 292 243 q 213 450 214 317 q 35 246 131 246 q 17 249 25 246 q -32 289 -12 253 q -54 393 -56 331 q -25 526 -53 456 q 274 729 56 739 q 282 729 279 729 q 282 729 282 729 q 283 729 282 729 q 295 722 290 728 q 299 710 300 717 q 299 415 289 614 q 306 357 301 381 q 315 322 310 333 q 328 303 321 310 q 340 297 336 297 q 351 296 344 296 q 397 338 375 296 q 399 339 397 338 q 451 486 417 374 q 478 569 468 538 m 229 621 q 242 679 233 649 q 139 612 189 668 q 56 450 89 556 q 40 373 42 406 q 43 326 38 340 q 57 306 49 311 q 99 319 74 296 q 100 321 99 319 q 189 490 146 372 q 229 621 211 550 z "},"ä":{"ha":481,"x_min":-57,"x_max":518,"o":"m 180 780 q 176 776 180 780 q 162 772 172 772 q 143 780 151 772 q 135 799 135 788 q 143 819 135 811 q 161 826 151 826 q 172 824 167 826 q 180 819 176 822 q 185 810 183 815 q 188 800 188 804 q 180 780 188 788 m 248 780 q 244 776 248 780 q 229 772 240 772 q 210 780 218 772 q 203 799 203 788 q 210 819 203 811 q 229 826 218 826 q 240 824 235 826 q 248 819 244 822 q 253 810 251 815 q 256 800 256 804 q 248 780 256 788 m 478 569 q 501 581 483 586 q 513 558 518 575 q 486 475 503 528 q 432 325 450 363 q 344 244 403 257 q 326 243 335 243 q 269 265 292 243 q 213 450 214 317 q 33 246 131 246 q 17 249 25 246 q -32 289 -12 253 q -54 393 -56 331 q -25 526 -53 456 q 274 729 56 739 q 282 729 279 729 q 282 729 282 729 q 283 729 282 729 q 295 722 290 728 q 299 710 300 717 q 299 415 289 614 q 306 357 301 381 q 316 322 311 333 q 328 303 321 310 q 340 297 336 297 q 351 296 344 296 q 397 338 375 296 q 399 339 397 338 q 451 486 417 374 q 478 569 468 538 m 229 621 q 242 679 233 649 q 139 612 189 668 q 56 450 89 556 q 40 373 42 406 q 43 326 38 340 q 57 306 49 311 q 99 319 74 296 q 99 320 99 319 q 101 321 100 321 q 189 490 146 372 q 229 621 211 550 z "},"å":{"ha":488,"x_min":-50,"x_max":525,"o":"m 186 772 q 157 781 171 772 q 137 814 140 793 q 146 851 133 835 q 178 872 158 868 q 215 863 199 875 q 235 830 232 850 q 226 793 239 810 q 186 772 213 772 m 183 842 q 170 833 175 840 q 167 818 165 826 q 175 806 168 810 q 203 810 190 794 q 207 825 208 817 q 199 839 206 833 q 186 842 193 842 q 183 842 185 842 m 485 569 q 508 581 490 586 q 519 558 525 575 q 493 475 510 528 q 439 325 457 363 q 351 244 410 257 q 333 243 342 243 q 276 265 299 243 q 219 450 221 317 q 40 246 138 246 q 24 249 32 246 q -25 289 -6 253 q -47 393 -49 331 q -18 526 -46 456 q 281 729 63 739 q 289 729 286 729 q 290 729 289 729 q 290 729 290 729 q 302 722 297 728 q 306 710 307 717 q 306 415 296 614 q 313 357 308 381 q 323 322 318 333 q 335 303 328 310 q 347 297 343 297 q 358 296 351 296 q 404 338 382 296 q 406 339 404 338 q 458 486 424 374 q 485 569 475 538 m 236 621 q 249 679 240 647 q 146 612 196 668 q 63 450 96 556 q 47 373 49 406 q 50 326 44 340 q 64 306 56 311 q 106 319 81 296 q 107 321 106 319 q 108 321 107 321 q 196 490 153 372 q 236 621 218 550 z "},"æ":{"ha":893,"x_min":-49,"x_max":928,"o":"m 888 583 q 910 594 893 600 q 921 571 928 588 q 771 361 879 463 q 725 322 750 340 q 642 271 681 288 q 539 247 589 247 q 431 285 474 247 q 425 290 431 285 q 358 246 397 253 q 340 243 350 243 q 279 267 304 243 q 222 453 224 319 q 43 249 139 249 q 25 250 33 249 q -24 290 -4 256 q -46 395 -47 332 q -17 529 -44 458 q 283 733 65 742 q 290 733 289 733 l 290 732 q 292 733 292 732 q 293 733 292 733 q 305 726 300 732 q 308 713 310 721 q 308 417 299 618 q 315 359 311 383 q 325 324 319 335 q 338 306 331 313 q 350 299 346 300 q 361 299 354 299 q 400 324 381 299 q 401 524 360 400 q 508 668 432 613 q 650 729 585 724 q 719 704 697 733 q 725 608 749 668 q 643 506 710 567 q 625 490 635 497 q 482 399 557 432 q 531 311 481 333 q 603 304 557 296 q 697 346 650 313 q 749 389 722 365 q 749 390 749 389 q 750 392 749 390 q 888 583 850 486 m 650 668 q 590 634 621 661 q 529 556 558 607 q 488 440 500 504 q 582 500 538 467 q 636 549 611 524 q 683 617 672 586 q 686 661 694 647 q 667 671 681 671 q 650 668 658 671 m 238 624 q 251 683 243 651 q 201 663 226 678 q 152 620 176 647 q 105 550 128 593 q 64 453 82 507 q 49 375 50 408 q 52 328 47 342 q 65 308 57 314 q 107 322 83 297 q 109 323 108 322 q 110 324 110 324 q 199 493 154 375 q 238 624 221 553 z "},"ç":{"ha":453,"x_min":-79,"x_max":489,"o":"m 449 738 q 473 743 457 751 q 479 719 489 735 q 333 528 410 601 q 332 526 332 528 q 328 522 329 525 q 200 432 269 469 q 85 401 139 401 q 42 407 63 401 q 33 392 39 403 q 22 372 25 378 q 74 317 67 350 q 47 251 83 272 q 15 243 33 243 q -49 269 -18 243 q -50 299 -64 283 q -28 303 -42 308 q -22 299 -25 301 q -10 292 -19 297 q 7 285 -1 288 q 23 283 15 282 q 35 293 31 285 q 29 317 40 304 q 4 336 18 329 l -10 344 q -19 357 -17 350 q -1 413 -25 374 q 6 425 4 422 q 3 426 6 425 q 0 428 1 428 q -24 657 -79 493 q 87 826 11 756 q 211 885 163 897 q 244 858 233 879 q 235 722 269 814 q 212 711 229 706 q 200 733 194 717 q 211 781 208 757 q 207 818 214 806 q 199 821 206 821 q 118 743 167 817 q 56 563 69 669 q 90 464 46 485 q 176 467 121 449 q 301 546 232 485 q 449 738 378 618 z "},"è":{"ha":454,"x_min":-93,"x_max":490,"o":"m 450 579 q 473 590 456 596 q 483 567 490 583 q 333 357 442 458 q 289 318 313 336 q 204 267 243 283 q 101 243 151 243 q -7 281 36 243 q -36 519 -92 356 q 71 664 -6 608 q 213 725 147 719 q 282 700 260 729 q 288 604 311 664 q 207 501 272 563 q 189 486 197 493 q 46 394 119 428 q 93 307 43 329 q 166 300 119 292 q 260 342 213 308 q 311 385 285 361 l 311 386 q 313 388 313 386 q 450 579 413 482 m 213 664 q 117 590 165 651 q 50 436 68 529 q 144 496 100 463 q 200 544 174 519 q 246 613 235 582 q 249 657 257 643 q 229 667 243 667 q 213 664 221 667 m 169 757 q 164 763 167 757 q 152 785 161 769 q 126 818 143 800 q 118 844 113 836 q 142 856 124 854 q 171 844 161 858 q 183 815 178 836 q 189 776 189 793 q 182 763 189 769 q 169 757 175 756 z "},"é":{"ha":465,"x_min":-82,"x_max":501,"o":"m 461 579 q 484 590 467 596 q 494 567 501 583 q 344 357 453 458 q 300 318 324 336 q 215 267 254 283 q 113 243 163 243 q 4 281 47 243 q -25 519 -81 356 q 82 664 6 608 q 224 725 158 719 q 293 700 271 729 q 299 604 322 664 q 218 501 283 563 q 200 486 208 493 q 57 394 131 426 q 104 307 54 329 q 177 300 131 292 q 271 342 224 308 q 322 385 296 361 l 322 386 q 324 388 324 386 q 461 579 424 482 m 224 664 q 163 630 194 657 q 103 551 132 603 q 61 436 74 500 q 156 496 111 463 q 211 544 185 519 q 257 613 246 582 q 260 657 268 643 q 240 667 254 667 q 224 664 232 667 m 207 757 q 195 763 201 756 q 189 776 189 769 q 194 815 189 793 q 206 844 200 836 q 235 856 217 858 q 260 844 253 854 q 250 818 265 836 q 226 785 235 800 q 214 763 217 769 q 207 757 211 757 z "},"ê":{"ha":454,"x_min":-93,"x_max":490,"o":"m 450 579 q 473 590 456 596 q 483 567 490 583 q 333 357 442 458 q 289 318 313 336 q 204 267 243 283 q 101 243 151 243 q -7 281 36 243 q -36 519 -92 356 q 71 664 -6 608 q 213 725 147 719 q 282 700 260 729 q 288 604 311 664 q 207 501 272 563 q 189 486 197 493 q 46 394 119 428 q 93 307 43 329 q 166 300 119 292 q 260 342 213 308 q 311 385 285 361 l 311 386 q 313 388 313 386 q 450 579 413 482 m 213 664 q 117 590 165 651 q 50 436 68 529 q 144 496 100 463 q 200 544 174 519 q 246 613 235 582 q 249 657 257 643 q 229 667 243 667 q 213 664 221 667 m 181 749 l 176 751 q 169 769 164 757 q 192 817 183 801 q 205 835 201 832 q 214 839 208 839 q 224 835 219 839 q 236 817 228 832 q 258 769 244 801 q 251 751 264 757 q 240 750 246 749 q 232 758 235 751 q 214 786 221 783 q 196 757 206 778 q 182 749 192 749 l 181 749 z "},"ë":{"ha":454,"x_min":-93,"x_max":490,"o":"m 450 579 q 473 590 456 596 q 483 567 490 583 q 333 357 442 458 q 289 318 313 336 q 204 267 243 283 q 101 243 151 243 q -7 281 36 243 q -36 519 -92 356 q 71 664 -6 608 q 213 725 147 719 q 282 700 260 729 q 288 604 311 664 q 207 501 272 563 q 189 486 197 493 q 46 394 119 428 q 93 307 43 329 q 166 300 119 292 q 260 342 213 308 q 311 385 285 361 l 311 386 q 313 388 313 386 q 450 579 413 482 m 213 664 q 117 590 165 651 q 50 436 68 529 q 144 496 101 463 q 200 544 174 519 q 246 613 235 582 q 249 657 257 643 q 229 667 243 667 q 213 664 221 667 m 177 760 q 173 757 177 760 q 158 753 169 753 q 140 760 147 753 q 132 779 132 768 q 140 799 132 790 q 158 807 147 807 q 172 803 165 807 q 181 794 178 800 q 185 779 185 788 q 177 760 185 768 m 226 753 q 213 756 218 753 q 203 766 207 760 q 200 780 200 772 q 203 794 200 788 q 213 803 207 800 q 226 807 218 807 q 240 803 233 807 q 249 794 246 800 q 253 779 253 788 q 244 760 253 768 q 226 753 236 753 z "},"ì":{"ha":322,"x_min":-58,"x_max":361,"o":"m 74 1039 q 69 1044 71 1040 q 64 1055 67 1049 q 52 1074 61 1061 q 32 1101 43 1086 q 22 1126 17 1118 q 47 1139 29 1138 q 75 1128 65 1140 q 88 1097 82 1119 q 93 1060 93 1075 q 87 1044 93 1051 q 74 1039 81 1038 m 321 578 q 343 589 326 594 q 354 565 360 583 q 296 418 326 481 q 154 251 235 282 q 111 243 132 243 q 57 256 82 243 q -11 688 -58 314 q 29 728 -8 713 q 77 738 53 736 q 119 731 101 740 q 128 706 131 721 q 114 307 57 372 q 143 296 125 294 q 257 419 197 299 q 275 458 267 438 q 278 465 276 463 q 321 578 300 514 m 68 851 q 16 874 38 851 q -6 927 -6 896 q 16 980 -6 958 q 67 1001 38 1001 q 119 980 97 1001 q 140 926 140 958 q 135 897 140 911 q 119 874 129 883 q 96 858 110 864 q 68 851 82 851 z "},"í":{"ha":322,"x_min":-58,"x_max":361,"o":"m 65 1043 q 53 1048 60 1042 q 46 1063 46 1054 q 52 1100 46 1078 q 64 1131 58 1122 q 93 1142 75 1144 q 118 1131 111 1140 q 108 1104 122 1122 q 83 1071 92 1086 q 71 1049 74 1056 q 65 1043 68 1043 m 321 578 q 343 589 326 594 q 354 565 360 583 q 296 418 326 481 q 154 251 235 282 q 111 243 133 243 q 57 256 82 243 q -11 688 -58 314 q 29 728 -8 713 q 77 738 53 736 q 119 731 101 740 q 128 706 131 721 q 114 307 57 372 q 143 296 125 294 q 257 419 197 299 q 275 458 267 438 q 278 465 276 463 q 321 578 300 514 m 68 851 q 16 874 38 851 q -6 927 -6 896 q 16 980 -6 958 q 68 1001 38 1001 q 104 992 88 1001 q 131 965 121 982 q 140 926 140 947 q 135 897 140 911 q 119 874 129 883 q 96 858 110 864 q 68 851 82 851 z "},"î":{"ha":322,"x_min":-58,"x_max":361,"o":"m 31 1036 l 26 1038 q 19 1056 14 1043 q 43 1103 35 1088 q 56 1122 51 1118 q 65 1125 60 1125 q 74 1122 69 1125 q 86 1103 78 1118 q 108 1056 94 1088 q 101 1038 114 1043 q 96 1036 99 1036 q 92 1036 93 1036 q 83 1044 86 1039 q 64 1072 72 1069 q 46 1043 56 1064 q 33 1036 42 1036 l 31 1036 m 321 578 q 343 589 326 594 q 354 567 360 583 q 296 418 326 482 q 154 251 235 282 q 111 243 133 243 q 57 257 82 243 q -11 689 -58 314 q 29 728 -8 713 q 77 739 53 736 q 119 731 101 742 q 128 707 131 721 q 114 308 57 374 q 143 296 125 294 q 257 419 197 300 q 275 460 267 439 q 278 465 276 463 q 321 578 300 515 m 68 853 q 31 863 49 853 q 4 890 14 872 q -6 928 -6 907 q 16 981 -6 958 q 67 1003 38 1003 q 119 981 97 1003 q 140 928 140 958 q 135 899 140 913 q 119 874 129 885 q 96 858 110 864 q 68 853 82 853 z "},"ï":{"ha":338,"x_min":-51,"x_max":368,"o":"m 59 1047 q 55 1043 59 1047 q 40 1039 51 1039 q 22 1047 29 1039 q 14 1065 14 1054 q 22 1085 14 1076 q 40 1093 29 1093 q 59 1085 51 1093 q 67 1065 67 1076 q 59 1047 67 1054 m 126 1047 q 122 1043 126 1047 q 108 1039 118 1039 q 90 1047 97 1039 q 82 1065 82 1054 q 84 1076 82 1071 q 90 1085 86 1082 q 98 1091 93 1089 q 108 1093 103 1093 q 126 1085 118 1093 q 135 1065 135 1076 q 126 1047 135 1054 m 328 578 q 350 589 333 594 q 361 567 367 583 q 303 418 333 482 q 161 251 242 282 q 118 243 140 243 q 64 257 89 243 q -4 689 -51 314 q 36 728 -1 713 q 84 739 60 736 q 126 731 108 742 q 135 707 138 721 q 121 308 64 374 q 150 296 132 294 q 264 419 204 300 q 282 460 274 439 q 285 465 283 463 q 328 578 307 515 m 126 874 q 115 864 126 874 q 74 853 104 853 q 23 874 44 853 q 1 927 1 896 q 23 981 1 958 q 75 1003 44 1003 q 111 992 94 1003 q 138 965 128 982 q 147 928 147 947 q 126 874 147 896 z "},"ñ":{"ha":503,"x_min":-21,"x_max":540,"o":"m 124 788 q 111 790 114 781 q 115 807 110 799 q 151 829 132 829 q 187 819 168 829 q 217 810 206 810 q 235 818 226 811 q 246 826 244 825 q 254 825 250 828 q 258 816 258 822 q 251 803 257 810 q 214 782 233 782 q 181 790 201 782 q 154 800 161 799 q 124 788 139 800 m 522 583 q 535 561 540 579 q 457 369 510 481 q 406 290 431 319 q 311 243 364 243 q 308 243 311 243 q 249 275 271 244 q 224 373 228 303 q 226 542 219 443 q 221 653 231 625 q 192 597 208 632 q 107 356 153 514 q 94 314 99 326 q 93 313 93 313 q 64 253 78 260 q 46 247 56 247 q 31 251 39 247 q -6 349 4 267 q -19 618 -17 432 q 13 722 -21 690 q 99 744 40 749 q 108 744 107 744 q 124 737 118 744 q 125 719 129 729 q 94 442 100 654 q 151 593 122 528 q 151 593 151 593 q 189 671 171 646 q 292 735 238 754 q 324 672 318 725 q 328 488 331 618 q 329 335 325 368 q 354 306 332 307 q 424 385 383 304 q 500 572 472 481 q 522 583 506 589 z "},"ò":{"ha":457,"x_min":-39,"x_max":492,"o":"m 138 858 q 133 862 135 860 q 128 869 131 864 q 123 881 126 875 q 112 899 119 888 q 94 921 104 910 q 85 946 79 938 q 110 958 92 957 q 139 947 128 960 q 150 917 144 939 q 156 879 156 894 q 149 865 156 871 q 138 858 143 858 m 454 579 q 475 590 460 594 q 489 571 490 586 q 438 504 483 532 q 297 479 378 469 q 214 279 278 340 q 131 243 175 243 q 84 255 108 243 q 35 293 60 267 q -9 372 10 319 q -31 494 -28 425 q 22 699 -39 635 q 99 740 53 732 q 133 789 110 769 q 204 806 165 815 q 278 733 254 793 q 283 718 281 726 q 288 706 286 713 q 288 704 288 706 q 303 546 307 639 q 301 521 301 532 q 357 519 328 514 q 416 540 392 524 q 446 565 440 556 q 454 579 451 574 m 189 306 q 261 486 246 358 q 240 493 251 489 q 152 550 190 511 q 99 636 114 589 q 81 526 85 589 q 89 359 74 419 q 131 286 104 299 q 189 306 154 275 m 267 547 q 250 706 271 643 q 224 736 239 736 q 200 716 211 735 q 188 665 189 697 q 236 554 185 600 q 265 533 250 542 q 267 547 267 540 z "},"ó":{"ha":447,"x_min":-39,"x_max":485,"o":"m 446 590 q 466 606 449 608 q 481 585 483 603 q 472 558 479 572 q 365 485 443 497 q 299 482 332 478 q 215 281 279 342 q 131 243 176 244 q 85 256 108 243 q 35 294 61 268 q -9 374 10 321 q -31 496 -28 426 q 22 701 -39 636 q 99 743 53 733 q 135 792 110 772 q 206 808 167 818 q 279 736 254 796 q 285 721 282 729 q 289 707 288 714 q 304 549 308 640 q 303 522 303 536 q 357 521 328 517 q 401 538 382 526 q 440 575 429 554 q 446 590 444 585 m 190 307 q 263 488 246 360 q 242 494 251 490 q 153 551 192 513 q 99 638 115 590 q 81 528 85 592 q 83 401 76 454 q 101 321 89 347 q 131 288 114 294 q 190 307 156 275 m 268 550 q 251 708 272 644 q 225 739 240 739 q 224 739 225 739 q 201 718 213 738 q 189 667 190 699 q 236 556 186 601 q 267 535 250 543 q 268 550 268 542 m 171 851 q 158 857 165 850 q 151 872 151 864 q 158 910 151 888 q 169 940 164 932 q 199 951 181 953 q 224 939 217 950 q 214 914 229 931 q 189 880 199 896 q 177 858 179 864 q 171 851 175 853 z "},"ô":{"ha":447,"x_min":-39,"x_max":485,"o":"m 446 590 q 466 606 449 608 q 481 585 483 603 q 472 558 479 572 q 365 485 443 497 q 299 482 332 478 q 215 281 279 342 q 131 243 176 244 q 85 256 108 243 q 35 294 61 268 q -9 374 10 321 q -31 496 -28 426 q 22 701 -39 636 q 99 743 53 733 q 135 792 110 772 q 206 808 167 818 q 279 736 254 796 q 285 721 282 729 q 289 707 288 714 q 304 549 308 640 q 303 522 303 536 q 357 521 329 517 q 401 538 382 526 q 440 575 429 554 q 446 590 444 583 m 190 307 q 263 488 246 360 q 242 494 251 490 q 153 551 192 513 q 99 638 115 590 q 81 528 85 592 q 90 360 74 421 q 131 288 106 300 q 190 307 156 275 m 268 550 q 251 708 272 644 q 225 739 240 739 q 224 739 225 739 q 201 718 213 738 q 189 667 190 699 q 236 556 186 601 q 267 535 250 543 q 268 550 268 542 m 154 849 l 150 850 q 144 869 139 857 q 167 917 158 901 q 179 935 175 932 q 189 938 183 938 q 196 936 193 938 q 203 928 199 935 q 215 908 208 922 q 233 869 222 893 q 226 850 239 857 q 219 849 224 849 q 215 850 218 849 q 207 857 210 851 q 188 886 196 882 q 169 857 179 876 q 157 849 165 849 l 154 849 z "},"õ":{"ha":465,"x_min":-39,"x_max":492,"o":"m 68 864 q 57 867 58 856 q 61 883 54 874 q 97 906 78 906 q 122 901 110 906 q 143 891 133 896 q 163 886 153 886 q 175 890 169 886 q 185 897 181 893 q 192 901 189 900 q 200 901 196 903 q 203 892 204 899 q 196 878 203 886 q 160 858 179 857 q 127 867 147 858 q 99 875 107 875 q 68 864 85 876 m 454 579 q 476 590 460 594 q 489 571 492 586 q 438 504 483 532 q 297 479 378 469 q 214 279 278 340 q 131 243 175 243 q 84 255 108 243 q 35 293 60 267 q -9 372 10 319 q -31 494 -28 425 q 22 699 -39 635 q 99 740 53 732 q 133 789 110 769 q 204 806 165 815 q 278 733 254 793 q 283 718 281 726 q 288 706 286 713 q 288 704 288 706 q 303 546 307 639 q 301 521 301 532 q 357 519 328 514 q 416 540 392 524 q 446 565 440 556 q 454 579 451 574 m 189 306 q 261 486 246 358 q 240 493 251 489 q 152 550 190 511 q 99 636 114 589 q 81 526 85 589 q 89 359 74 419 q 131 286 104 299 q 189 306 154 275 m 267 547 q 250 706 271 643 q 224 736 239 736 q 200 716 211 735 q 188 665 189 697 q 236 554 185 600 q 267 533 250 542 q 267 547 267 540 z "},"ö":{"ha":447,"x_min":-39,"x_max":485,"o":"m 446 590 q 466 606 449 608 q 481 585 483 603 q 472 558 479 572 q 365 485 443 497 q 299 482 332 478 q 215 281 279 342 q 131 243 176 244 q 85 256 108 243 q 35 294 61 268 q -9 374 10 321 q -31 496 -28 426 q 22 701 -39 636 q 99 743 53 733 q 135 792 110 772 q 206 808 167 818 q 279 736 254 796 q 285 721 282 729 q 289 707 288 714 q 304 549 308 640 q 303 522 303 536 q 357 521 329 517 q 401 538 382 526 q 440 575 429 554 q 446 590 444 583 m 190 307 q 263 488 246 360 q 242 494 251 490 q 153 551 192 513 q 99 638 115 590 q 81 528 85 592 q 90 360 74 421 q 131 288 106 300 q 190 307 156 275 m 268 550 q 251 708 272 644 q 225 739 240 739 q 224 739 225 739 q 201 718 213 738 q 189 667 190 699 q 236 556 186 601 q 267 535 250 543 q 268 550 268 542 m 173 861 q 169 857 173 861 q 154 853 165 853 q 135 861 143 853 q 128 881 128 869 q 135 899 128 892 q 154 907 143 907 q 167 903 161 907 q 177 894 174 900 q 181 881 181 888 q 173 861 181 869 m 222 853 q 209 857 215 853 q 199 867 203 861 q 196 881 196 874 q 203 899 196 892 q 222 907 211 907 q 241 899 233 907 q 249 881 249 892 q 241 861 249 869 q 222 853 233 853 z "},"÷":{"ha":499,"x_min":42,"x_max":454,"o":"m 406 507 q 439 485 424 503 q 451 456 454 468 q 428 443 446 439 q 241 459 339 461 q 78 439 143 457 q 69 438 74 438 q 46 456 53 438 q 46 488 42 468 q 60 524 50 507 q 83 546 71 542 q 224 542 111 557 q 406 507 338 526 m 247 610 q 227 614 238 610 q 210 626 217 618 q 199 644 203 633 q 194 665 194 654 q 197 683 194 674 q 205 698 200 692 q 216 710 210 704 q 231 718 222 715 q 247 721 239 721 q 286 704 271 721 q 301 665 301 688 q 286 626 301 642 q 247 610 271 610 m 247 378 q 286 362 271 378 q 301 323 301 346 q 286 283 301 300 q 247 267 271 267 q 221 274 233 267 q 201 294 208 282 q 194 322 194 307 q 201 350 194 338 q 221 370 208 363 q 247 378 233 378 z "},"ø":{"ha":442,"x_min":-71,"x_max":478,"o":"m 439 619 q 460 635 442 638 q 475 614 478 632 q 465 588 472 601 q 358 514 436 526 q 292 511 326 507 q 208 310 274 371 q 125 272 169 274 q 31 322 74 272 l -14 257 q -37 243 -22 243 q -54 247 -47 243 q -67 267 -65 254 q -62 289 -69 279 l -6 378 q -37 525 -33 439 q 17 731 -44 665 q 93 772 47 763 q 128 821 104 801 q 199 838 160 847 q 263 786 238 828 l 286 822 q 306 835 293 833 q 328 831 318 838 q 341 813 339 825 q 336 790 343 800 l 288 715 q 297 578 301 654 q 296 551 297 563 q 350 550 322 546 q 396 567 375 556 q 433 604 422 583 q 439 619 438 613 m 218 768 q 194 747 206 767 q 182 696 183 728 q 185 667 182 682 l 239 750 q 219 768 229 768 q 218 768 218 768 m 75 557 q 72 496 72 528 l 136 593 q 93 667 106 628 q 75 557 79 621 m 183 336 q 257 517 240 389 q 235 524 246 519 q 181 553 207 533 l 82 400 q 125 317 94 331 q 183 336 149 304 m 261 579 q 258 671 264 629 l 214 603 q 231 585 224 590 q 261 564 244 572 q 261 579 261 571 z "},"ù":{"ha":488,"x_min":-18,"x_max":521,"o":"m 178 763 q 172 768 175 763 q 160 790 169 774 q 135 824 151 806 q 126 850 121 842 q 151 862 132 860 q 179 850 169 864 q 192 819 186 842 q 197 782 197 797 q 191 767 197 774 q 178 763 185 761 m 504 589 q 513 585 510 588 q 518 577 517 582 q 519 568 519 572 q 451 335 494 411 q 443 319 449 329 q 442 317 442 317 q 332 243 394 243 q 329 243 331 243 q 279 262 301 244 q 244 310 257 279 q 214 496 219 379 q 165 339 185 388 q 163 329 165 333 q 158 321 161 325 q 103 250 132 261 q 79 246 90 246 q 46 257 61 246 q 6 328 21 276 q -14 445 -10 379 q -18 557 -18 511 q -15 646 -18 603 q 35 728 -12 704 q 79 738 56 738 q 113 729 103 738 q 121 710 122 722 q 110 633 118 682 q 93 406 93 517 q 106 310 94 331 q 126 338 114 317 q 188 533 149 390 q 229 676 214 635 q 264 726 244 717 q 286 728 275 732 q 313 692 308 718 q 315 601 317 665 q 317 421 311 494 l 318 413 q 356 299 325 303 q 429 369 394 294 q 483 574 464 443 q 491 585 485 581 q 504 589 497 589 z "},"ú":{"ha":488,"x_min":-18,"x_max":521,"o":"m 168 758 q 156 764 163 757 q 149 778 149 771 q 154 816 149 794 q 167 846 160 838 q 195 858 176 860 q 219 846 214 856 q 211 821 225 838 q 190 793 199 806 q 178 774 181 781 q 173 763 175 767 q 168 758 171 758 m 491 585 q 494 587 491 585 q 504 588 497 589 q 516 581 511 588 q 519 568 521 575 q 453 335 494 413 q 443 319 449 329 q 442 317 442 317 q 332 243 394 243 q 331 243 331 243 q 279 262 301 244 q 246 311 257 279 q 214 496 219 379 q 165 339 185 388 q 163 329 165 333 q 158 321 161 325 q 103 250 132 261 q 79 246 90 246 q 46 257 61 246 q 6 328 21 276 q -14 445 -10 379 q -18 557 -18 511 q -15 646 -18 603 q 35 728 -12 704 q 79 738 56 738 q 113 729 103 738 q 121 710 122 722 q 110 633 118 681 q 93 406 93 517 q 106 310 94 331 q 126 338 114 317 q 188 533 149 390 q 229 676 214 635 q 264 726 244 717 q 286 728 275 732 q 313 692 308 718 q 315 601 317 665 q 317 421 311 494 l 318 413 q 356 299 325 303 q 429 369 394 294 q 483 574 464 443 q 491 585 485 581 z "},"û":{"ha":494,"x_min":-18,"x_max":521,"o":"m 146 785 l 142 786 q 135 804 129 792 q 158 851 149 836 q 170 870 167 867 q 179 874 174 874 q 189 870 185 874 q 201 851 193 867 q 224 804 210 836 q 217 786 229 792 q 206 785 211 783 q 199 793 200 788 q 179 821 188 818 q 161 793 171 813 q 147 785 157 785 l 146 785 m 491 585 q 494 587 491 585 q 504 588 497 589 q 516 581 511 588 q 519 568 521 575 q 451 335 494 413 q 443 319 449 329 q 442 317 442 317 q 332 243 394 243 q 329 243 331 243 q 279 262 301 244 q 244 310 257 279 q 214 496 219 379 q 165 339 185 388 q 163 329 165 333 q 158 321 160 325 q 103 250 132 261 q 79 246 90 246 q 46 257 61 246 q 6 328 21 276 q -14 445 -10 379 q -18 557 -18 511 q -15 646 -18 603 q 35 728 -12 704 q 79 738 56 738 q 113 729 103 738 q 121 710 122 722 q 110 633 118 682 q 93 406 93 517 q 106 310 94 331 q 126 338 114 317 q 188 533 149 390 q 215 635 206 603 q 238 694 225 668 q 264 726 250 719 q 286 728 275 732 q 313 692 308 718 q 315 601 317 665 q 317 421 311 494 l 318 413 q 356 299 325 303 q 429 369 394 294 q 483 574 464 443 q 491 585 485 581 z "},"ü":{"ha":488,"x_min":-25,"x_max":514,"o":"m 139 775 q 120 783 128 775 q 113 801 113 790 q 120 821 113 813 q 139 829 128 829 q 152 826 146 829 q 162 816 158 822 q 165 802 165 810 q 162 788 165 794 q 152 778 158 782 q 139 775 146 775 m 224 783 q 220 779 224 783 q 206 775 217 775 q 188 783 196 775 q 181 801 181 790 q 188 821 181 813 q 206 829 196 829 q 224 821 217 829 q 232 801 232 813 q 224 783 232 790 m 497 589 q 506 585 503 588 q 511 577 510 582 q 513 568 513 572 q 446 335 488 413 q 436 319 442 329 q 435 317 435 317 q 325 243 388 243 q 324 243 324 243 q 272 262 294 244 q 239 311 250 279 q 207 496 213 379 q 158 339 178 388 q 156 329 158 333 q 151 321 154 325 q 96 250 125 261 q 72 246 83 246 q 39 257 54 246 q -1 328 14 276 q -21 445 -17 379 q -25 557 -25 511 q -22 646 -25 603 q 28 728 -19 704 q 72 738 49 738 q 106 729 96 738 q 114 710 115 722 q 103 633 111 681 q 86 406 86 517 q 99 310 88 331 q 119 338 107 317 q 181 533 142 390 q 208 635 199 603 q 231 694 218 668 q 257 726 243 719 q 279 728 268 732 q 306 692 301 718 q 308 601 310 665 q 310 421 304 494 l 311 413 q 349 299 318 303 q 422 369 388 294 q 476 574 457 443 q 484 585 478 581 q 497 589 490 589 z "},"ý":{"ha":460,"x_min":-47,"x_max":496,"o":"m 456 533 q 478 544 461 549 q 490 524 494 539 q 300 210 436 350 q 296 110 299 157 q 290 3 293 49 q 280 -95 286 -42 q 265 -187 274 -149 q 244 -263 257 -225 q 214 -326 231 -301 q 174 -366 197 -350 q 121 -385 150 -382 q 108 -385 114 -385 q -3 -322 40 -385 q -36 -244 -26 -289 q -37 -144 -46 -200 q 1 -35 -29 -87 q 43 21 17 -8 q 90 69 69 50 q 151 122 111 88 q 190 156 169 136 q 192 240 192 192 q 196 397 194 343 q 160 293 176 331 q 153 276 157 285 q 97 210 126 219 q 74 206 85 206 q 42 215 57 206 q -3 292 14 235 q -22 421 -19 349 q -25 533 -25 493 q -24 603 -25 574 q 26 681 -21 660 q 72 690 47 690 q 104 683 96 690 q 114 665 115 676 q 106 606 111 642 q 88 357 88 472 q 100 265 89 286 q 121 292 108 272 q 182 479 144 343 q 225 614 210 575 q 258 663 240 653 q 267 665 263 664 q 278 669 272 669 q 286 667 282 669 q 293 661 290 665 q 296 653 296 657 q 301 263 306 483 q 456 533 410 385 m 143 -287 q 189 108 181 -186 q 176 97 176 97 q 116 45 136 63 q 72 0 96 28 q 33 -51 47 -28 q -5 -192 -6 -128 q 25 -301 -4 -256 q 29 -304 28 -303 q 58 -327 39 -318 q 94 -333 76 -336 q 143 -287 128 -329 m 171 714 q 159 719 165 713 q 153 733 153 726 q 158 772 153 750 q 169 801 164 793 q 199 813 181 815 q 224 801 217 811 q 214 775 229 793 q 190 742 199 757 q 178 720 181 726 q 171 714 175 714 z "},"ÿ":{"ha":449,"x_min":-47,"x_max":496,"o":"m 456 533 q 477 544 460 549 q 490 524 494 540 q 300 210 436 350 q 296 110 299 158 q 288 -14 292 38 q 275 -126 283 -65 q 255 -228 267 -187 q 225 -305 243 -268 q 181 -361 207 -342 q 121 -385 154 -381 q 108 -385 114 -385 q -3 -322 40 -385 q -36 -244 -26 -289 q -37 -144 -46 -200 q 1 -35 -29 -87 q 43 21 17 -8 q 90 69 69 50 q 151 122 111 88 q 190 156 168 136 q 192 240 192 192 q 196 397 194 343 q 160 293 176 331 q 153 276 157 286 q 97 210 126 219 q 74 206 85 206 q 42 215 57 206 q -3 292 14 235 q -22 421 -19 349 q -25 533 -25 493 q -24 604 -25 574 q 26 681 -21 660 q 72 690 47 690 q 104 683 96 690 q 114 665 115 676 q 106 606 111 642 q 88 357 88 472 q 100 265 89 286 q 121 292 108 272 q 182 479 144 343 q 211 576 201 544 q 233 632 221 607 q 258 663 246 657 q 267 665 263 664 q 278 669 272 669 q 286 667 282 669 q 293 662 290 665 q 296 653 296 658 q 301 264 306 468 q 456 533 410 385 m 143 -287 q 189 108 181 -186 q 176 97 181 100 q 116 45 136 63 q 72 1 96 28 q 33 -51 47 -26 q -5 -191 -6 -126 q 25 -300 -4 -256 q 29 -304 28 -303 q 58 -326 39 -317 q 94 -333 76 -336 q 143 -287 128 -329 m 156 736 q 137 744 144 736 q 129 764 129 753 q 137 783 129 775 q 155 790 144 790 q 174 783 165 790 q 182 764 182 775 q 178 751 182 757 q 168 740 174 744 q 156 736 163 736 m 222 736 q 210 740 215 736 q 200 751 204 744 q 196 764 196 757 q 204 783 196 775 q 223 790 213 790 q 241 783 233 790 q 249 764 249 775 q 241 744 249 753 q 222 736 233 736 z "},"Œ":{"ha":1104,"x_min":-8,"x_max":1126,"o":"m 1064 278 q 1086 278 1075 289 q 1086 257 1097 268 q 1054 226 1072 242 q 869 85 960 140 q 778 36 825 53 q 651 6 708 6 q 643 6 649 6 q 543 53 578 8 q 504 199 504 100 q 451 107 479 144 q 368 32 414 58 q 289 4 331 8 q 260 3 274 3 q 131 51 189 3 q 27 213 63 107 q -7 460 -8 318 q 13 651 -7 565 q 63 789 32 736 q 123 873 93 842 q 182 917 153 904 q 238 929 210 929 q 239 929 238 929 q 368 808 325 926 q 394 640 400 726 q 349 503 388 554 q 240 451 307 449 q 135 504 168 456 q 112 580 114 535 q 124 653 110 625 q 140 663 128 664 l 221 653 q 232 646 228 651 q 235 633 236 640 q 240 542 218 571 q 269 528 250 529 q 315 547 297 526 q 350 653 344 579 q 340 772 356 726 q 239 899 310 896 l 238 899 q 197 878 219 897 q 167 840 182 864 q 133 772 151 817 q 101 649 114 726 q 86 474 88 571 q 110 219 83 324 q 190 67 136 114 q 285 35 232 31 q 346 56 317 40 q 460 192 415 94 q 524 386 506 289 q 524 388 524 388 q 525 389 525 389 q 479 365 499 376 q 463 361 471 361 q 440 374 449 361 q 431 429 428 392 q 452 478 435 467 q 539 504 469 490 q 540 510 539 506 q 540 518 540 515 q 461 611 494 556 q 381 794 406 704 q 374 933 357 883 q 406 972 383 961 q 453 969 428 982 q 504 915 481 956 q 574 897 536 903 q 561 929 568 919 q 560 944 557 936 q 572 953 564 951 l 683 972 q 701 960 699 975 q 711 900 707 936 q 788 918 750 906 q 1033 924 956 967 q 1101 831 1083 897 q 1067 669 1125 744 q 932 599 1010 599 q 917 610 921 599 l 889 694 q 891 709 886 703 q 904 715 896 715 q 915 716 907 715 q 942 722 924 717 q 976 733 960 726 q 1008 756 992 740 q 1033 790 1025 771 q 1026 871 1054 838 q 879 900 983 921 q 761 867 833 892 q 714 851 731 857 q 697 658 717 754 q 664 524 688 613 q 808 533 753 533 l 810 533 q 851 520 829 533 q 872 493 872 507 q 867 479 872 485 q 853 474 863 474 q 642 433 758 469 q 599 175 600 268 q 647 58 597 83 q 772 67 692 36 q 856 113 811 85 q 856 113 856 113 q 1032 249 964 189 q 1064 278 1049 264 m 525 600 q 542 579 533 590 q 492 864 540 751 q 444 908 469 878 l 440 913 q 439 936 429 926 q 428 939 432 939 q 421 938 425 939 q 417 931 418 936 q 444 776 404 890 q 525 600 483 661 m 579 663 q 585 835 592 760 q 535 844 558 838 q 560 746 550 799 q 572 618 569 688 q 579 663 578 646 z "},"œ":{"ha":779,"x_min":-47,"x_max":817,"o":"m 776 579 q 799 590 782 596 q 810 567 817 583 q 660 357 768 458 q 614 318 638 336 q 531 267 569 283 q 428 243 478 243 q 319 281 363 243 q 269 390 275 319 q 207 281 246 318 q 122 243 168 244 q 76 256 100 243 q 27 294 53 268 q -17 374 1 321 q -39 496 -36 426 q 14 701 -47 636 q 90 743 44 733 q 126 792 101 772 q 197 808 158 818 q 271 736 246 796 q 276 721 274 729 q 281 707 279 714 q 296 549 300 640 q 294 528 296 544 q 401 666 326 613 q 539 725 476 719 q 608 700 586 729 q 614 604 638 664 q 532 501 599 563 q 514 486 524 493 q 371 394 446 428 q 419 307 369 329 q 492 300 446 292 q 585 342 539 308 q 638 385 611 361 q 638 385 638 385 q 639 388 638 386 q 776 579 738 482 m 539 664 q 443 590 492 651 q 376 436 394 529 q 471 496 426 463 q 525 544 500 519 q 572 613 561 582 q 575 657 583 643 q 556 667 569 667 q 539 664 547 667 m 182 307 q 254 488 238 360 q 233 494 243 490 q 172 528 200 507 q 122 578 143 550 q 90 638 101 607 q 72 528 76 592 q 81 360 65 421 q 122 288 97 300 q 182 307 147 275 m 260 550 q 243 708 264 644 q 217 739 232 739 q 215 739 217 739 q 201 730 208 738 q 188 706 193 722 q 181 667 182 689 q 228 556 178 601 q 258 535 242 543 q 260 550 260 542 z "},"Š":{"ha":843,"x_min":67,"x_max":774,"o":"m 565 750 q 575 741 572 747 q 575 728 578 735 q 588 635 546 654 q 647 636 618 619 q 699 706 679 656 q 722 829 719 757 q 697 921 726 889 q 638 946 675 944 q 571 933 611 946 q 475 887 531 919 q 355 785 419 854 q 236 619 290 715 q 172 463 185 531 q 186 364 158 396 q 282 349 215 331 q 310 358 294 353 q 396 394 344 372 q 492 435 460 422 q 588 464 544 456 q 732 426 689 482 q 753 366 750 401 q 750 299 757 331 q 728 239 743 268 q 574 63 672 124 q 382 3 476 3 q 371 3 376 3 q 286 28 319 6 q 244 88 253 50 q 255 172 235 129 q 315 238 275 214 q 333 236 325 243 q 339 218 342 229 q 332 172 331 200 q 333 156 332 163 q 342 140 335 150 q 367 126 349 131 q 411 122 385 122 q 597 196 503 125 q 700 353 690 267 q 685 421 707 403 q 568 424 657 446 q 504 404 536 417 q 493 400 500 403 l 453 383 q 322 329 363 343 l 322 328 q 290 318 306 322 q 104 335 161 276 q 92 352 99 342 q 76 398 85 363 q 72 475 68 433 q 107 586 76 517 q 196 732 138 656 q 295 844 243 796 q 390 918 347 892 q 476 961 432 944 q 550 983 519 978 q 608 988 581 988 l 610 988 q 725 943 686 988 q 758 772 774 888 q 651 572 738 626 q 513 557 585 532 q 433 642 450 579 q 433 713 425 676 q 464 775 442 750 q 481 779 471 782 l 565 750 m 635 1017 q 634 1015 635 1017 q 626 1014 632 1014 q 617 1017 621 1014 q 604 1035 613 1019 q 582 1082 596 1050 q 589 1101 576 1094 q 600 1102 594 1104 q 608 1094 606 1100 q 626 1067 618 1069 q 644 1094 636 1074 q 658 1103 649 1103 l 660 1103 l 664 1101 q 671 1082 676 1094 q 648 1035 657 1050 q 635 1017 639 1019 z "},"š":{"ha":458,"x_min":-64,"x_max":496,"o":"m 139 797 q 137 795 139 797 q 129 793 135 793 q 119 797 124 793 q 107 815 115 800 q 85 863 99 831 q 92 881 79 875 q 103 882 97 883 q 111 874 108 879 q 131 846 122 849 q 149 875 139 854 q 161 882 153 882 l 164 882 l 168 881 q 174 863 179 875 q 151 815 160 831 q 139 797 143 800 m 478 599 q 492 578 496 596 q 420 396 472 474 q 306 282 368 318 q 181 246 244 246 q 169 246 176 246 q 136 243 151 243 q 42 260 88 243 q -17 288 -3 276 q -40 306 -32 299 q -43 328 -50 315 l 6 411 q 22 420 11 421 q 38 410 33 419 q 153 303 75 326 q 211 304 192 292 q 228 343 231 317 q 160 411 225 382 l 144 418 q 85 445 106 435 q 33 474 64 456 q -15 514 3 493 q -40 560 -33 535 q -18 694 -62 636 q 138 753 35 760 q 204 736 174 750 q 251 707 235 722 q 280 671 267 692 q 296 643 293 650 q 300 631 299 636 q 293 611 303 618 l 226 567 q 208 565 218 561 q 199 579 199 569 q 190 607 197 593 q 174 634 183 621 q 151 660 164 647 q 125 681 139 672 q 56 693 85 704 q 28 650 29 683 q 81 571 24 603 q 156 532 107 557 q 213 503 194 514 q 254 475 231 493 q 289 437 278 457 q 303 390 300 417 q 283 311 307 346 q 357 370 324 333 q 417 463 390 407 q 457 585 444 518 q 465 596 458 592 q 478 599 471 600 z "},"Ÿ":{"ha":865,"x_min":33,"x_max":817,"o":"m 799 907 q 811 892 807 903 q 813 818 815 881 q 790 643 810 756 l 790 639 q 765 495 775 547 q 731 359 756 443 q 675 208 707 275 q 390 3 579 3 l 389 3 q 237 58 300 3 q 150 213 174 113 l 146 224 l 158 231 q 183 219 171 236 q 353 121 257 128 q 474 144 418 118 q 568 217 529 169 q 633 317 607 265 q 679 429 658 368 q 746 703 725 568 q 604 399 688 546 q 476 288 546 297 q 401 313 432 282 q 372 360 381 333 q 367 424 363 386 q 377 488 371 463 q 397 564 383 514 q 418 646 413 618 q 429 794 438 728 q 386 901 421 861 q 283 950 347 949 q 278 950 279 950 q 263 950 271 950 l 261 950 l 260 950 q 257 950 258 950 l 256 950 l 251 949 q 218 943 233 947 l 214 942 l 213 942 l 213 940 l 211 940 q 210 940 210 940 q 207 939 207 939 q 125 885 157 922 l 124 883 l 104 897 l 124 883 l 121 881 q 83 753 85 832 q 151 600 82 629 q 188 593 172 592 q 213 601 204 594 q 230 638 231 615 q 224 671 229 661 q 214 688 219 681 l 203 703 l 321 756 l 328 744 q 356 667 351 710 q 344 590 360 625 q 246 514 318 529 q 208 510 226 510 q 107 550 150 510 q 50 649 67 586 q 44 782 33 711 q 96 899 56 850 l 96 900 l 97 901 l 97 903 l 99 903 l 99 904 l 100 904 q 196 968 136 949 l 196 968 q 200 969 199 969 q 206 971 203 971 l 210 972 q 247 979 228 978 l 247 979 l 251 981 l 251 981 q 258 981 253 981 q 260 981 258 981 l 260 981 q 278 982 269 982 q 285 982 281 982 q 453 911 392 979 q 508 640 532 824 q 485 493 499 571 q 474 426 476 447 q 479 367 467 382 q 497 360 485 360 q 596 465 540 357 q 731 821 678 626 q 751 888 743 869 q 772 911 758 906 q 799 907 785 915 m 626 988 q 622 984 626 988 q 607 981 618 981 q 588 988 596 981 q 581 1008 581 996 q 588 1027 581 1019 q 607 1035 596 1035 q 626 1027 618 1035 q 633 1008 633 1019 q 626 988 633 996 m 694 988 q 690 984 694 988 q 675 981 686 981 q 656 988 664 981 q 649 1008 649 996 q 656 1027 649 1019 q 675 1035 664 1035 q 694 1027 686 1035 q 701 1008 701 1019 q 694 988 701 996 z "},"Ž":{"ha":974,"x_min":42,"x_max":940,"o":"m 888 303 q 928 233 918 279 q 925 139 939 188 q 862 45 908 81 q 750 4 815 10 q 725 3 738 3 q 636 15 681 3 q 544 51 592 26 q 466 93 496 75 q 386 144 436 111 q 351 167 367 157 q 348 165 350 167 q 344 161 346 163 q 213 114 281 114 q 97 157 139 114 q 92 163 94 160 q 78 192 82 175 q 89 251 69 225 q 128 278 103 271 q 172 283 149 286 q 240 265 203 279 q 244 263 242 264 q 249 261 247 263 q 249 261 249 261 q 300 236 274 251 q 494 490 375 308 q 374 469 422 483 q 364 469 368 469 q 339 489 344 469 q 344 547 331 511 q 379 590 358 582 q 554 582 413 601 q 575 617 568 606 q 635 711 615 679 q 700 806 669 764 q 394 910 596 821 q 393 910 393 910 q 339 932 347 929 q 185 924 251 957 q 178 919 181 922 q 92 758 93 871 q 151 600 90 631 q 219 604 188 581 q 240 642 239 617 q 235 678 240 667 q 226 699 231 690 q 224 711 222 704 q 233 721 226 718 l 321 761 q 340 756 333 767 q 369 676 364 721 q 358 596 374 632 q 258 517 332 532 q 111 560 171 499 q 57 665 71 600 q 58 796 43 729 q 158 946 83 901 q 169 953 164 950 q 283 976 221 979 q 407 939 346 972 q 724 835 621 844 q 878 963 818 957 q 918 949 901 965 q 922 897 935 932 q 815 811 899 833 q 679 608 764 739 l 668 590 q 659 576 664 585 q 653 567 654 568 q 739 547 704 556 q 774 522 757 542 q 788 489 792 503 q 763 475 783 471 q 604 493 694 492 q 378 190 453 261 q 497 134 438 158 q 617 94 556 110 q 730 86 678 79 q 813 125 782 93 q 833 165 828 140 q 831 206 838 190 q 804 233 824 231 q 760 211 771 240 q 741 202 754 199 q 728 218 728 206 q 786 314 732 289 q 839 322 811 325 q 888 303 867 319 m 561 1008 q 555 1009 557 1008 q 549 1013 553 1010 q 542 1024 546 1017 q 531 1044 538 1032 q 517 1076 525 1057 q 524 1096 511 1089 q 535 1097 529 1099 q 543 1089 540 1094 q 563 1061 554 1064 q 581 1089 571 1068 q 593 1097 583 1097 l 596 1097 l 599 1096 q 606 1076 611 1089 q 583 1029 592 1044 q 570 1011 574 1014 q 561 1008 567 1008 z "},"ž":{"ha":486,"x_min":-75,"x_max":519,"o":"m 142 784 q 140 782 142 784 q 133 781 138 781 q 124 784 128 781 q 111 803 119 788 q 89 850 103 818 q 96 868 83 863 q 106 869 100 871 q 114 861 113 867 q 133 833 125 836 q 151 861 142 842 q 164 869 156 869 l 167 869 l 171 868 q 178 850 183 863 q 155 803 164 818 q 142 784 146 788 m 479 581 q 503 592 486 597 q 514 569 519 586 q 382 321 460 407 l 381 319 q 322 269 357 289 q 236 243 279 243 q 218 244 228 243 q 211 244 214 244 q 171 250 190 246 q 24 250 92 257 q 2 249 11 249 q -14 253 -7 250 q -26 264 -21 256 q -32 286 -31 272 q 63 458 -37 319 q 54 458 60 458 q 46 458 49 458 q 28 471 32 457 q 36 490 25 483 q 99 514 69 511 q 104 514 103 514 q 153 574 126 542 q 104 563 129 567 q 58 561 81 558 q 19 568 36 564 q -12 582 3 572 q -36 599 -26 592 q -53 615 -46 606 q -64 627 -61 624 q -68 633 -67 631 q -68 653 -75 643 l 0 747 q 19 754 7 757 q 33 739 31 751 q 35 732 33 736 q 40 717 36 728 q 49 697 43 706 q 65 680 56 689 q 88 667 74 671 q 118 665 101 663 q 233 706 185 674 q 261 719 251 718 q 299 704 288 724 q 217 518 326 654 q 204 503 210 510 q 275 485 269 493 q 275 465 281 475 q 258 457 269 457 q 253 458 257 457 q 169 460 238 460 q 113 370 125 400 q 114 318 100 340 q 176 285 129 296 q 221 281 197 283 q 313 304 272 281 q 347 335 329 317 q 353 342 349 338 q 420 448 388 385 q 464 538 453 511 q 479 581 475 565 z "},"ˆ":{"ha":417,"x_min":64,"x_max":353,"o":"m 346 853 q 338 840 353 844 q 317 844 324 835 q 265 895 296 871 q 208 919 233 919 q 156 896 188 919 q 100 844 124 872 q 86 839 96 839 q 79 840 82 839 q 71 853 64 844 q 104 894 89 875 q 131 927 119 914 q 153 951 143 940 q 169 969 163 963 q 183 981 176 976 q 194 988 190 986 q 201 992 197 990 q 206 993 204 993 q 210 993 207 993 q 226 989 218 993 q 266 951 235 985 q 346 853 297 917 z "},"ˇ":{"ha":418,"x_min":64,"x_max":353,"o":"m 338 992 q 346 979 353 988 q 264 881 296 914 q 224 843 232 847 q 207 839 215 839 q 190 843 199 839 q 151 881 182 847 q 71 979 119 914 q 78 992 64 988 q 100 988 93 996 q 152 935 121 960 q 208 911 183 911 q 261 935 229 911 q 317 988 293 960 q 331 993 321 993 q 338 992 335 993 z "},"˜":{"ha":288,"x_min":67,"x_max":218,"o":"m 206 968 q 213 967 210 969 q 217 958 217 964 q 210 944 217 953 q 174 924 193 924 q 140 932 160 924 q 113 942 121 940 q 82 929 99 942 q 69 932 72 922 q 75 949 68 939 q 111 971 92 971 q 146 961 126 971 q 176 951 165 951 q 194 960 185 953 q 206 968 204 967 z "},"–":{"ha":690,"x_min":38,"x_max":644,"o":"m 574 497 q 621 472 599 492 q 639 438 643 451 q 606 422 632 418 q 332 442 476 444 q 93 418 188 439 q 82 417 88 417 q 47 438 56 417 q 56 498 38 460 q 101 543 74 536 q 308 538 143 556 q 574 497 474 521 z "},"—":{"ha":1076,"x_min":58,"x_max":1013,"o":"m 901 513 q 977 487 942 507 q 1004 453 1013 467 q 953 438 994 433 q 522 457 749 460 q 147 432 294 454 q 128 431 136 431 q 74 451 88 431 q 88 513 60 475 q 158 558 115 551 q 484 553 224 571 q 901 513 744 536 z "},"‚":{"ha":257,"x_min":76,"x_max":206,"o":"m 203 367 q 186 292 206 328 q 131 247 167 257 q 126 247 128 247 q 111 260 114 247 q 122 279 107 275 q 161 315 147 286 q 138 310 149 310 q 94 328 113 310 q 76 372 76 346 q 94 417 76 399 q 138 435 113 435 q 143 433 138 435 q 144 434 143 433 q 144 435 144 435 q 185 414 169 432 q 203 367 200 396 z "},"‛":{"ha":235,"x_min":51,"x_max":181,"o":"m 163 982 q 172 973 163 982 q 181 938 181 964 q 163 894 181 913 q 119 875 144 875 q 96 881 107 875 q 135 844 110 851 q 146 825 150 842 q 131 813 143 813 q 126 814 129 813 q 85 839 103 819 q 60 883 68 858 q 54 932 53 907 q 58 950 56 942 q 64 966 60 958 q 73 980 68 974 q 84 990 78 986 q 97 997 90 994 q 113 1000 104 999 q 114 1000 113 1000 q 117 1000 115 1000 q 119 1000 118 1000 q 163 982 144 1000 z "},"„":{"ha":403,"x_min":69,"x_max":333,"o":"m 138 379 q 167 369 154 378 q 186 345 179 360 q 196 311 193 331 q 179 237 199 272 q 124 192 160 201 q 119 192 121 192 q 104 204 107 192 q 115 224 100 219 q 154 260 140 231 q 131 254 142 254 q 88 272 106 254 q 69 317 69 290 q 88 361 69 343 q 131 379 106 379 q 136 378 131 379 q 137 378 136 378 q 138 379 138 379 m 331 311 q 326 262 333 286 q 301 218 318 238 q 258 192 283 199 q 254 192 257 192 q 239 204 242 192 q 251 224 235 219 q 289 260 276 231 q 265 254 278 254 q 223 272 240 254 q 206 317 206 290 q 223 361 206 343 q 265 379 240 379 q 271 378 265 379 q 273 378 272 378 q 274 379 274 379 q 313 358 297 376 q 331 311 329 340 z "},"†":{"ha":735,"x_min":63,"x_max":669,"o":"m 599 699 q 646 673 624 693 q 664 638 668 653 q 631 624 657 619 q 414 643 538 642 q 383 38 397 397 q 374 7 382 17 q 356 8 364 -4 q 326 219 340 28 q 311 642 313 410 q 118 618 194 636 q 107 617 113 617 q 72 638 81 617 q 81 699 63 661 q 126 744 99 736 q 311 742 164 756 q 322 890 313 840 q 356 960 332 940 q 461 965 385 986 q 476 950 472 961 q 471 925 479 939 q 421 729 436 875 q 599 699 532 714 m 453 933 l 451 925 l 454 933 l 453 933 z "},"‡":{"ha":735,"x_min":63,"x_max":669,"o":"m 599 308 q 646 283 624 303 q 664 249 668 263 q 631 233 657 229 q 390 253 528 253 q 387 165 389 207 q 385 99 385 122 q 384 58 385 76 q 383 38 383 39 q 374 7 382 17 q 356 8 364 -4 q 324 251 338 29 q 118 228 200 247 q 107 226 113 226 q 72 249 81 226 q 81 309 63 271 q 126 354 99 347 q 319 350 164 365 q 311 642 313 492 q 118 618 194 636 q 107 617 113 617 q 72 638 81 617 q 81 699 63 661 q 126 744 99 736 q 311 742 164 756 q 322 890 313 840 q 356 960 332 940 q 461 965 385 986 q 476 950 472 961 q 471 925 479 939 q 421 729 436 875 q 599 699 532 714 q 646 673 624 693 q 664 638 668 653 q 631 624 657 619 q 414 643 538 642 q 396 342 403 483 q 599 308 522 326 m 453 933 l 451 925 l 454 933 l 453 933 z "},"•":{"ha":319,"x_min":64,"x_max":256,"o":"m 213 526 q 228 515 213 526 q 249 467 243 504 q 233 399 254 429 q 174 363 211 369 q 160 361 167 361 q 107 379 131 361 q 71 438 76 400 q 87 505 65 475 q 145 541 108 535 q 213 526 182 547 z "},"…":{"ha":885,"x_min":69,"x_max":817,"o":"m 173 448 q 164 439 173 448 q 131 429 156 429 q 88 448 106 429 q 69 492 69 467 q 74 516 69 504 q 88 536 79 528 q 107 549 96 544 q 131 554 118 554 q 160 546 146 554 q 182 524 174 538 q 190 492 190 510 q 173 448 190 467 m 754 554 q 778 549 767 554 q 797 536 789 544 q 810 516 806 528 q 815 492 815 504 q 797 448 815 467 q 754 429 779 429 q 712 448 729 429 q 694 492 694 467 q 712 536 694 518 q 754 554 729 554 m 489 448 q 480 439 489 448 q 446 429 471 429 q 403 448 421 429 q 385 492 385 467 q 403 536 385 518 q 446 554 421 554 q 476 546 463 554 q 499 524 490 538 q 507 492 507 510 q 489 448 507 467 z "},"‰":{"ha":1092,"x_min":64,"x_max":1025,"o":"m 288 557 q 253 496 272 518 q 189 465 225 465 l 188 465 q 117 504 144 465 q 76 625 88 546 q 71 778 65 704 q 93 896 76 851 q 158 967 115 964 q 186 960 172 967 q 206 976 194 972 l 208 978 q 246 972 228 983 q 281 928 265 961 q 308 814 300 885 q 311 797 310 813 q 314 707 317 761 q 288 557 311 619 m 188 497 q 222 515 203 497 q 254 564 240 532 q 281 703 275 619 q 281 722 281 713 q 276 808 281 769 q 249 918 265 882 q 229 943 239 936 q 218 946 222 947 q 213 935 215 944 q 215 929 214 932 q 208 908 224 915 q 211 839 207 876 q 226 783 217 801 q 222 760 235 769 q 200 764 210 751 q 167 899 158 815 q 139 765 150 857 q 164 510 117 561 q 188 497 174 497 m 710 353 q 711 336 710 346 q 714 246 717 300 q 688 96 713 157 q 653 33 674 57 q 589 3 626 3 l 588 3 q 517 43 546 4 q 476 163 488 83 q 472 315 465 242 q 493 435 478 389 q 558 504 517 501 q 586 499 572 506 q 607 515 594 510 l 608 515 q 646 511 628 522 q 681 465 667 499 q 710 353 701 424 m 681 242 q 682 261 682 247 q 678 347 682 308 q 649 457 665 421 q 629 481 640 474 q 618 485 622 486 q 614 474 615 482 q 617 468 615 471 q 610 446 624 454 q 613 378 607 415 q 626 321 617 342 q 623 299 636 308 q 600 303 610 290 q 567 436 560 353 q 540 304 550 396 q 535 140 529 208 q 564 47 542 72 q 589 36 575 36 q 623 53 604 36 q 656 103 642 71 q 681 242 676 158 m 1018 336 q 1021 246 1024 300 q 994 96 1019 157 q 960 33 981 57 q 897 3 933 3 l 894 3 q 824 43 853 4 q 783 163 794 83 q 778 315 772 242 q 800 435 785 389 q 865 504 824 501 q 893 499 879 506 q 914 515 901 510 l 915 515 q 954 511 936 522 q 988 465 974 499 q 1017 353 1008 424 q 1018 336 1017 347 m 989 242 q 989 261 989 249 q 985 347 989 308 q 956 457 974 421 q 938 481 947 474 q 925 485 931 486 q 921 474 924 482 q 924 468 922 471 q 917 446 931 454 q 919 378 914 415 q 933 321 924 342 q 930 299 943 308 q 907 303 917 290 q 874 436 867 353 q 847 304 857 396 q 842 140 836 208 q 871 47 849 72 q 896 36 882 36 q 930 53 911 36 q 963 103 949 71 q 989 242 983 158 m 667 894 q 522 672 607 850 q 444 508 482 588 q 379 367 407 428 q 328 253 351 306 q 288 161 304 200 q 259 96 271 122 q 240 51 247 69 q 232 32 233 33 q 213 6 224 11 q 194 13 197 -3 q 260 263 188 40 q 432 735 333 486 q 510 906 479 853 q 574 971 542 958 q 620 971 597 981 q 674 938 643 961 q 682 917 683 929 q 667 894 681 904 m 654 908 l 650 901 l 656 908 l 654 908 z "},"‹":{"ha":460,"x_min":81,"x_max":396,"o":"m 369 285 q 389 250 396 271 q 354 239 383 232 q 324 253 342 242 q 217 316 267 283 q 124 395 168 349 q 81 478 81 442 q 296 686 81 568 q 354 717 329 707 q 376 720 365 722 q 389 708 388 718 q 369 671 393 688 q 360 664 369 671 q 344 651 351 657 q 323 635 336 646 q 299 615 310 625 q 274 593 288 606 q 249 569 260 581 q 226 546 238 558 q 208 522 215 533 q 196 499 200 510 q 192 478 192 488 q 267 370 192 439 q 369 285 342 301 z "},"›":{"ha":450,"x_min":64,"x_max":379,"o":"m 164 686 q 379 478 379 568 q 335 395 379 442 q 242 316 292 349 q 136 253 193 283 q 104 239 118 242 q 71 250 76 232 q 90 285 64 271 q 193 370 118 301 q 268 478 268 439 q 96 667 268 539 q 90 671 92 669 q 71 708 67 688 q 83 720 72 718 q 106 717 94 722 q 164 686 131 707 z "},"⁄":{"ha":833,"x_min":69,"x_max":768,"o":"m 760 915 q 763 891 767 904 q 743 869 758 878 q 549 661 674 835 q 433 499 489 578 q 335 360 378 421 q 258 247 293 299 q 197 157 222 196 q 153 92 171 118 q 124 48 136 65 q 111 29 113 31 q 85 4 97 8 q 69 15 69 -1 q 194 273 69 47 q 475 747 319 499 q 592 916 549 865 q 669 974 636 967 q 716 964 696 979 q 760 915 736 949 m 728 881 l 735 888 l 733 888 l 728 881 z "},"⁰":{"ha":257,"x_min":54,"x_max":201,"o":"m 197 904 l 199 896 q 199 846 201 876 q 185 764 199 799 q 165 729 176 743 q 126 711 149 711 q 83 735 100 711 q 57 844 58 769 q 69 950 56 919 q 110 992 83 990 q 124 989 117 992 q 133 997 128 994 q 161 994 149 1001 q 181 967 172 986 q 197 904 193 944 m 171 844 q 171 854 171 853 q 168 901 171 881 q 154 958 163 939 q 147 967 150 964 q 143 951 150 958 q 144 918 142 936 q 151 890 147 900 q 149 871 160 879 q 128 874 138 863 q 111 914 117 889 q 106 878 108 899 q 118 744 93 771 q 126 740 122 740 q 141 748 132 740 q 157 772 150 756 q 171 844 168 801 z "},"⁴":{"ha":310,"x_min":56,"x_max":246,"o":"m 235 824 q 238 804 244 815 q 221 799 232 793 q 211 800 217 800 q 224 731 215 764 q 222 719 225 724 q 213 713 219 714 q 199 711 206 711 q 164 731 171 711 q 160 794 160 746 q 154 794 158 794 q 149 793 150 793 q 75 792 90 779 q 64 815 64 800 q 100 893 64 833 q 133 957 133 947 q 132 957 133 957 q 117 950 125 956 q 107 940 108 944 q 94 931 104 932 q 81 939 85 931 l 61 972 q 64 990 56 982 q 117 1008 85 1008 q 156 989 142 1008 q 158 929 171 967 q 139 882 154 915 q 115 819 115 831 q 150 831 124 819 q 163 835 158 833 q 178 978 167 918 q 191 1002 182 994 q 210 1008 200 1010 q 221 992 224 1006 l 219 986 q 210 835 206 908 q 235 824 225 831 z "},"ₐ":{"ha":289,"x_min":49,"x_max":229,"o":"m 175 1001 q 229 889 229 983 q 226 733 229 764 q 208 714 225 715 q 168 711 185 711 q 76 740 107 711 q 50 814 49 765 q 65 865 51 844 q 102 894 78 886 q 144 906 126 903 q 188 908 163 908 q 163 963 183 956 q 134 959 150 967 q 108 939 118 951 q 80 935 96 924 q 76 964 64 947 q 122 998 94 986 q 175 1001 150 1010 m 188 753 q 189 869 189 797 q 113 856 136 868 q 90 813 90 844 q 104 768 89 783 q 188 753 126 749 z "},"€":{"ha":801,"x_min":39,"x_max":728,"o":"m 688 915 q 725 767 722 856 q 696 606 728 678 q 687 597 693 600 q 674 597 681 594 l 579 639 q 570 651 572 643 q 575 665 568 658 q 642 797 624 717 q 636 919 660 878 q 618 942 629 935 q 596 949 607 947 q 586 950 592 949 q 457 846 526 944 q 367 674 407 775 q 449 660 418 667 q 484 639 467 656 q 499 608 501 622 q 474 593 494 590 q 340 601 415 604 q 296 418 310 510 q 410 401 369 410 q 446 381 429 397 q 460 350 463 364 q 436 335 456 332 q 286 343 371 346 q 303 118 275 213 q 397 39 325 38 q 488 70 442 40 q 577 163 535 100 q 642 310 619 226 q 660 335 647 333 q 676 325 671 335 q 670 276 681 315 q 630 181 660 238 q 560 83 600 124 q 397 3 481 3 q 331 18 363 3 q 231 133 265 50 q 196 335 196 215 q 82 310 128 325 q 72 308 76 308 q 47 325 54 308 q 50 379 39 346 q 81 421 61 413 q 200 426 106 432 q 204 456 203 447 q 232 593 214 526 q 121 568 164 583 q 110 567 115 567 q 86 585 93 567 q 83 609 82 594 q 89 638 85 624 q 101 664 93 651 q 118 681 108 676 q 261 683 146 692 q 409 906 319 829 q 582 982 499 982 q 585 982 583 982 q 633 971 613 983 q 688 915 665 954 z "},"™":{"ha":867,"x_min":44,"x_max":771,"o":"m 346 979 q 366 971 357 979 q 375 950 375 963 q 366 928 375 938 q 346 919 357 919 l 239 919 l 239 611 q 230 591 239 600 q 208 582 221 582 q 188 591 196 582 q 179 611 179 600 l 179 919 l 75 919 q 53 928 63 919 q 44 950 44 938 q 53 971 44 963 q 75 979 63 979 l 346 979 m 746 979 q 769 950 769 974 l 769 611 q 761 591 769 600 q 740 582 753 582 q 719 591 728 582 q 710 611 710 600 l 710 813 l 614 600 q 586 583 606 583 q 560 600 567 583 l 463 813 l 463 611 q 453 591 463 600 q 433 582 444 582 q 412 591 421 582 q 403 611 403 600 l 403 950 q 426 979 403 974 q 460 963 450 983 l 586 683 l 713 963 q 746 979 722 983 z "},"❝":{"ha":361,"x_min":42,"x_max":311,"o":"m 110 1075 q 153 1057 135 1075 q 171 1014 171 1039 q 166 989 171 1000 q 153 969 161 978 q 133 956 144 961 q 110 951 122 951 q 107 951 108 951 l 104 951 q 103 951 103 951 q 63 972 78 953 q 44 1019 47 990 q 61 1094 42 1058 q 117 1138 81 1129 q 121 1139 119 1139 q 136 1126 133 1139 q 125 1106 140 1110 q 86 1071 100 1100 q 110 1075 97 1075 m 250 1075 q 292 1057 275 1075 q 310 1014 310 1039 q 305 989 310 1000 q 292 969 300 978 q 273 956 285 961 q 250 951 261 951 q 246 951 249 951 l 243 951 q 242 951 242 951 q 202 972 218 953 q 183 1019 186 990 q 201 1094 181 1058 q 256 1138 221 1129 q 260 1139 258 1139 q 276 1126 272 1139 q 264 1107 281 1110 q 225 1071 239 1100 q 250 1075 238 1075 z "},"❞":{"ha":361,"x_min":44,"x_max":317,"o":"m 113 1138 q 153 1117 138 1136 q 171 1069 168 1099 q 165 1020 172 1044 q 140 976 157 996 q 99 951 122 957 q 94 951 96 951 q 79 963 82 951 q 90 983 75 979 q 129 1018 115 989 q 106 1014 117 1014 q 63 1032 81 1014 q 44 1076 44 1050 q 53 1107 44 1093 q 75 1130 61 1121 q 106 1139 89 1139 q 111 1138 106 1139 q 113 1138 113 1138 m 313 1069 q 296 997 315 1032 q 240 951 276 961 q 236 951 239 951 q 221 963 224 951 q 232 983 217 979 q 271 1018 257 989 q 247 1014 260 1014 q 204 1032 222 1014 q 186 1076 186 1050 q 204 1120 186 1101 q 247 1139 222 1139 q 251 1138 249 1139 l 253 1138 q 253 1138 253 1138 q 256 1138 254 1138 q 294 1117 279 1136 q 313 1069 310 1099 z "}}}
